<ttFont>
<head>
    <!-- Most of this table will be recalculated by the compiler -->
    <tableVersion value="1.0"/>
    <fontRevision value="1.01"/>
    <checkSumAdjustment value="0x2d1adb7"/>
    <magicNumber value="0x5f0f3cf5"/>
    <flags value="00000000 00001011"/>
    <unitsPerEm value="1000"/>
    <created value="Mon Oct 16 17:46:54 2006"/>
    <modified value="Sat Nov  5 23:08:16 2016"/>
    <xMin value="0"/>
    <yMin value="-176"/>
    <xMax value="509"/>
    <yMax value="834"/>
    <macStyle value="00000000 00000000"/>
    <lowestRecPPEM value="8"/>
    <fontDirectionHint value="2"/>
    <indexToLocFormat value="0"/>
    <glyphDataFormat value="0"/>
  </head>
          <CharString index="0">
            45.25 -25.37598 16.44922 -19.64355 -19.28223 -23.40234 -15.39844 -39.50977 vhcurveto
            0 -21.65234 6.26465 -19.99219 0 -21.71094 0 -19.625 -4.36133 -18.86914 -5.39355 -16.82812 rrcurveto
            -21.5752 -67.31445 55.23242 -13.80762 24.16406 66.4502 rlineto
            24.86816 68.38867 8.50488 31.89746 0 26.27246 rrcurveto
            return
          </CharString>
          <CharString index="1">
            -170.875 -176.91504 -61.27246 176.91504 -187.27148 62.99902 187.27148 170.87402 61.27246 -170.87402 170.875 vlineto
            return
          </CharString>
          <CharString index="2">
            51.17383 -33.88672 31.75586 -35.56836 -32.91113 -24.65039 -26.82227 -30.20312 vhcurveto
            0 -26.88867 19.0498 -11.49805 8.83496 -5.87598 8.6875 -5.77832 14.7373 -9.20801 0 -20.58691 0 -16.54883 -9.92383 -17.09082 -4.88379 -8.02246 -9.76758 -16.04785 -16.80176 -24.33398 -23.7168 -21.81152 rrcurveto
            34.51953 -30.20508 rlineto
            69.64941 70.7168 36.63184 65.21094 0 52.06445 rrcurveto
            return
          </CharString>
          <CharString index="3">
            -66.45117 359.8711 66.45117 vlineto
            return
          </CharString>
          <CharString index="4">
            31.47168 -26.27441 25.9248 -32.875 -32.8623 -26.26172 -25.92383 -31.45996 -31.52344 26.28906 -25.91309 32.81738 32.88867 26.27832 25.9375 31.48633 vhcurveto
            return
          </CharString>
          <CharString index="5">
            -61.27246 410.78809 61.27246 vlineto
            return
          </CharString>
          <CharString index="6">
            69.04004 0 60.41016 182.95605 197.62695 0 69.04004 -182.09277 72.49219 0 -240.77734 634.30469 -7.7666 0 rlineto
            return
          </CharString>
          <CharString index="7">
            -168.28516 0 80.25977 237.3252 rlineto
            return
          </CharString>
          <CharString index="8">
            -96.90723 -140.11719 -70.90527 -249.43457 -240.73828 133.94727 -77.54297 102.6377 hvcurveto
            74.31055 0 69.45215 38.81836 39.09863 63.87988 rrcurveto
            -51.7793 33.65723 rlineto
            -28.73633 -47.56445 -49.52344 -28.38477 -48.89844 0 rrcurveto
            -91.6836 -80.63086 95.65918 168.39746 165.53223 78.38574 92.67676 88.08301 hvcurveto
            48.77246 0 45.46094 -28.88379 25.14844 -43.43555 1.98535 -3.42773 1.45898 -2.58301 0 -4.64941 0 -2.48047 -0.42383 -2.49023 0 -2.48633 0 -1.1709 -0.03906 -5.42188 4.59961 -3.22461 rrcurveto
            66.45117 32.79492 rlineto
            -33.50586 75.11719 -74.76465 48.29102 -82.78223 0 rrcurveto
            return
          </CharString>
          <CharString index="9">
            -623.94922 133.76562 vlineto
            49.52734 0 41.33887 2.42578 43.92773 22.58301 89.32715 45.9248 48.74219 106.15625 0 136.35156 0 119.96875 -35.56836 104.99512 -80.13965 52.14551 -45.27246 29.45801 -44.84863 3.94043 -54.95312 0 rrcurveto
            return
          </CharString>
          <CharString index="10">
            75.08105 hlineto
            39.25879 0 39.41699 -2.25293 38.5625 -31.96387 57.90332 -47.99316 19.33691 -88.64941 0 -89.48145 0 -118.77832 -39.40527 -68.35645 -49.78516 -33.59277 -39.06348 -26.3584 -38.26562 -1.74316 -39.17773 0 rrcurveto
            -63.8623 hlineto
            return
          </CharString>
          <CharString index="11">
            -623.94922 379.7207 62.13574 -313.26953 231.28418 260.62598 63.8623 -260.62598 204.53125 315.8584 62.13574 vlineto
            return
          </CharString>
          <CharString index="12">
            -82.86621 -158.22949 -51.65625 -273.39258 -235.8252 132.04199 -77.80664 108.73242 hvcurveto
            57.7168 0 66.59863 21.51562 58.74023 43.25195 rrcurveto
            243.36523 -177.77734 -60.40918 113.05273 -148.43652 vlineto
            -34.96387 -24.91699 -40.05762 -13.05762 -37.1289 0 -40.31152 0 -44.29102 15.93555 -33.88867 38.62207 -52.01953 59.28418 -7.3125 87.42383 0 65.81348 0 58.02441 6.9668 55.89551 24.37598 45.87305 32.14844 60.49512 55.54883 28.76855 52.48926 0 55.61035 0 44.2666 -31.84961 19.05762 -41.75586 rrcurveto
            3.06934 -6.72266 2.42383 -7.91602 7.8252 -5.01855 rrcurveto
            49.19043 50.05371 rlineto
            -35.62402 64.56934 -68.61719 39.87207 -76.76758 0 rrcurveto
            return
          </CharString>
          <CharString index="13">
            -58.6836 115.6416 -506.58105 -122.5459 -58.68457 321.89941 57.82129 -129.4502 507.44434 123.40918 58.6836 vlineto
            return
          </CharString>
          <CharString index="14">
            -623.94922 372.81543 60.41016 -300.32324 529.88184 vlineto
            0 9.03516 2.19434 3.28711 2.94629 5.6084 1.47852 2.81348 3.09082 5.80469 -1.08008 7.1084 rrcurveto
            return
          </CharString>
          <CharString index="15">
            67.31445 490.1836 hlineto
            274.4336 -491.04688 55.23242 0 0 598.05957 rlineto
            0 6.95312 1.59082 2.48535 2.39746 4.5586 1.11719 2.12598 2.59961 4.8086 -0.80078 5.82129 rrcurveto
            -74.21875 -462.56836 hlineto
            -261.48828 461.70508 -68.17773 0 rlineto
            return
          </CharString>
          <CharString index="16">
            0 58.29199 -4.17383 77.40918 -33.98438 66.58496 -40.8623 80.05762 -70.84473 37.39453 -67.82422 0 rrcurveto
            -92.92773 -131.2461 -72.59277 -244.89355 -244.8457 129.42871 -77.16406 95.37012 hvcurveto
            67.2627 0 71.72559 37.5166 41.01953 83.00977 33.10352 66.99316 3.95312 77.51562 0 54.72266 rrcurveto
            return
          </CharString>
          <CharString index="17">
            44.21094 0 53.28516 -26.29297 29.03906 -72.22754 21.0586 -52.37988 3.19238 -59.6709 0 -52.74023 0 -40.80566 -2.35547 -63.57129 -25.53711 -53.70801 -28.83203 -60.64453 -48.27637 -23.69629 -41.92578 0 rrcurveto
            -70.08789 -85.99707 64.78125 198.15039 185.7627 86.7539 57.04297 65.47168 hvcurveto
            return
          </CharString>
          <CharString index="18">
            -623.08594 70.7666 275.29688 120.81934 vlineto
            138.08008 -275.29688 78.5332 0 -144.1211 277.88574 rlineto
            75.51172 20.6289 51.47266 71.18945 0 82.48926 0 62.57031 -30.80469 58.23828 -57.35449 29.1289 -39.47363 20.04883 -39.33691 0.90625 -40.27344 0 rrcurveto
            return
          </CharString>
          <CharString index="19">
            113.05273 hlineto
            26.03223 0 25.04883 -0.63672 25.39746 -12.74023 38.84277 -19.48535 20.17188 -39.64258 0 -40.55957 0 -39.73438 -19.28223 -37.125 -36.09766 -18.26367 -24.02441 -12.15527 -23.75586 -0.58496 -24.5664 0 rrcurveto
            -120.81934 hlineto
            return
          </CharString>
          <CharString index="20">
            -42.19922 50.13867 -62.68457 27.53809 -67.92285 0 -112.5332 0 -77.29297 -74.4414 0 -85.2168 0 -36.33105 14.25977 -46.84277 51.95215 -38.36035 57.71582 -42.61523 89.93945 -21.56152 47.0918 -29.51465 40.86719 -25.61523 11.41113 -32.5459 0 -27.86523 0 -54.21387 -45.60254 -58.82129 -90.46094 0 rrcurveto
            -68.39941 0 -52.67871 33.45215 -27.85938 35.28418 -3.1289 3.96191 0.25879 2.52832 0.05664 4.12598 0.02246 1.65039 0.2207 5.50293 -4.78125 2.42676 rrcurveto
            -41.42383 -71.6289 rlineto
            49.00098 -53.3623 69.78809 -26.95605 76.88965 0 151.66016 0 56.01855 101.63281 0 78.41992 0 32.60742 -9.40527 43.5166 -39.0039 36.72852 -54.2002 51.04004 -87.78906 17.69531 -57.01367 33.3457 -52.14551 30.4961 -11.52148 36.96191 0 25.47168 0 47.77148 41.19922 43.56445 71.33105 0 rrcurveto
            58.0459 0 44.62793 -26.52539 24.13281 -35.18945 2.64746 -3.85938 -0.50293 -2.08496 0.13281 -3.67676 0.19922 -5.54004 2.88086 -1.97559 2.18652 -0.66406 rrcurveto
            return
          </CharString>
          <CharString index="21">
            -62.99902 176.91504 -561.81348 70.76562 561.81348 183.81934 62.99902 vlineto
            return
          </CharString>
          <CharString index="22">
            -408.19922 0 vlineto
            0 -44.04688 1.2168 -42.41309 23.06934 -42.80273 34.53223 -64.06836 69.13477 -32.83789 73.52441 0 72.0166 0 69.99512 32.10254 35.4414 65.31836 23.58008 43.46094 1.37402 43.16602 0 45.57324 rrcurveto
            404.74707 -66.45117 -406.47266 vlineto
            0 -32.19629 -0.66992 -31.41699 -15.32422 -31.70605 -23.02832 -47.64258 -46.9209 -25.3916 -48.62695 0 -49.41797 0 -47.03809 26.0039 -22.40625 47.91797 -14.35547 30.70312 -0.60547 30.19336 0 30.94629 rrcurveto
            377.13086 vlineto
            0 4.54395 0.25586 3.37988 3.68945 5.18945 2.64062 3.71289 3.94336 4.08887 0 5.96777 0 1.74414 -0.35352 1.71875 -0.68262 1.58496 rrcurveto
            return
          </CharString>
          <CharString index="23">
            191.58691 -377.99414 0 -245.95508 75.94336 0 0 245.95508 176.91504 377.13086 -74.21777 0 -138.08008 -302.0498 -152.75098 302.91309 rlineto
            return
          </CharString>
          <CharString index="24">
            -62.99902 302.0498 vlineto
            -314.13184 -511.75879 0 -49.1914 412.51465 0 0 68.17773 rlineto
            -12.44531 1.8457 -3.83008 -7.88672 -13.92969 0 rrcurveto
            -294.2832 0 308.09082 512.6211 0.86328 49.1914 rlineto
            return
          </CharString>
          <CharString index="25">
            35.38281 -45.73926 rlineto
            37.41797 39.17383 51.43262 11.76953 42.21289 0 54.26172 0 26.82617 -22.79688 12.89551 -21.1748 15.2207 -24.9961 -0.35352 -29.39355 0 -24.21094 rrcurveto
            -16.39746 -14.6709 vlineto
            -67.29395 0 -72.03223 0.70508 -58.12402 -21.36035 -72.0586 -26.48242 -32.69824 -53.39551 0 -50.64258 0 -67.02246 58.25098 -62.27832 95.44922 0 56.11426 0 58.08008 20.4248 49.84668 40.84961 rrcurveto
            -50.05371 68.17676 283.06445 vlineto
            0 37.44531 -1.34473 35.37012 -21.08691 35.14258 -29.98145 49.9668 -57.97266 25.9414 -70.90918 0 -61.62988 0 -58.73145 -19.8252 -42.68066 -44.08398 rrcurveto
            return
          </CharString>
          <CharString index="26">
            -30.20508 vlineto
            0 -23.66504 -0.19922 -29.63184 -30.81934 -32.75586 -16.59863 -17.64258 -43.68848 -36.27148 -59.83691 0 -60.56836 0 -35.39355 38.25 0 40.83691 0 33.18555 23.29883 37.31055 57.27734 13.67383 41.49219 9.90527 61.16699 -2.99023 47.47168 0 rrcurveto
            return
          </CharString>
          <CharString index="27">
            -35.97461 52.73145 -61.38965 31.86719 -73.46582 0 rrcurveto
            -134.26172 -95.34082 -100.66797 -137.10547 -137.75 95.83496 -101.74121 129.21973 hvcurveto
            63.78125 0 61.12402 25.5293 43.56836 46.96387 rrcurveto
            -41.42383 48.32715 rlineto
            -30.8877 -35 -44.35742 -20.25 -45.78613 0 rrcurveto
            -89.02344 -67.8584 74.59863 106.75879 104.11328 66.91309 64.99023 83.94922 hvcurveto
            78.00098 0 37.51465 -54.46777 2.64844 -5.35742 3.81738 -7.71875 -5.4375 -9.39355 7.91797 -5.97461 rrcurveto
            return
          </CharString>
          <CharString index="28">
            -109.11523 -100.93848 -78.02832 -166.77051 -152.21973 95.27637 -81.4414 124.08789 hvcurveto
            65.20703 0 59.22754 23.8623 39.11523 47.02734 rrcurveto
            -39.69824 38.83496 rlineto
            -29.77637 -33.34863 -43.07031 -18.05078 -45.4248 0 -61.11914 0 -88.48633 33.69531 -5.43652 136.79785 rrcurveto
            324.23047 hlineto
            2.77148 31.38867 -1.4502 29.3418 -4.4873 26.52051 -20.75098 122.64844 -85.26367 39.74219 -74.89844 0 rrcurveto
            return
          </CharString>
          <CharString index="29">
            14.22852 107.74512 69.53809 31.34375 49.02734 0 74.04297 0 52.86914 -65.00977 -8.58008 -74.0791 rrcurveto
            return
          </CharString>
          <CharString index="30">
            55.36426 45.08008 45.01074 55.53027 55.52734 45.03223 -45.0127 -55.32422 -55.36035 -45.07129 -45.0127 -55.52637 -55.5332 -45.03906 45.00781 55.32715 vhcurveto
            return
          </CharString>
          <CharString index="31">
            -90.95215 -79.80957 -72.27441 -89.26855 hvcurveto
            0 -49.98242 25.67383 -46.4961 41.86426 -27.24121 -32.96094 -27.94531 -18.76953 -30.87793 0 -29.35254 0 -19.02246 7.7832 -26.69238 28.86328 -15.16797 -49.0332 -31.30273 -25.26465 -33.59473 0 -36.2998 rrcurveto
            -49.80762 46.46094 -58.41309 160.1123 154.72852 55.47852 78.41895 61.27637 vhcurveto
            0 39.54883 -22.50879 39.92188 -48.52734 19.70508 -47.6914 19.36621 -55.1836 -6.42383 -51.77051 0 -34.1084 0 -21.39551 3.07227 -9.74023 2.67676 -17.49902 4.8086 -10.18457 10.77148 0 14.39941 0 24.17676 28.14551 23.2041 4.49023 3.7041 18.57617 -6.88477 19.6543 -3.52051 19.81152 0 rrcurveto
            90.47656 74.13672 72.16602 84.32715 hvcurveto
            0 27.6914 -8.14258 26.9209 -15.16016 22.81738 24.06348 14.44238 27.5791 7.66309 28.14941 0 8.83398 0 8.81836 -0.75488 8.70508 -1.50195 rrcurveto
            -8.63086 58.68457 rlineto
            -45.9502 3.6211 -45.56055 -14.55371 -35.34961 -29.6289 -28.16699 28.07129 -38.38184 15.55176 -41.66309 0 rrcurveto
            return
          </CharString>
          <CharString index="32">
            17.31543 -2.23926 24.24414 -1.96289 34.95996 -1.29492 33.71484 -1.24902 36.85938 2.53613 26.20801 -3.9502 42.36426 -6.38574 12.15039 -26.66113 0 -20.11523 0 -19.7998 -11.375 -23.90625 -31.37207 -16.93164 -33.47656 -18.06543 -38.63379 -1.93457 -30.58008 0 -20.85938 0 -38.87793 1.19922 -34.53516 13.73047 rrcurveto
            -36.92871 14.68457 -8.0918 25.13672 0 15.96289 0 32.83887 30.66309 23.99219 26.25098 14.41504 rrcurveto
            return
          </CharString>
          <CharString index="33">
            -58.6836 110.46387 -340.88477 -116.50488 -57.82129 296.00879 57.82129 -107.01172 399.56836 vlineto
            return
          </CharString>
          <CharString index="34">
            -28.63574 -23.16309 -23.07324 -28.28711 -28.28125 23.16016 -23.0625 28.62695 28.64453 23.16016 23.07227 28.27734 28.2959 -23.16895 23.0586 -28.62402 hvcurveto
            return
          </CharString>
          <CharString index="35">
            -59.54688 170.01074 -379.71973 vlineto
            0 -24.40137 -0.4336 -24.01465 -11.25195 -24.2832 -17.21973 -37.15918 -36 -20.46777 -38.64062 0 -55.23828 0 -29.88672 39.51855 -3.68262 6.01953 -4.10059 6.70215 1.59277 6.50195 -6.21777 5.13281 rrcurveto
            -46.60156 -62.13574 rlineto
            32.70996 -40.58496 50.15234 -23.43262 56.6836 0 65.19043 0 63.89551 30.65625 30.96973 60.64844 19.51172 38.20996 1.05957 37.47168 0 39.42578 rrcurveto
            425.45898 vlineto
            return
          </CharString>
          <CharString index="36">
            -57.82031 129.4502 -548.86816 -135.49121 -57.82129 342.61035 57.82129 -134.62793 606.68848 vlineto
            return
          </CharString>
          <CharString index="37">
            73.35547 263.21484 hlineto
            0 30.76758 3.69922 22.34961 19.0039 25.32324 17.41797 23.20996 43.90234 40.38281 48.30957 0 22.92773 0 22.60059 -9.32031 16.40918 -19.60742 24.72559 -29.54688 0.20605 -39.20703 0 -32.26953 rrcurveto
            -275.29688 70.76562 277.02344 0 vlineto
            0 35.6709 -0.23438 37.69531 -16.24902 36.72461 -22.74512 51.40137 -46.8291 29.23242 -52.05957 0 -61.99512 0 -56.30957 -40.56152 -33.5459 -50.91895 rrcurveto
            80.25977 -73.35547 vlineto
            return
          </CharString>
          <CharString index="38">
            157.73926 -99.55762 82.78027 -103.82812 -116.42773 -99.8164 -100.85547 -141.15332 -138.98242 98.96875 -97.97852 115.1416 108.1836 97.33594 86.99414 151.45605 vhcurveto
            return
          </CharString>
          <CharString index="39">
            65.90723 69.93652 -56.87207 -125.44434 -114.98926 -65.83203 -58.34473 -66.6836 -72.80762 -65.81543 68.37695 112.6914 111.99121 65.42383 62.59082 69.8711 hvcurveto
            return
          </CharString>
          <CharString index="40">
            40.10352 96.77539 -20.96289 -165.81055 -144.0752 -94.53418 -23.04492 -42.79492 hvcurveto
            -43.32715 0 -43.08887 21.46387 -18.03516 41.54492 -13.37793 30.81836 0.28613 37.6416 0 66.1709 0 38.53516 2.01562 27.78809 10.0586 23.72656 17.39648 41.03418 42.49805 25.16992 46.02441 0 rrcurveto
            return
          </CharString>
          <CharString index="41">
            -457.39062 72.49219 222.6543 vlineto
            0 27.56836 1.06738 30.32812 31.05469 49.09961 41.51367 65.63281 54.53125 11.36719 32.30273 0 38.43848 0 24.16797 -17.83203 12.82617 -16.38672 6.00293 -7.66895 3.27832 -7.90723 7.6748 -7.33984 rrcurveto
            33.65723 69.04004 rlineto
            -28.74023 29.44043 -42.06152 20.44336 -51.31055 0 -66.73926 0 -67.74316 -33.75977 -29.9209 -65.31543 rrcurveto
            2.58887 88.02637 rlineto
            return
          </CharString>
          <CharString index="42">
            -42.21582 46.52051 -60.6543 25.11133 -67.57617 0 -106.10449 0 -69.51465 -59.29102 0 -68.23633 0 -79.76953 86.50488 -29.06543 24.79688 -8.96387 38.63867 -13.9668 50.44531 -12.13574 33.70117 -15.77344 37.69043 -17.64258 7.89551 -24.0586 0 -16.50977 0 -42.79492 -52.1914 -29.4873 -65.2666 0 rrcurveto
            -78.31055 0 -50.16016 47.18945 -14.45508 16.43066 -3.40625 3.87402 0.44434 2.81445 0.18457 3.99902 0.0625 1.37305 0.43652 5.72754 -4.92676 2.30273 rrcurveto
            -41.42383 -71.6289 rlineto
            53.62793 -49.86621 69.82324 -22.62598 69.39648 0 124.85449 0 65.20996 73.68262 0 68.95898 0 31.6211 -13 41.33398 -54.05762 30.34473 -51.62598 28.97852 -73.56934 10.3164 -42.70117 20.63574 -37.31934 18.03613 -7.9414 22.15527 0 15.34961 0 36.76367 44.60547 25.6211 51.65234 0 rrcurveto
            65.12695 0 44.30371 -40.29297 17.38867 -22.44043 2.8164 -3.63574 -0.65625 -2.39941 -0.02344 -3.5127 -0.03906 -5.98242 3.48047 -1.63965 1.76562 -0.41992 rrcurveto
            return
          </CharString>
          <CharString index="43">
            -8.62988 -122.5459 -108.73828 0 -0.8623 -58.68457 107.01172 0 rlineto
            -6.37598 -78.22363 -3.11719 -77.75586 0 -77.58398 0 -40.98535 0.37012 -45.90918 26.58887 -37.46289 21.66406 -30.52539 35.7041 -18.13086 46.66211 0 54.39648 0 53.00098 22.74121 38.63672 28.28027 rrcurveto
            -22.43848 56.95801 rlineto
            -38.7666 -28.8252 -35.42773 -12.88086 -28.13672 0 -34.10156 0 -35.45215 18.87012 -7.31152 54.86328 -0.53613 4.01953 -2.39941 17.57812 0 66.2207 0 59.71582 2.89551 59.64258 5.77344 59.39355 rrcurveto
            150.16211 59.54688 -149.29883 hlineto
            0 0 6.89551 82.28711 4.70117 25.3291 1.9873 10.70215 7.1875 6.16992 -3.51172 10.13965 rrcurveto
            return
          </CharString>
          <CharString index="44">
            -0.86328 -254.58496 rlineto
            -0.13477 -39.78516 0.4082 -40.07227 17.8457 -40.12988 26.68457 -60.00586 55.86426 -33.18262 59.43555 0 57.29004 0 54.02734 30.72461 29.7666 50.41211 rrcurveto
            -0.86328 -34.52051 rlineto
            -0.29199 -11.65527 0.12402 -11.94824 1.89355 -11.7793 rrcurveto
            75.94434 hlineto
            -4.38867 13.65332 -0.78906 14.38574 0 13.38477 rrcurveto
            415.10352 -72.49219 -251.13379 vlineto
            0 -35.16895 -2.72461 -27.13965 -15.26562 -27.87988 -20.9375 -38.23535 -40.60645 -29.50488 -44.00684 0 -35.75684 0 -33.36035 19.76855 -18.1914 36.12207 -16.23145 32.22949 0.1123 35.7207 0 30.63672 rrcurveto
            254.58496 vlineto
            return
          </CharString>
          <CharString index="45">
            185.54492 -454.80176 -14.6709 -33.65625 rlineto
            -7.9209 -18.1709 -9.12598 -19.47461 -14.47559 -15.41406 -19.01855 -20.25293 -23.46875 -9.33984 -21.39746 0 -33.8623 0 -17.2793 22.7041 -2.54297 4.87207 -2.58203 4.94922 0.50781 6.66895 -5.90039 4.62305 rrcurveto
            -37.1084 -64.72559 rlineto
            26.36328 -25.24316 35.05762 -12.88379 37.56152 0 41.26172 0 42.80371 15.17773 30.4414 34.25 19.95605 22.4541 9.64844 24.09473 9.76465 25.86133 rrcurveto
            142.39551 377.13086 rlineto
            16.42676 43.50586 15.87793 43.86719 13.4336 44.66602 rrcurveto
            -75.08105 hlineto
            -7.54688 -41.82715 -12.98438 -40.52148 -13.98828 -39.33398 rrcurveto
            -87.16309 -245.0918 -133.76465 336.56934 rlineto
            -1.12695 2.83691 -0.74316 2.21387 0 2.91113 0 7.36133 5.02051 5.02637 -0.56152 8.99316 rrcurveto
            return
          </CharString>
          <CharString index="46">
            -62.99902 262.35254 vlineto
            -283.06445 -346.0625 0 -49.1914 399.56934 0 0 68.17773 rlineto
            -12.44531 1.8457 -3.8291 -7.88672 -13.93066 0 rrcurveto
            -271.84473 0 278.74902 346.92578 0 49.19043 rlineto
            return
          </CharString>
          <CharString index="47">
            27.86719 -22.63477 22.63672 -27.86621 -27.86621 -22.63574 -22.63672 -27.86621 -27.86621 22.63672 -22.63379 27.86621 27.86426 22.63574 22.63574 27.86328 vhcurveto
            return
          </CharString>
          <CharString index="48">
            27.93066 -22.49512 22.57422 -27.55371 -27.57812 -22.48438 -22.58691 -27.91699 -27.9248 22.49219 -22.58008 27.56836 27.57324 22.47754 22.59082 27.91309 vhcurveto
            return
          </CharString>
          <CharString index="49">
            132.18066 110.07227 112.66016 143.11133 142.83008 -109.84375 112.4082 -132.01367 -132.3789 -110.1377 -112.77637 -143.22754 -142.47168 109.76953 -112.53418 132.35156 hvcurveto
            return
          </CharString>
          <CharString index="50">
            120.18066 90.36523 93.15332 107.62012 107.45898 90.05078 -92.90039 -119.66992 -119.98828 -90.33398 -92.97754 -107.44727 -107.78125 -89.93262 93.03223 119.16992 vhcurveto
            return
          </CharString>
          <CharString index="51">
            -54.36914 349.51465 54.36914 vlineto
            return
          </CharString>
          <CharString index="52">
            0 -23.30176 157.92871 -168.28418 39.69824 39.69727 -127.72461 139.80664 120.82031 118.23047 -38.83496 41.42383 rlineto
            return
          </CharString>
          <CharString index="53">
            -56.0957 253.72168 56.0957 vlineto
            return
          </CharString>
          <CharString index="54">
            -88.02637 -146.70996 50.05371 -30.20508 100.97168 134.62793 rlineto
            return
          </CharString>
          <CharString index="55">
            -151.88867 147.57227 -38.83496 -41.42383 120.82031 -118.23047 -127.72363 -139.80664 39.69727 -39.69727 157.92969 168.28418 rlineto
            return
          </CharString>
          <CharString index="56">
            46.60156 -25.88965 314.13184 680.04395 -47.46484 26.75293 rlineto
            return
          </CharString>
          <CharString index="57">
            -160.17285 -205.04883 0 -28.30664 145.6748 0 0 -78.01465 45.5664 0 0 77.3252 50.39941 0 0 37.97168 -50.39941 0 0 196.07324 rlineto
            return
          </CharString>
          <CharString index="58">
            -118.0586 -93.89453 vlineto
            return
          </CharString>
          <CharString index="59">
            -34.51953 0 -107.0127 -58.68457 13.11816 -24.85352 77.32422 20.02051 0 -240.25781 51.08984 0 rlineto
            return
          </CharString>
          <CharString index="60">
            -39.69824 -69.90332 169.14844 -61.27344 23.30078 41.4248 rlineto
            return
          </CharString>
          <CharString index="61">
            -152.75098 -89.75195 23.30176 -41.4248 169.14746 61.27344 rlineto
            return
          </CharString>
          <CharString index="62">
            28.47852 -33.65723 111.32715 68.17773 103.56055 -70.7666 32.79395 37.97266 -123.40918 97.51855 -21.5752 0 rlineto
            return
          </CharString>
          <CharString index="63">
            23.95898 38.65039 15.00781 22.99512 26.48633 0 44.04785 0 27.08008 -75.66602 58.15527 0 36.88379 0 27.23145 27.94922 34.56836 43.0293 rrcurveto
            -37.10938 39.69824 rlineto
            -21.74805 -29.34961 -11.7041 -23.35449 -24.66406 0 -18.65527 0 -15.01562 14.71289 -16.20703 16.89062 -12.85156 13.3916 -26.8457 29.51465 -40.41699 0 -38.98633 0 -37.10352 -27.9873 -36.98828 -58.54395 rrcurveto
            return
          </CharString>
          <CharString index="64">
            27.86719 -22.63477 22.63672 -27.86621 -27.86621 -22.63574 -22.63672 -27.86719 -27.86523 22.63672 -22.63477 27.86621 27.86426 22.63574 22.63672 27.86328 vhcurveto
            return
          </CharString>
          <CharString index="65">
            27.93164 -22.49512 22.57422 -27.55371 -27.57812 -22.48438 -22.58789 -27.91602 -27.92578 22.49219 -22.58008 27.56836 27.57324 22.47754 22.5918 27.91211 vhcurveto
            return
          </CharString>
          <CharString index="66">
            -264.07812 -48.32812 -57.82031 48.32812 -302.05078 127.72363 vlineto
            44.20996 0 33.34375 2.73047 35.37598 16.4707 95.8877 44.64551 51.04395 119.29883 0 132.81152 0 106.01562 -32.04688 109.44727 -74.99512 55.53223 -43.43848 32.16504 -43.24805 4.83203 -54.05078 0 rrcurveto
            return
          </CharString>
          <CharString index="67">
            104.42285 57.82031 -104.42285 205.39453 70.7666 hlineto
            38.51855 0 51.25195 -1.6836 42.56348 -58.28125 37.52734 -51.38477 15.04102 -77.1582 0 -69.45215 0 -98.62402 -31.82617 -84.47266 -60.25977 -40.67285 -35.23535 -23.7832 -33.19531 -1.93164 -35.60547 0 rrcurveto
            -59.54688 hlineto
            return
          </CharString>
          <CharString index="68">
            -62.99902 -42.28711 100.9707 -134.62793 50.05371 30.20508 rlineto
            return
          </CharString>
          <CharString index="69">
            37.97266 -34.51953 81.12207 101.83398 77.66992 -102.69727 46.60156 34.52051 -110.46387 141.53125 -21.5752 0 rlineto
            return
          </CharString>
          <CharString index="70">
            48.18945 -40.55371 39.84277 -51.00488 -50.96094 -40.50879 -39.82617 -48.14746 -48.29785 40.58594 -39.82129 50.89453 51.0166 40.53125 39.85938 48.20117 vhcurveto
            return
          </CharString>
          <CharString index="71">
            26.14746 19.06055 19.79688 22.45703 22.70508 18.72949 -20.00781 -25.68262 -26.08984 -18.98828 -19.79688 -22.46973 -22.75586 -18.73828 20.0332 25.59961 vhcurveto
            return
          </CharString>
          <CharString index="72">
            -36.2461 -45.73828 rlineto
            39.66797 -47.74805 54.57617 -29.07324 54.62207 0 60.42383 0 52.87598 34.39355 33.84375 45.8789 rrcurveto
            -28.47949 41.4248 rlineto
            -34.11719 -44.1377 -43.00293 -25.77148 -41.69727 0 -49.39453 0 -40.26465 34.70898 -22.80762 36.0625 rrcurveto
            return
          </CharString>
          <CharString index="73">
            -28.47852 33.65723 -111.32715 -68.17773 -103.56055 70.7666 -32.79395 -37.97266 123.40918 -97.51855 21.5752 0 rlineto
            return
          </CharString>
          <CharString index="74">
            -37.97266 34.51953 -81.12207 -101.83398 -77.66992 102.69727 -46.60156 -34.52051 110.46387 -141.53125 21.5752 0 rlineto
            return
          </CharString>
          <CharString index="75">
            -131.17578 -124.27246 31.93066 -41.42383 145.84668 100.9707 rlineto
            return
          </CharString>
          <CharString index="76">
            -131.17578 -124.27246 31.93066 -41.42383 145.84766 100.9707 rlineto
            return
          </CharString>
          <CharString index="77">
            -51.17383 33.88672 -31.75586 35.56836 32.91113 24.65039 26.82227 30.20312 vhcurveto
            0 26.88867 -19.0498 11.49805 -8.83496 5.87598 -8.6875 5.77832 -14.7373 9.20801 0 20.58691 0 16.54883 9.92383 17.09082 4.88379 8.02246 9.76758 16.04785 16.80176 24.33398 23.7168 21.81152 rrcurveto
            -34.51953 30.20508 rlineto
            -69.64941 -70.7168 -36.63184 -65.21094 0 -52.06445 rrcurveto
            return
          </CharString>
        <CharString name=".notdef">
          endchar
        </CharString>
        <CharString name="A">
          14.6709 -0.86328 rmoveto
          -101 callsubr
          91.47754 -397.84277 rmoveto
          -100 callsubr
          endchar
        </CharString>
        <CharString name="AE">
          200.21582 623.94922 rmoveto
          -195.90039 -623.94922 63.86133 0 53.50586 169.14844 130.31348 0 0 -169.14844 229.55762 0 0 62.13574 -166.5586 0 -1.72656 231.28418 144.98438 0 0 63.8623 -145.84668 0 -1.72656 204.53125 173.46289 0 0 62.13574 rlineto
          -232.14648 -62.13574 rmoveto
          -334.84473 -115.64258 vlineto
          104.42383 334.84473 rlineto
          endchar
        </CharString>
        <CharString name="Aacute">
          308.09082 791.3711 rmoveto
          -46 callsubr
          -333.11816 -722.33105 rmoveto
          -101 callsubr
          91.47754 -397.84277 rmoveto
          -100 callsubr
          endchar
        </CharString>
        <CharString name="Abreve">
          127.72363 784.4668 rmoveto
          -35 callsubr
          -113.05273 -785.33008 rmoveto
          -101 callsubr
          91.47754 -397.84277 rmoveto
          -100 callsubr
          endchar
        </CharString>
        <CharString name="Acircumflex">
          101.83398 692.12598 rmoveto
          -45 callsubr
          -218.33887 -792.23438 rmoveto
          -101 callsubr
          91.47754 -397.84277 rmoveto
          -100 callsubr
          endchar
        </CharString>
        <CharString name="Adieresis">
          201.95801 738.29492 rmoveto
          -43 callsubr
          177.76367 0.01172 rmoveto
          -42 callsubr
          -365.05078 -739.16992 rmoveto
          -101 callsubr
          91.47754 -397.84277 rmoveto
          -100 callsubr
          endchar
        </CharString>
        <CharString name="Agrave">
          181.23047 791.3711 rmoveto
          -47 callsubr
          -319.31055 -702.48242 rmoveto
          -101 callsubr
          91.47754 -397.84277 rmoveto
          -100 callsubr
          endchar
        </CharString>
        <CharString name="Aogonek">
          326.21387 236.46191 rmoveto
          -100 callsubr
          -223.51758 -474.65039 rmoveto
          69.04004 0 60.41016 182.95605 197.62695 0 69.04004 -182.09277 6.9043 0 rlineto
          -51.81348 -42.74414 -27.53906 -39.89844 0 -32.21777 0 -33.35547 26.58691 -27.83789 51.8164 0 24.85449 0 24.66406 6.31055 19.60742 16.99219 rrcurveto
          45.73926 vlineto
          -6.35742 -5.27441 -10.07715 -6.88281 -15.61914 -5.68848 -10.5127 -3.82812 -7.36914 -1.45215 -6.20508 0 -18.20801 0 -11.04688 13.08105 0 15.35938 0 14.78906 9.80664 11.85742 7.02832 7.96094 8.49219 9.61719 24.72168 27.27441 33.62012 30.19824 rrcurveto
          -0.8623 0 -240.77734 634.30469 -7.7666 0 rlineto
          endchar
        </CharString>
        <CharString name="Aring">
          199.2793 707.46484 rmoveto
          26.14746 19.03613 19.79688 22.45703 22.70508 18.7539 -20.00781 -25.68262 -26.08984 -18.98828 -19.79688 -22.4707 -22.75586 -18.7373 20.0332 25.59961 vhcurveto
          126.93457 -471.00293 rmoveto
          -100 callsubr
          10.08594 145.31445 rmoveto
          46.97754 4.10742 36.14453 38.07422 0 45.51172 rrcurveto
          48.18945 -40.55469 39.84277 -51.00488 -50.95996 -40.50879 -39.82617 -48.14746 vhcurveto
          0 -44.98926 35.20605 -37.63379 45.95801 -4.94531 rrcurveto
          -214.86133 -620.14844 69.04004 0 60.41016 182.95605 197.62695 0 69.04004 -182.09277 72.49219 0 rlineto
          endchar
        </CharString>
        <CharString name="Atilde">
          131.17578 683.4961 rmoveto
          -44 callsubr
          -71.6289 -716.29004 rmoveto
          -101 callsubr
          91.47754 -397.84277 rmoveto
          -100 callsubr
          endchar
        </CharString>
        <CharString name="B">
          48.32812 623.08594 rmoveto
          -623.08594 176.05176 vlineto
          42.38281 0 42.89746 0.49219 43.0586 18.29785 67.05371 28.49414 36.86035 61.0127 0 64.21973 0 72.5586 -46.7998 65.37598 -69.81055 23.53027 55.91211 22.81055 36.42871 54.33301 0 59.73633 0 55.99219 -32.16992 53.3877 -58.5498 25.46094 -38.98633 16.95215 -39.09766 0.43164 -38.3164 0 rrcurveto
          -107.875 -59.54688 rmoveto
          98.38184 hlineto
          26.60938 0 28.47852 -0.09766 27.69336 -11.18652 41.31738 -16.68945 21.89453 -35.29883 0 -35.85352 0 -35.56543 -21.35547 -34.29297 -39.23242 -16.97949 -28.6836 -12.41211 -29.84375 -0.11426 -27.74121 0 rrcurveto
          -97.51855 hlineto
          -58.6836 vmoveto
          101.83398 hlineto
          31.47559 0 30.91602 -0.60742 31.10254 -14.7627 46.24902 -21.95117 24.52539 -44.46875 0 -45.0625 0 -44.55762 -23.70605 -41.6836 -43.05664 -19.40137 -26.90918 -12.125 -26.40723 -0.47168 -26.92969 0 rrcurveto
          -119.09375 hlineto
          endchar
        </CharString>
        <CharString name="C">
          277.55664 628.26367 rmoveto
          -99 callsubr
          endchar
        </CharString>
        <CharString name="Cacute">
          308.09082 791.3711 rmoveto
          -46 callsubr
          -70.23242 -93.2041 rmoveto
          -99 callsubr
          endchar
        </CharString>
        <CharString name="Ccaron">
          413.37695 755.125 rmoveto
          -34 callsubr
          -4.64453 -27.61621 rmoveto
          -99 callsubr
          endchar
        </CharString>
        <CharString name="Ccedilla">
          277.55664 628.26367 rmoveto
          -96.90723 -140.11719 -70.90527 -249.43457 hvcurveto
          0 -227.72168 119.85352 -81.69727 99.83398 -8.16895 rrcurveto
          -9.9502 -75.77246 29.34277 0 rlineto
          11.3916 0 14.41406 0.03027 10.76758 -6.59961 7.83594 -4.80176 3.05762 -6.67871 0 -5.88965 0 -8.70508 -6.80371 -15.69336 -38.88184 0 -30.2334 0 -37.65625 10.06152 -31.41113 25.33105 rrcurveto
          -25.02637 -41.42383 rlineto
          37.36426 -26.27637 42.7832 -10.91211 38.41895 0 73.39258 0 35.07031 38.61035 0 35.72461 0 19.38672 -10.44043 17.97754 -19.06348 9.25 -12.84863 6.23535 -13.12598 0.80957 -12.75879 0.67188 rrcurveto
          -16.39746 0.86328 4.22949 38.76953 rlineto
          64.01465 8.04395 57.87988 36.7998 34.39355 56.19238 rrcurveto
          -51.7793 33.65723 rlineto
          -28.73633 -47.56445 -49.52344 -28.38477 -48.89844 0 rrcurveto
          -91.6836 -80.63086 95.65918 168.39746 165.53223 78.38574 92.67676 88.08301 hvcurveto
          48.77246 0 45.45996 -28.88477 25.14941 -43.43457 1.98535 -3.42773 1.45898 -2.58301 0 -4.64941 0 -2.48047 -0.42383 -2.49023 0 -2.48633 0 -1.1709 -0.11914 -5.36621 4.67969 -3.28027 rrcurveto
          66.45117 32.79492 rlineto
          -33.50586 75.11719 -74.76465 48.29102 -82.78223 0 rrcurveto
          endchar
        </CharString>
        <CharString name="D">
          53.50586 623.08594 rmoveto
          -98 callsubr
          -79.39551 -59.54688 rmoveto
          -97 callsubr
          endchar
        </CharString>
        <CharString name="Dcaron">
          371.08984 755.125 rmoveto
          -34 callsubr
          -186.4082 -32.79395 rmoveto
          -98 callsubr
          -79.39551 -59.54688 rmoveto
          -97 callsubr
          endchar
        </CharString>
        <CharString name="Dcroat">
          78.5332 623.08594 rmoveto
          -41 callsubr
          -75.08105 -321.89844 rmoveto
          -40 callsubr
          endchar
        </CharString>
        <CharString name="E">
          58.6836 623.94922 rmoveto
          -96 callsubr
          endchar
        </CharString>
        <CharString name="Eacute">
          325.35059 791.3711 rmoveto
          -46 callsubr
          -306.36523 -97.51855 rmoveto
          -96 callsubr
          endchar
        </CharString>
        <CharString name="Ecaron">
          396.98047 755.125 rmoveto
          -34 callsubr
          -207.1211 -31.93066 rmoveto
          -96 callsubr
          endchar
        </CharString>
        <CharString name="Ecircumflex">
          110.46387 692.12598 rmoveto
          -45 callsubr
          -182.95605 -167.42188 rmoveto
          -96 callsubr
          endchar
        </CharString>
        <CharString name="Edieresis">
          208.86133 738.29492 rmoveto
          -43 callsubr
          177.76367 0.01172 rmoveto
          -42 callsubr
          -327.9414 -114.35742 rmoveto
          -96 callsubr
          endchar
        </CharString>
        <CharString name="Egrave">
          181.23047 791.3711 rmoveto
          -47 callsubr
          -275.29785 -77.66992 rmoveto
          -96 callsubr
          endchar
        </CharString>
        <CharString name="Eng">
          50.91699 hmoveto
          73.35547 412.51367 hlineto
          0 33.16113 3.57422 24.40527 19.29102 27.52832 22.24023 31.73438 50.43262 42.00977 54.08594 0 37.5752 0 33.35547 -20.28809 17.77051 -35.44727 15.45605 -30.83105 -0.05957 -33.66406 0 -29.11523 rrcurveto
          -251.9961 vlineto
          0 -23.62012 -0.0918 -26.93555 -11.04883 -23.47754 -13.37207 -28.41602 -25.4248 -15.46191 -28.2207 0 -23.54199 0 -18.44922 10.79395 -2.0459 1.49219 -4.18164 3.05078 -0.78418 5.14941 -5.74121 3.3584 rrcurveto
          -35.38281 -62.13672 rlineto
          26.81543 -15.97656 30.32617 -8.37988 30.61621 0 57.75684 0 51.90527 29.71387 24.73828 52.60352 16.27051 34.59668 0.62207 34.19824 0 34.62598 rrcurveto
          248.54395 0 vlineto
          0 39.41309 -0.53516 39.88086 -18.24121 39.82129 -26.71582 58.31738 -55.44336 33.15039 -61.53516 0 -65.54297 0 -61.03613 -37 -35.4375 -55.35254 rrcurveto
          81.12207 -73.35547 vlineto
          endchar
        </CharString>
        <CharString name="Eogonek">
          58.6836 623.94922 rmoveto
          -623.94922 311.54297 vlineto
          -51.8125 -42.74414 -27.53906 -39.89844 0 -32.21777 0 -33.35547 26.58691 -27.83789 51.8164 0 24.85352 0 24.66504 6.31055 19.60742 16.99219 rrcurveto
          45.73926 vlineto
          -6.35742 -5.27441 -10.07715 -6.88281 -15.62012 -5.68848 -10.51172 -3.82812 -7.36914 -1.45215 -6.20508 0 -18.20801 0 -11.04785 13.08105 0 15.35938 0 14.78906 9.80762 11.85742 7.02832 7.96094 8.49219 9.61719 24.72168 27.27441 33.62012 30.19824 rrcurveto
          1.72656 62.13574 -313.26953 231.28418 260.62598 63.8623 -260.62598 204.53125 315.8584 62.13574 hlineto
          endchar
        </CharString>
        <CharString name="Eth">
          78.5332 623.08594 rmoveto
          -41 callsubr
          -75.08105 -321.89844 rmoveto
          -40 callsubr
          endchar
        </CharString>
        <CharString name="F">
          77.66992 623.94922 rmoveto
          -623.94922 70.76562 306.36523 233.01074 60.41016 -233.01074 195.90039 288.24219 61.27344 vlineto
          endchar
        </CharString>
        <CharString name="G">
          277.24414 629.14551 rmoveto
          -95 callsubr
          endchar
        </CharString>
        <CharString name="Gbreve">
          145.84668 790.50781 rmoveto
          -35 callsubr
          131.39746 -161.3623 rmoveto
          -95 callsubr
          endchar
        </CharString>
        <CharString name="H">
          54.36914 623.08594 rmoveto
          -623.08594 72.49219 296.87207 243.36523 -297.73535 70.7666 601.51172 vlineto
          0 10.36035 7.19336 0.30957 0 7.57031 0 1.49219 -0.39941 1.44922 -0.75293 1.25586 rrcurveto
          -75.94434 -266.66699 -244.22852 242.50293 hlineto
          0 10.6836 6.25781 1.00879 0 7.86621 0 1.61035 -0.37012 1.57715 -0.70996 1.41797 rrcurveto
          endchar
        </CharString>
        <CharString name="I">
          88.02637 623.08594 rmoveto
          -94 callsubr
          endchar
        </CharString>
        <CharString name="Iacute">
          325.35059 791.3711 rmoveto
          -46 callsubr
          -277.02246 -98.38184 rmoveto
          -94 callsubr
          endchar
        </CharString>
        <CharString name="Icircumflex">
          100.9707 692.12598 rmoveto
          -45 callsubr
          -144.12012 -168.28516 rmoveto
          -94 callsubr
          endchar
        </CharString>
        <CharString name="Idieresis">
          205.41016 738.29492 rmoveto
          -43 callsubr
          177.76367 0.01172 rmoveto
          -42 callsubr
          -295.14746 -115.2207 rmoveto
          -94 callsubr
          endchar
        </CharString>
        <CharString name="Idotaccent">
          237.32812 791.3711 rmoveto
          -73 callsubr
          -149.30176 -168.28516 rmoveto
          -94 callsubr
          endchar
        </CharString>
        <CharString name="Igrave">
          181.23047 791.3711 rmoveto
          -47 callsubr
          -245.95508 -78.5332 rmoveto
          -94 callsubr
          endchar
        </CharString>
        <CharString name="J">
          171.7373 623.08594 rmoveto
          -58.6836 119.95703 -356.41895 vlineto
          0 -38.57715 0.85352 -44.47559 -23.19922 -34.55566 -16.67285 -24.83594 -27.04883 -14.89648 -29.93457 0 -52.12207 0 -39.43848 43.28809 -2.1582 2.78418 -4.43457 5.71875 4.1875 6.89062 -5.9336 5.45508 rrcurveto
          -46.60156 -56.95801 rlineto
          36.9082 -44.16211 53.3789 -24.96582 55.09766 0 58.99414 0 54.01172 29.00977 28.87695 54.03906 23.86914 44.66797 0.40625 47.3125 0 45.12305 rrcurveto
          355.55664 95.79297 58.6836 vlineto
          endchar
        </CharString>
        <CharString name="K">
          42.28711 623.94922 rmoveto
          -623.94922 74.21777 258.03711 vlineto
          49.1914 53.50586 216.6123 -315.8584 rlineto
          0 0 39.53418 3.60254 49.35547 -0.15039 rrcurveto
          -251.9961 354.69336 235.59863 269.25586 -25.88965 0 rlineto
          -16.92871 0 -17.71387 0.8164 -17.1377 4.36133 rrcurveto
          -260.62598 -292.55664 0 262.35156 rlineto
          0 4.32812 0.36133 2.65723 3.49316 4.54395 2.31934 3.01367 4.42969 4.59473 -1.11035 6.75293 rrcurveto
          endchar
        </CharString>
        <CharString name="L">
          66.45117 623.08594 rmoveto
          -93 callsubr
          endchar
        </CharString>
        <CharString name="Lacute">
          308.09082 791.3711 rmoveto
          -46 callsubr
          -281.33789 -98.38184 rmoveto
          -93 callsubr
          endchar
        </CharString>
        <CharString name="Lcaron">
          422.72949 561.52051 rmoveto
          40.93945 -27.10938 25.4043 -28.45508 -26.32812 -19.7207 -21.45801 -24.16211 vhcurveto
          0 -21.51074 15.24023 -9.19824 7.06738 -4.70117 6.9502 -4.62305 11.79004 -7.36621 0 -16.46973 0 -13.23828 -7.93945 -13.67285 -3.90723 -6.41797 -7.81348 -12.83887 -13.4414 -19.4668 -18.97363 -17.44922 rrcurveto
          27.61523 -24.16406 rlineto
          55.71973 56.57324 29.30566 52.16895 0 41.65137 rrcurveto
          -356.27832 61.56543 rmoveto
          -93 callsubr
          endchar
        </CharString>
        <CharString name="Lslash">
          73.35547 623.08594 rmoveto
          0 -318.29395 -53.50684 -17.41309 0 -61.27246 53.50684 17.15625 0 -244.12598 372.81543 0 0 60.41016 -300.32422 0 0 206.96094 191.58594 61.43262 0 63.86133 rlineto
          -9.20898 -4.1543 -7.8584 -2.4668 -8.82227 -2.87207 rrcurveto
          -165.69629 -53.9248 0 261.04492 rlineto
          0 15.90625 8.85156 2.06055 0 12.73242 0 0.99121 -0.07324 0.98828 -0.14844 0.97852 rrcurveto
          endchar
        </CharString>
        <CharString name="M">
          40.56055 623.08594 rmoveto
          -623.94922 65.58887 467.7461 vlineto
          125.99805 -247.68066 26.75293 0 134.62793 251.13281 0 -471.19824 66.4502 0 0 624.8125 -52.64258 0 -157.0664 -305.50195 -154.47656 304.63867 rlineto
          endchar
        </CharString>
        <CharString name="N">
          50.05371 hmoveto
          -92 callsubr
          endchar
        </CharString>
        <CharString name="Nacute">
          308.09082 791.3711 rmoveto
          -46 callsubr
          -297.73535 -721.46777 rmoveto
          -92 callsubr
          endchar
        </CharString>
        <CharString name="NameMe.1">
          391 endchar
        </CharString>
        <CharString name="NameMe.10">
          314 endchar
        </CharString>
        <CharString name="NameMe.11">
          305 endchar
        </CharString>
        <CharString name="NameMe.12">
          296 endchar
        </CharString>
        <CharString name="NameMe.127">
          124 endchar
        </CharString>
        <CharString name="NameMe.128">
          115 endchar
        </CharString>
        <CharString name="NameMe.129">
          107 endchar
        </CharString>
        <CharString name="NameMe.13">
          288 endchar
        </CharString>
        <CharString name="NameMe.130">
          98 endchar
        </CharString>
        <CharString name="NameMe.131">
          89 endchar
        </CharString>
        <CharString name="NameMe.132">
          81 endchar
        </CharString>
        <CharString name="NameMe.133">
          72 endchar
        </CharString>
        <CharString name="NameMe.134">
          63 endchar
        </CharString>
        <CharString name="NameMe.135">
          55 endchar
        </CharString>
        <CharString name="NameMe.136">
          46 endchar
        </CharString>
        <CharString name="NameMe.137">
          38 endchar
        </CharString>
        <CharString name="NameMe.138">
          29 endchar
        </CharString>
        <CharString name="NameMe.139">
          20 endchar
        </CharString>
        <CharString name="NameMe.14">
          279 endchar
        </CharString>
        <CharString name="NameMe.140">
          12 endchar
        </CharString>
        <CharString name="NameMe.141">
          3 endchar
        </CharString>
        <CharString name="NameMe.142">
          -6 endchar
        </CharString>
        <CharString name="NameMe.143">
          -14 endchar
        </CharString>
        <CharString name="NameMe.144">
          -23 endchar
        </CharString>
        <CharString name="NameMe.145">
          -31 endchar
        </CharString>
        <CharString name="NameMe.146">
          -40 endchar
        </CharString>
        <CharString name="NameMe.147">
          -49 endchar
        </CharString>
        <CharString name="NameMe.148">
          -57 endchar
        </CharString>
        <CharString name="NameMe.149">
          -66 endchar
        </CharString>
        <CharString name="NameMe.15">
          271 endchar
        </CharString>
        <CharString name="NameMe.150">
          -75 endchar
        </CharString>
        <CharString name="NameMe.151">
          -83 endchar
        </CharString>
        <CharString name="NameMe.152">
          -92 endchar
        </CharString>
        <CharString name="NameMe.153">
          -100 endchar
        </CharString>
        <CharString name="NameMe.154">
          -108 endchar
        </CharString>
        <CharString name="NameMe.155">
          -117 endchar
        </CharString>
        <CharString name="NameMe.156">
          -125 endchar
        </CharString>
        <CharString name="NameMe.157">
          -134 endchar
        </CharString>
        <CharString name="NameMe.158">
          -143 endchar
        </CharString>
        <CharString name="NameMe.159">
          -151 endchar
        </CharString>
        <CharString name="NameMe.16">
          262 endchar
        </CharString>
        <CharString name="NameMe.17">
          253 endchar
        </CharString>
        <CharString name="NameMe.18">
          245 endchar
        </CharString>
        <CharString name="NameMe.19">
          236 endchar
        </CharString>
        <CharString name="NameMe.2">
          383 endchar
        </CharString>
        <CharString name="NameMe.20">
          227 endchar
        </CharString>
        <CharString name="NameMe.21">
          219 endchar
        </CharString>
        <CharString name="NameMe.22">
          210 endchar
        </CharString>
        <CharString name="NameMe.23">
          202 endchar
        </CharString>
        <CharString name="NameMe.24">
          193 endchar
        </CharString>
        <CharString name="NameMe.25">
          184 endchar
        </CharString>
        <CharString name="NameMe.26">
          176 endchar
        </CharString>
        <CharString name="NameMe.27">
          167 endchar
        </CharString>
        <CharString name="NameMe.28">
          158 endchar
        </CharString>
        <CharString name="NameMe.29">
          150 endchar
        </CharString>
        <CharString name="NameMe.3">
          374 endchar
        </CharString>
        <CharString name="NameMe.30">
          141 endchar
        </CharString>
        <CharString name="NameMe.31">
          133 endchar
        </CharString>
        <CharString name="NameMe.329">
          -160 endchar
        </CharString>
        <CharString name="NameMe.4">
          366 endchar
        </CharString>
        <CharString name="NameMe.5">
          357 endchar
        </CharString>
        <CharString name="NameMe.6">
          348 endchar
        </CharString>
        <CharString name="NameMe.7">
          340 endchar
        </CharString>
        <CharString name="NameMe.8">
          331 endchar
        </CharString>
        <CharString name="NameMe.9">
          322 endchar
        </CharString>
        <CharString name="Ncaron">
          396.98047 755.125 rmoveto
          -34 callsubr
          -215.75098 -655.87988 rmoveto
          -92 callsubr
          endchar
        </CharString>
        <CharString name="Ntilde">
          135.49121 683.4961 rmoveto
          -44 callsubr
          -40.56152 -715.42676 rmoveto
          -92 callsubr
          endchar
        </CharString>
        <CharString name="O">
          471.20508 310.25195 rmoveto
          -91 callsubr
          -220.62305 254.1582 rmoveto
          -90 callsubr
          endchar
        </CharString>
        <CharString name="OE">
          252.85938 595.46973 rmoveto
          -21.16699 22.9707 -29.7666 13.27734 -31.25781 0 -40.42773 0 -54.24023 -22.99219 -33.14062 -77.49512 -26.80762 -62.6875 -6.74023 -72.34375 0 -83.94727 0 -117.36621 18.94336 -62.64355 3.72461 -12.17676 28.65332 -93.6748 60.30664 -33.37012 49.32715 0 31.76074 0 29.8584 13.78613 20.11035 24.26172 rrcurveto
          -31.06836 229.55762 62.13574 -166.5586 231.28418 143.25781 63.8623 -143.25781 204.53125 169.14746 62.13574 -231.2832 vlineto
          -179.52637 -299.65137 rmoveto
          0 105.76562 13.34766 46.12207 6.12402 18.36328 18.15234 54.44043 30.14844 24.90918 29.48438 0 45.0625 0 25.67188 -55.03125 10.67188 -33.86133 rrcurveto
          -355.55566 vlineto
          -9.81738 -44.35449 -28.58105 -30.74121 -34.55957 0 -22.52148 0 -32.80957 13.76074 -22.48145 54.92969 -27.91406 68.19922 0.02148 105.16309 0 27.89062 rrcurveto
          endchar
        </CharString>
        <CharString name="Oacute">
          325.35059 791.3711 rmoveto
          -46 callsubr
          106.15625 -411.21582 rmoveto
          -91 callsubr
          -220.62305 254.1582 rmoveto
          -90 callsubr
          endchar
        </CharString>
        <CharString name="Ocircumflex">
          113.05273 692.12598 rmoveto
          -45 callsubr
          226.97656 -481.11914 rmoveto
          -91 callsubr
          -220.62305 254.1582 rmoveto
          -90 callsubr
          endchar
        </CharString>
        <CharString name="Odieresis">
          208.86133 738.29492 rmoveto
          -43 callsubr
          177.76367 0.01172 rmoveto
          -42 callsubr
          84.58008 -428.05469 rmoveto
          -91 callsubr
          -220.62305 254.1582 rmoveto
          -90 callsubr
          endchar
        </CharString>
        <CharString name="Ograve">
          181.23047 791.3711 rmoveto
          -47 callsubr
          137.22363 -391.36719 rmoveto
          -91 callsubr
          -220.62305 254.1582 rmoveto
          -90 callsubr
          endchar
        </CharString>
        <CharString name="Ohungarumlaut">
          410.78809 810.35742 rmoveto
          -32 callsubr
          -224.37988 64.72559 rmoveto
          -31 callsubr
          191.59277 -435.37988 rmoveto
          -91 callsubr
          -220.62305 254.1582 rmoveto
          -90 callsubr
          endchar
        </CharString>
        <CharString name="Oslash">
          250.58203 564.41016 rmoveto
          27.76465 0 31.34375 -10.36914 26.6709 -25.60547 rrcurveto
          -203.91406 -383.67383 rlineto
          -20.6211 40.89355 -13.46973 57.53027 0 78.41895 0 185.7627 86.7539 57.04297 65.47168 0 rrcurveto
          220.62305 -254.1582 rmoveto
          0 58.29199 -4.17383 77.40918 -33.98438 66.58496 -5.96094 11.67773 -6.59961 10.77148 -7.13477 9.8789 rrcurveto
          55.25781 103.24707 -53.50586 28.47852 -45.82812 -86.22656 rlineto
          -35.18945 26.77051 -40.80371 12.85449 -39.7666 0 -92.92773 0 -131.2461 -72.59277 0 -244.89355 0 -111.66895 26.92188 -76.79004 38.33496 -50.49805 rrcurveto
          -58.35254 -109.79297 51.78027 -26.75293 49.86914 93.17969 rlineto
          37.55566 -28.19238 41.88184 -11.49414 36.80762 0 67.2627 0 71.72559 37.5166 41.01953 83.00977 33.10352 66.99316 3.95312 77.51562 0 54.72266 rrcurveto
          -96.74023 161.95508 rmoveto
          2.65234 -6.31738 rlineto
          21.0586 -52.37988 3.19238 -59.6709 0 -52.74023 0 -40.80566 -2.35742 -63.57129 -25.53516 -53.70801 -28.83301 -60.64453 -48.27539 -23.69629 -41.92578 0 -27.35352 0 -29.77734 9.86719 -26.1416 23.81152 rrcurveto
          endchar
        </CharString>
        <CharString name="Otilde">
          135.49121 683.4961 rmoveto
          -44 callsubr
          380.58984 -405.1748 rmoveto
          -91 callsubr
          -220.62305 254.1582 rmoveto
          -90 callsubr
          endchar
        </CharString>
        <CharString name="P">
          58.6836 623.08594 rmoveto
          -623.08594 72.49219 275.29688 122.5459 0 vlineto
          38.81543 0 37.35449 0.96387 37.84473 19.23828 57.6211 29.29199 30.32031 59.67773 0 63.16895 0 63.01465 -30.36719 60.97266 -58.86035 30.3125 -39.07129 20.1211 -38.6543 1.02734 -40.18066 0 rrcurveto
          -117.36816 -65.58789 rmoveto
          117.36816 hlineto
          26.03223 0 25.04883 -0.63672 25.39746 -12.74023 38.84375 -19.48535 20.1709 -39.64258 0 -40.55957 0 -39.73438 -19.28223 -37.125 -36.09766 -18.26367 -24.02441 -12.15527 -23.75586 -0.58496 -24.5664 0 rrcurveto
          -125.99707 hlineto
          endchar
        </CharString>
        <CharString name="Q">
          250.69434 566.14941 rmoveto
          43.86719 0 53.91309 -25.86035 30.02637 -73.59375 21.69043 -53.16699 3.79688 -60.5918 0 -52.38965 rrcurveto
          -207.04785 -96.75 -38.27344 -52.28516 -73.24805 -84.2207 69.80371 197.62695 182.96484 85.27734 60.52832 67.93262 vhcurveto
          220.5166 -257.29883 rmoveto
          0 59.07617 -4.13281 76.86523 -33.31152 66.33594 -40.62988 80.90625 -71.21777 37.95605 -68.36523 0 -92.64648 0 -131.5664 -72.18457 0 -245.42871 0 -221.38086 105.95703 -84.03027 90.62695 -14.21973 -0.8457 -56.94238 15.36914 -42.98047 45.4082 -22.53809 38.77441 -19.24805 43.55273 4.5957 71.94629 -0.61719 rrcurveto
          1.72656 68.17773 rlineto
          -31.77832 -1.37402 -27.06445 -3.8789 -22.36621 0 -62.625 0 -9.46387 40.97461 -1.16309 34.57031 56.77344 10.34277 55.74219 37.4707 34.26074 68.98828 33.09961 66.64844 3.93945 77.21582 0 54.69922 rrcurveto
          endchar
        </CharString>
        <CharString name="R">
          56.09473 623.08594 rmoveto
          -89 callsubr
          -113.05273 -65.58789 rmoveto
          -88 callsubr
          endchar
        </CharString>
        <CharString name="Racute">
          308.09082 791.3711 rmoveto
          -46 callsubr
          -291.69434 -98.38184 rmoveto
          -89 callsubr
          -113.05273 -65.58789 rmoveto
          -88 callsubr
          endchar
        </CharString>
        <CharString name="Rcaron">
          396.98047 755.125 rmoveto
          -34 callsubr
          -209.70996 -32.79395 rmoveto
          -89 callsubr
          -113.05273 -65.58789 rmoveto
          -88 callsubr
          endchar
        </CharString>
        <CharString name="S">
          434.95215 548.86816 rmoveto
          -87 callsubr
          endchar
        </CharString>
        <CharString name="Sacute">
          308.09082 791.3711 rmoveto
          -46 callsubr
          87.16309 -172.59961 rmoveto
          -87 callsubr
          endchar
        </CharString>
        <CharString name="Scaron">
          402.1582 755.125 rmoveto
          -34 callsubr
          163.96973 -107.01172 rmoveto
          -87 callsubr
          endchar
        </CharString>
        <CharString name="Scedilla">
          434.95215 548.86816 rmoveto
          -42.19922 50.13867 -62.68457 27.53809 -67.92285 0 -112.5332 0 -77.29297 -74.4414 0 -85.2168 0 -36.33105 14.25977 -46.84277 51.95215 -38.36035 57.71582 -42.61523 89.93945 -21.56152 47.0918 -29.51465 40.86719 -25.61523 11.41113 -32.5459 0 -27.86523 0 -54.21387 -45.60254 -58.82129 -90.46094 0 rrcurveto
          -68.39941 0 -52.67773 33.45215 -27.86035 35.28418 -3.1289 3.96191 0.25879 2.52832 0.05664 4.12598 0.02246 1.65039 0.2207 5.50293 -4.78125 2.42676 rrcurveto
          -41.42383 -71.6289 rlineto
          44.88965 -48.88574 62.33496 -26.72363 69.26074 -4.13965 rrcurveto
          -9.92676 -75.59082 29.3418 0 rlineto
          11.39258 0 14.41309 0.03027 10.76855 -6.59961 7.83594 -4.80176 3.05664 -6.67871 0 -5.88965 0 -8.70508 -6.80371 -15.69336 -38.88086 0 -30.23438 0 -37.65527 10.06152 -31.41113 25.33105 rrcurveto
          -25.02734 -41.42383 rlineto
          37.36426 -26.27637 42.78418 -10.91211 38.41797 0 73.39355 0 35.07031 38.61035 0 35.72461 0 19.38672 -10.44043 17.97754 -19.06348 9.25 -12.84961 6.23535 -13.125 0.80957 -12.75977 0.67188 rrcurveto
          -16.39648 0.86328 4.14062 37.95508 rlineto
          133.45312 10.22656 50.01367 94.82227 0 74.09863 0 32.60742 -9.40527 43.5166 -39.0039 36.72852 -54.20117 51.03906 -87.78809 17.69629 -57.01367 33.3457 -52.14551 30.4961 -11.52148 36.96191 0 25.47168 0 47.77148 41.19922 43.56445 71.33105 0 58.0459 0 44.62598 -26.52734 24.13477 -35.1875 rrcurveto
          2.64746 -3.85938 -0.50293 -2.08496 0.13281 -3.67676 0.19922 -5.54004 2.88086 -1.97559 2.18652 -0.66406 rrcurveto
          endchar
        </CharString>
        <CharString name="T">
          31.06836 623.94922 rmoveto
          -86 callsubr
          endchar
        </CharString>
        <CharString name="Tcaron">
          396.98047 755.125 rmoveto
          -34 callsubr
          -234.73633 -31.93066 rmoveto
          -86 callsubr
          endchar
        </CharString>
        <CharString name="Tcedilla">
          31.06836 623.94922 rmoveto
          -62.99902 176.91504 -561.81348 15.4209 vlineto
          -11.10645 -84.57324 29.3418 0 rlineto
          11.39258 0 14.41309 0.03027 10.76855 -6.59961 7.83594 -4.80176 3.05664 -6.67871 0 -5.88965 0 -8.70508 -6.80371 -15.69336 -38.88086 0 -30.23438 0 -37.65527 10.06152 -31.41113 25.33105 rrcurveto
          -25.02734 -41.42383 rlineto
          37.36426 -26.27637 42.78418 -10.91211 38.41797 0 73.39355 0 35.07031 38.61035 0 35.72461 0 19.38672 -10.44043 17.97754 -19.06348 9.25 -12.84961 6.23535 -13.125 0.80957 -12.75977 0.67188 rrcurveto
          -16.39648 0.86328 5.08301 46.60156 12.17676 0 0 561.81348 183.81934 0 0 62.99902 rlineto
          endchar
        </CharString>
        <CharString name="Thorn">
          58.6836 623.08594 rmoveto
          -623.08594 70.7666 157.92871 124.27148 vlineto
          38.81543 0 37.35449 0.96387 37.84473 19.23828 57.6211 29.29297 30.32031 59.67676 0 63.16895 0 63.01465 -30.36719 60.97363 -58.86035 30.31152 -39.06348 20.11719 -38.64062 1.03125 -40.20215 0 rrcurveto
          -119.09375 89.75195 hlineto
          0 3.59863 0.1582 2.78613 2.70508 4.2998 2.15918 3.43164 3.42188 3.82715 0 5.54395 0 1.41016 -0.22754 1.39453 -0.4502 1.32422 rrcurveto
          -7.7666 -182.95605 rmoveto
          119.09375 hlineto
          26.03223 0 25.04883 -0.63574 25.39746 -12.74023 38.84375 -19.48633 20.1709 -39.64258 0 -40.55957 0 -39.73438 -19.28223 -37.125 -36.09766 -18.26367 -24.02441 -12.15527 -23.75586 -0.58496 -24.5664 0 rrcurveto
          -126.86035 hlineto
          endchar
        </CharString>
        <CharString name="U">
          50.05371 623.08594 rmoveto
          -85 callsubr
          endchar
        </CharString>
        <CharString name="Uacute">
          325.35059 791.3711 rmoveto
          -46 callsubr
          -314.99512 -98.38184 rmoveto
          -85 callsubr
          endchar
        </CharString>
        <CharString name="Ucircumflex">
          113.05273 692.12598 rmoveto
          -45 callsubr
          -194.1748 -168.28516 rmoveto
          -85 callsubr
          endchar
        </CharString>
        <CharString name="Udieresis">
          217.49219 738.29492 rmoveto
          -43 callsubr
          177.76367 0.01172 rmoveto
          -42 callsubr
          -345.20215 -115.2207 rmoveto
          -85 callsubr
          endchar
        </CharString>
        <CharString name="Ugrave">
          181.23047 791.3711 rmoveto
          -47 callsubr
          -283.92773 -78.5332 rmoveto
          -85 callsubr
          endchar
        </CharString>
        <CharString name="Uhungarumlaut">
          410.78809 810.35742 rmoveto
          -32 callsubr
          -224.37988 64.72559 rmoveto
          -31 callsubr
          -229.5586 -122.5459 rmoveto
          -85 callsubr
          endchar
        </CharString>
        <CharString name="Uring">
          344.34082 706.79492 rmoveto
          -37 callsubr
          -132.11719 0.66992 rmoveto
          -36 callsubr
          -162.16992 -84.3789 rmoveto
          -85 callsubr
          endchar
        </CharString>
        <CharString name="V">
          25.02734 623.94922 rmoveto
          212.29785 -628.26465 31.93066 0 208.8457 627.40137 -69.03906 0 -151.02539 -478.10156 -159.65527 478.96484 rlineto
          endchar
        </CharString>
        <CharString name="W">
          17.25977 623.08594 rmoveto
          100.1084 -627.40137 28.47852 0 108.73828 411.65137 107.01172 -411.65137 27.61621 0 98.38184 627.40137 -58.6836 0 -56.95801 -422.87012 -100.9707 377.13086 -21.5752 0 -100.1084 -375.4043 -67.31348 421.14355 rlineto
          endchar
        </CharString>
        <CharString name="X">
          378.85742 623.94922 rmoveto
          -128.45508 -236.83789 -131.3086 236.83789 -75.08105 0 166.94043 -306.1914 -170.39258 -317.75781 76.80762 0 133.31055 246.95312 138.53418 -246.95312 78.5332 0 -176.66309 319.38281 157.67676 304.5664 rlineto
          endchar
        </CharString>
        <CharString name="Y">
          28.47852 623.94922 rmoveto
          -84 callsubr
          endchar
        </CharString>
        <CharString name="Yacute">
          325.35059 791.3711 rmoveto
          -46 callsubr
          -336.57031 -97.51855 rmoveto
          -84 callsubr
          endchar
        </CharString>
        <CharString name="Ydieresis">
          208.86133 738.29492 rmoveto
          -43 callsubr
          177.76367 0.01172 rmoveto
          -42 callsubr
          -358.14648 -114.35742 rmoveto
          -84 callsubr
          endchar
        </CharString>
        <CharString name="Z">
          62.13574 623.08594 rmoveto
          -83 callsubr
          endchar
        </CharString>
        <CharString name="Zacute">
          308.09082 791.3711 rmoveto
          -46 callsubr
          -285.65332 -98.38184 rmoveto
          -83 callsubr
          endchar
        </CharString>
        <CharString name="Zcaron">
          396.98047 755.125 rmoveto
          -34 callsubr
          -203.66895 -32.79395 rmoveto
          -83 callsubr
          endchar
        </CharString>
        <CharString name="Zdotaccent">
          254.58789 782.74121 rmoveto
          -73 callsubr
          -192.45215 -159.65527 rmoveto
          -83 callsubr
          endchar
        </CharString>
        <CharString name="a">
          90.61523 403.02148 rmoveto
          -82 callsubr
          277.88574 -188.99707 rmoveto
          -81 callsubr
          endchar
        </CharString>
        <CharString name="aacute">
          291.69434 699.03027 rmoveto
          -53 callsubr
          -264.07812 -253.72168 rmoveto
          -82 callsubr
          277.88574 -188.99707 rmoveto
          -81 callsubr
          endchar
        </CharString>
        <CharString name="abreve">
          145.84668 646.38672 rmoveto
          -35 callsubr
          -55.23145 -243.36523 rmoveto
          -82 callsubr
          277.88574 -188.99707 rmoveto
          -81 callsubr
          endchar
        </CharString>
        <CharString name="acircumflex">
          140.66895 544.55273 rmoveto
          -38 callsubr
          -161.38086 -282.2002 rmoveto
          -82 callsubr
          277.88574 -188.99707 rmoveto
          -81 callsubr
          endchar
        </CharString>
        <CharString name="acute">
          291.69434 699.03027 rmoveto
          -53 callsubr
          endchar
        </CharString>
        <CharString name="acute.cap">
          325.35059 672.27734 rmoveto
          -46 callsubr
          endchar
        </CharString>
        <CharString name="adieresis">
          226.12207 614.02246 rmoveto
          -60 callsubr
          177.76367 0.0127 rmoveto
          -59 callsubr
          -313.27051 -211.01367 rmoveto
          -82 callsubr
          277.88574 -188.99707 rmoveto
          -81 callsubr
          endchar
        </CharString>
        <CharString name="ae">
          31.06836 411.65137 rmoveto
          35.38281 -44.01367 rlineto
          18.45215 26.53027 28.86523 16.68945 28.08887 0 31.22168 0 29.20996 -20.9336 12.10449 -33.92383 5.84668 -16.38281 0.6875 -16.59766 0 -18.38086 rrcurveto
          0 -25.88965 -22.4375 -0.86328 rlineto
          -24.04004 -0.9248 -35.64551 -1.44336 -37.26953 -16.82031 -62.70898 -28.2998 -28.6123 -55.57422 0 -51.1709 0 -75.13965 59.49121 -59.86523 72.03125 0 47.80469 0 43.5625 26.77441 21.48145 42.39941 27.29688 -42.9873 47.4043 -26.05371 50.92188 0 44.16016 0 41.86816 19.61523 28.2627 33.8916 rrcurveto
          -35.38281 41.42383 rlineto
          -17.17578 -22.98145 -27.11328 -13.27637 -29.29785 0 -39.01562 0 -36.99512 23.30566 -16.90625 38.50977 -9.5293 21.70508 -0.88184 20.47656 0 23.73926 rrcurveto
          0 46.60156 207.98242 8.62988 0 37.97168 rlineto
          0 45.01758 0.29883 51.57031 -26.62402 43.62598 -24.88965 40.78223 -39.63184 17.54785 -35.98242 0 -42.29199 0 -40.71094 -23.61035 -22.31445 -38.5791 -21.5586 38.23242 -41.3457 23.93945 -48.59766 0 -44.24023 0 -42.88574 -19.7334 -28.34082 -35.53418 rrcurveto
          189.85938 -192.44922 rmoveto
          -37.97168 vlineto
          0 -34.75977 2.33984 -26.25879 -8.72656 -23.73242 -11.27637 -30.66797 -27.54199 -15.7832 -27.1084 0 -40.51562 0 -33.89746 34.2207 0 43.5293 0 28.57422 15.16797 30.58398 32.68066 16.74707 25.37012 13.00098 26.37305 0.63281 25.55957 1.02148 rrcurveto
          82.84863 60.41016 rmoveto
          17.25977 vlineto
          0 24.39648 1.22852 26.58008 17.69238 26.50195 14.56348 21.81348 22.1289 15.64941 24.66113 0 25.37598 0 23.25586 -16.375 11.98633 -27.84766 8.88672 -20.64844 0.38281 -20.82617 0 -20.61426 rrcurveto
          -19.84863 vlineto
          endchar
        </CharString>
        <CharString name="agrave">
          243.36621 699.03027 rmoveto
          -39 callsubr
          -240.77637 -149.29883 rmoveto
          -82 callsubr
          277.88574 -188.99707 rmoveto
          -81 callsubr
          endchar
        </CharString>
        <CharString name="ampersand">
          228.88379 629.22461 rmoveto
          -76.03516 -61.38086 -56.57031 -74.62988 hvcurveto
          0 -54.91211 33.77832 -55.7998 36.99805 -44.70117 -76.84375 -42.01758 -49.38574 -77.3086 0 -77.06543 0 -89.02539 66.11035 -67.57715 89.99512 0 67.34082 0 61.58008 37.12695 39.69336 49.2002 rrcurveto
          55.23145 -88.02637 58.68457 44.0127 -69.90332 90.61523 rlineto
          28.05762 37.06348 25.36719 38.93262 22.51953 40.50879 rrcurveto
          -64.72559 44.87598 rlineto
          -2.36816 -2.14844 -1.96387 -3.37793 0 -4.88379 0 -4.0791 1.38184 -3.88672 0 -3.94336 0 -2.77539 -0.58887 -2.66016 -0.75 -2.37012 -7.4707 -23.60742 -13.67578 -29.14648 -23.75488 -27.58496 rrcurveto
          -112.19043 156.20312 rlineto
          65.23145 35.66016 42.68555 65.34668 0 65.41602 rrcurveto
          77.02344 -58.64844 56.1123 -74.96973 vhcurveto
          -68.45312 -132.4707 rmoveto
          43.85352 31.71387 29.32031 35.45898 36.85156 32.55957 -31.25684 -47.36133 vhcurveto
          0 -45.55957 -29.69434 -47.29004 -46.39258 -25.64355 -49.62207 62.08887 -10.875 35.55078 0 26.29785 rrcurveto
          36.33301 -200.74512 rmoveto
          127.72461 -172.59961 rlineto
          0 -54.88184 -69.19043 -66.65137 -51.05078 -40.26172 40.84277 58.07812 vhcurveto
          0 51.77832 31.9834 56.6582 53.1377 34.43262 rrcurveto
          endchar
        </CharString>
        <CharString name="aogonek">
          368.50098 214.02441 rmoveto
          -81 callsubr
          -261.48828 188.99707 rmoveto
          35.38281 -45.73926 rlineto
          37.41797 39.17383 51.43262 11.76953 42.21289 0 54.26172 0 26.82617 -22.79688 12.89551 -21.1748 15.2207 -24.9961 -0.35352 -29.39355 0 -24.21094 rrcurveto
          -16.39746 -14.6709 vlineto
          -67.29395 0 -72.03223 0.70508 -58.12402 -21.36035 -72.0586 -26.48242 -32.69824 -53.39551 0 -50.64258 0 -67.02246 58.25098 -62.27832 95.44922 0 56.11426 0 58.08008 20.4248 49.84668 40.84961 rrcurveto
          -50.05371 0.8623 vlineto
          -51.8125 -42.74414 -27.53906 -39.89844 0 -32.21777 0 -33.35547 26.58691 -27.83789 51.8164 0 24.85352 0 24.66504 6.31055 19.60742 16.99219 rrcurveto
          45.73926 vlineto
          -6.35742 -5.27441 -10.07715 -6.88281 -15.62012 -5.68848 -10.51172 -3.82812 -7.36914 -1.45215 -6.20508 0 -18.20801 0 -11.04785 13.08105 0 15.35938 0 14.78906 9.80762 11.85742 7.02832 7.96094 8.49219 9.61719 24.72168 27.27441 33.62012 30.19824 rrcurveto
          0.86328 283.06445 hlineto
          0 37.44531 -1.34473 35.37012 -21.08691 35.14258 -29.98145 49.9668 -57.97266 25.9414 -70.90918 0 -61.62988 0 -58.73145 -19.8252 -42.68066 -44.08398 rrcurveto
          endchar
        </CharString>
        <CharString name="aring">
          347.79297 604.96094 rmoveto
          -37 callsubr
          -132.11719 0.66992 rmoveto
          -36 callsubr
          -125.06055 -202.60938 rmoveto
          -82 callsubr
          277.88574 -188.99707 rmoveto
          -81 callsubr
          endchar
        </CharString>
        <CharString name="asciicircum">
          93.2041 366.77539 rmoveto
          50.05371 -24.16406 109.60156 175.18848 96.65527 -175.18848 53.50684 25.02637 -135.49121 255.44824 -21.5752 0 rlineto
          endchar
        </CharString>
        <CharString name="asciitilde">
          91.47754 341.74805 rmoveto
          25.30664 41.40918 29.42773 20.37695 28.26465 0 61.04199 0 20.46191 -79.58398 81.05176 0 62.86523 0 49.5625 52.56348 26.05273 39.45215 rrcurveto
          -45.73828 37.97266 rlineto
          -28.78223 -39.13477 -23.6289 -25.5918 -32.79883 0 -57.0586 0 -26.20605 75.12598 -82.52637 0 -56.66016 0 -51.17578 -39.71191 -29.51367 -50.08398 rrcurveto
          endchar
        </CharString>
        <CharString name="asterisk">
          213.16113 518.66309 rmoveto
          15.53418 -176.91504 -161.38086 75.94434 -25.89062 -64.72559 172.60059 -52.64258 -130.31348 -150.16211 54.36914 -44.0127 112.18945 166.5586 107.875 -165.69629 54.36914 43.15039 -125.99805 151.02539 171.7373 51.7793 -26.75293 61.27344 -158.79199 -72.49219 15.53418 150.16211 rlineto
          1.28613 12.43262 3.05957 2.42578 1.69531 11.89453 rrcurveto
          endchar
        </CharString>
        <CharString name="at">
          434.95215 30.20508 rmoveto
          -26.75293 48.32812 rlineto
          -31.75586 -21.41797 -37.4209 -11.43457 -38.27637 0 rrcurveto
          -96.88086 -114.98633 76.19238 195.05762 179.85449 92.96484 82.2998 86.63379 hvcurveto
          74.74121 0 58.88672 -60.65234 0.05273 -73.9873 rrcurveto
          -14.6709 hlineto
          -38.19043 0 -39.87402 -0.24512 -39.48242 -15.64941 -61.98145 -24.56738 -33.05469 -53.23242 0 -53.90918 0 -72.32227 58.36035 -58.01172 71.59082 0 38.54395 0 36.58398 17.08203 24.76367 29.57129 rrcurveto
          -37.97168 60.41016 202.80469 vlineto
          0 47.65234 -0.6377 48.17383 -21.78613 48.09375 -32.14062 70.9502 -66.72656 39.71484 -72.49707 0 rrcurveto
          -109.17773 -131.1416 -91.85938 -226.83203 -232.11816 139.14062 -92.99316 124.67969 hvcurveto
          49.54785 0 48.64746 14.36719 41.88672 27.06152 rrcurveto
          -30.20508 364.18555 rmoveto
          -18.98535 vlineto
          0 -39.64062 0.9375 -38.19531 -15.60059 -30.31543 -15.47168 -30.0664 -29.36426 -15.42773 -28.87402 0 -43.88965 0 -35.22266 34.75293 0 43.26758 0 25.58301 12.66406 27.04395 26.92871 18.48535 33.73926 23.16016 41.99219 0.33789 35.76367 0 rrcurveto
          endchar
        </CharString>
        <CharString name="atilde">
          144.98438 557.49805 rmoveto
          -44 callsubr
          -9.49316 -186.40723 rmoveto
          -82 callsubr
          277.88574 -188.99707 rmoveto
          -81 callsubr
          endchar
        </CharString>
        <CharString name="b">
          59.54688 665.37305 rmoveto
          -665.37305 46.60254 vlineto
          25.02637 60.41016 rlineto
          30.00293 -44.57324 50.40527 -27.12207 54.82031 0 rrcurveto
          93.67871 97.31152 79.59668 165.73438 159.60059 -93.92773 74.16016 -89.78516 hvcurveto
          -58.18457 0 -53.62402 -30.9707 -28.9707 -50.21191 rrcurveto
          256.31055 vlineto
          0 5.31348 1.08301 2.18652 4.69531 3.72949 1.67578 1.33203 5.46973 3.86719 -1.70508 6.00977 rrcurveto
          104.48242 -259.45898 rmoveto
          42.93262 90.97852 -25.69043 -161.29883 -139.9082 -90.37012 -25.53418 -44.68457 hvcurveto
          -31.2461 0 -69.01758 12.48828 -11.5127 87.09473 -3.14062 23.7627 0.33203 26.91895 0 39.53613 0 41.31934 1.58789 29.40527 10.38672 25.13672 17.02148 41.1914 41.51074 25.57812 45.22168 0 rrcurveto
          endchar
        </CharString>
        <CharString name="backslash">
          436.67773 -12.94531 rmoveto
          -313.26855 677.45508 -59.54688 -30.20508 314.13184 -676.5918 rlineto
          endchar
        </CharString>
        <CharString name="bar">
          216.61328 652.42773 rmoveto
          -803.45312 67.31348 803.45312 vlineto
          endchar
        </CharString>
        <CharString name="braceleft">
          52.64258 283.92676 rmoveto
          -56.09473 20.71289 vlineto
          16.91992 0 25.75781 0.20312 20.50977 -20.09863 19.6289 -19.2334 6.74902 -29.11816 0 -43.18066 0 -31.17578 -3.75195 -29.8086 0 -38.97363 0 -36.2998 3.05664 -68.38574 52.68164 -40.42871 43.19531 -33.14941 51.21484 3.02539 61.77246 0 rrcurveto
          36.2461 56.09473 -37.10938 hlineto
          -41.11621 0 -31.18457 -2.0293 -27.35938 18.84766 -35.7461 24.62695 -5.08496 43.77832 0 34.41797 0 26.47266 3.16797 26.2207 0 30.91504 0 104.50879 -46.53125 38.0625 -37.93652 13.18652 30.93457 13.27148 25.44434 23.75 14.7666 30.19727 13.23145 27.05957 2.66211 29.56348 0 23.78516 rrcurveto
          0 24.42871 -2.95703 21.90527 0 23.94238 0 20.30762 1.58203 48.67188 38.5 24.03906 26.90039 16.7959 30.46094 -4.09277 43.71777 0 rrcurveto
          34.52051 56.95898 -30.20508 hlineto
          -53.66113 0 -64.25195 3.73145 -47.97949 -43.73633 -43.97363 -40.08301 -5.36816 -56.23242 0 -37.63965 0 -24.7627 2.55078 -22.63965 0 -24.16895 0 -24.45215 -2.46875 -35.85742 -23.4375 -24.58301 -21.83301 -22.90234 -27.31836 0.3584 -17.76074 0 rrcurveto
          endchar
        </CharString>
        <CharString name="braceright">
          447.89746 283.92676 rmoveto
          -19.84961 hlineto
          -17.76074 0 -27.31836 -0.3584 -21.83301 22.90234 -23.4375 24.58301 -2.46875 35.85742 0 24.45215 0 24.16895 2.55078 22.63965 0 24.7627 0 37.63965 -5.36816 56.23242 -43.97363 40.08301 -47.97949 43.73633 -64.25195 -3.73145 -53.66113 0 rrcurveto
          -30.20508 -56.95898 34.52051 hlineto
          43.71777 0 30.46094 4.09277 26.90039 -16.7959 38.5 -24.03906 1.58203 -48.67188 0 -20.30762 0 -23.94238 -2.95703 -21.90527 0 -24.42871 0 -23.78516 2.66211 -29.56348 13.23145 -27.05957 14.7666 -30.19727 25.44434 -23.75 30.9336 -13.27148 -37.93555 -13.18652 -46.53125 -38.0625 0 -104.50879 rrcurveto
          0 -30.91504 3.16797 -26.2207 0 -26.47266 0 -34.41797 -5.08496 -43.77832 -35.7461 -24.62695 -27.35938 -18.84766 -31.18457 2.0293 -41.11621 0 rrcurveto
          -37.10938 -56.09473 36.2461 hlineto
          61.77246 0 51.21484 -3.02539 43.19531 33.14941 52.68164 40.42871 3.05566 68.38574 0 36.2998 0 38.97363 -3.75098 29.8086 0 31.17578 0 43.18066 6.74902 29.11816 19.6289 19.2334 20.50977 20.09863 25.75781 -0.20312 16.91992 0 rrcurveto
          20.71289 hlineto
          endchar
        </CharString>
        <CharString name="bracketleft">
          131.17578 669.68848 rmoveto
          -758.57715 286.5166 56.95801 -222.6543 642.07129 221.79102 59.54785 vlineto
          endchar
        </CharString>
        <CharString name="bracketright">
          369.36426 669.68848 rmoveto
          -285.65332 -59.54785 221.79102 -642.07129 -222.6543 -56.95801 286.5166 hlineto
          endchar
        </CharString>
        <CharString name="breve">
          137.2168 646.38672 rmoveto
          -35 callsubr
          endchar
        </CharString>
        <CharString name="brokenbar">
          216.61328 652.42773 rmoveto
          -357.28125 67.31348 357.28125 vlineto
          -803.45312 vmoveto
          346.92676 -67.31348 -346.92676 vlineto
          endchar
        </CharString>
        <CharString name="bullet">
          340.88574 296.4375 rmoveto
          45.7666 -37.89941 37.5166 -47.12988 -47.13672 -37.87402 -37.53125 -45.74316 -45.79883 37.90234 -37.51465 47.09766 47.15625 37.88379 37.54297 45.76172 vhcurveto
          endchar
        </CharString>
        <CharString name="c">
          456.52734 381.44629 rmoveto
          -80 callsubr
          endchar
        </CharString>
        <CharString name="cacute">
          291.69434 699.03027 rmoveto
          -53 callsubr
          101.83398 -275.29688 rmoveto
          -80 callsubr
          endchar
        </CharString>
        <CharString name="caron">
          377.13184 658.46973 rmoveto
          -33 callsubr
          endchar
        </CharString>
        <CharString name="caron.cap">
          390.07617 631.7168 rmoveto
          -28.47852 33.65625 -111.32715 -68.17773 -103.56055 70.76758 -32.79395 -37.97266 123.40918 -97.51953 21.5752 0 rlineto
          endchar
        </CharString>
        <CharString name="ccaron">
          456.52734 381.44629 rmoveto
          -80 callsubr
          -28.47852 336.57031 rmoveto
          -33 callsubr
          endchar
        </CharString>
        <CharString name="ccedilla">
          456.52734 381.44629 rmoveto
          -35.97461 52.73145 -61.38965 31.86719 -73.46582 0 -134.26172 0 -95.34082 -100.66797 0 -137.10547 0 -130.17188 85.58008 -98.0166 118.46094 -10.38965 rrcurveto
          -9.86621 -75.12988 29.34277 0 rlineto
          11.3916 0 14.41406 0.03027 10.76758 -6.59961 7.83594 -4.80176 3.05762 -6.67871 0 -5.88965 0 -8.70508 -6.80371 -15.69336 -38.88184 0 -30.2334 0 -37.65625 10.06152 -31.41113 25.33105 rrcurveto
          -25.02637 -41.42383 rlineto
          37.36426 -26.27637 42.7832 -10.91211 38.41895 0 73.39258 0 35.07031 38.61035 0 35.72461 0 19.38672 -10.44043 17.97754 -19.06348 9.25 -12.84863 6.23535 -13.12598 0.80957 -12.75879 0.67188 rrcurveto
          -16.39746 0.86328 4.06934 37.29883 rlineto
          55.54199 5.25098 52.10938 24.75098 38.4414 41.4375 rrcurveto
          -41.42383 48.32715 rlineto
          -30.8877 -35 -44.35742 -20.25 -45.78613 0 rrcurveto
          -89.02344 -67.8584 74.59863 106.75879 104.11328 66.91309 64.99023 83.94922 hvcurveto
          78.00098 0 37.51465 -54.46777 2.64844 -5.35742 3.81738 -7.71875 -5.4375 -9.39355 7.91797 -5.97461 rrcurveto
          endchar
        </CharString>
        <CharString name="cedilla">
          261.48926 hmoveto
          -11.21973 -85.43652 29.34277 0 rlineto
          11.3916 0 14.41406 0.03027 10.76758 -6.59961 7.83594 -4.80176 3.05762 -6.67871 0 -5.88965 0 -8.70508 -6.80371 -15.69336 -38.88184 0 -30.2334 0 -37.65625 10.06152 -31.41113 25.33105 rrcurveto
          -25.02637 -41.42383 rlineto
          37.36426 -26.27637 42.7832 -10.91211 38.41895 0 73.39258 0 35.07031 38.61035 0 35.72461 0 19.38672 -10.44043 17.97754 -19.06348 9.25 -12.84863 6.23535 -13.12598 0.80957 -12.75879 0.67188 rrcurveto
          -16.39746 0.86328 5.17773 47.46484 rlineto
          endchar
        </CharString>
        <CharString name="cent">
          284.79004 623.94922 rmoveto
          -14.09082 -112.4414 rlineto
          -133.99414 -6.47461 -88.37695 -98.375 0 -134.0918 0 -115.24902 65.09863 -88.64355 98.37207 -27.20312 rrcurveto
          -14.17188 -113.09961 57.82129 -6.9043 14.68262 111.4209 rlineto
          2.45801 -0.06934 2.4707 -0.03418 2.48438 0 64.81738 0 60.91113 24.54004 42.89844 47.09863 rrcurveto
          -36.2461 48.32812 rlineto
          -34.77441 -35.7373 -47.6748 -20.3584 -48.32227 0 rrcurveto
          -0.61816 0.00098 46.11914 349.96094 rlineto
          36.64648 -11.11035 25.14746 -21.37793 12.9043 -15.30762 5.1416 -6.09863 -1.72656 -4.28711 0 -5.65332 0 -1.32227 -0.08496 -5.40137 4.65332 -3.24219 rrcurveto
          44.0127 56.95801 rlineto
          -24.37598 37.3623 -39.9668 29.29688 -54.35645 10.85742 rrcurveto
          10.82422 82.1377 rlineto
          0.9043 6.84668 1.55762 2.23828 2.5664 4.57422 1.19629 2.13184 3.0752 5.35156 -0.66992 6.47363 rrcurveto
          -132.00098 -509.31152 rmoveto
          -60.47168 24.27148 -40.58008 62.72852 0 87.07422 0 104.60449 62.12598 62.3418 82.27539 4.91113 rrcurveto
          endchar
        </CharString>
        <CharString name="circumflex">
          133.76465 544.55273 rmoveto
          -38 callsubr
          endchar
        </CharString>
        <CharString name="circumflex.cap">
          113.91602 568.7168 rmoveto
          -45 callsubr
          endchar
        </CharString>
        <CharString name="colon">
          297.73633 365.47461 rmoveto
          -103 callsubr
          -319.30957 vmoveto
          -103 callsubr
          endchar
        </CharString>
        <CharString name="comma">
          305.63379 19.70703 rmoveto
          -105 callsubr
          endchar
        </CharString>
        <CharString name="copyright">
          262.02441 423.81152 rmoveto
          -80.59082 -66.78809 -62.78613 -85.35742 -83.44824 64.75781 -70.55957 81.33496 hvcurveto
          49.14258 0 46.5 26.28125 27.6543 41.91895 rrcurveto
          -44.0127 29.3418 rlineto
          -14.8125 -27.57617 -28.74219 -17.3457 -31.32422 0 rrcurveto
          -52.50098 -41.77148 47.4336 60.47949 62.18457 46.10645 29.43262 47.2002 hvcurveto
          49.41992 0 15.57227 -34.55078 1.7959 -7.32324 1.61035 -6.56543 -3.32715 -7.04785 5.59473 -6.78027 rrcurveto
          51.78027 19.84863 rlineto
          -12.92383 53.08105 -48.74316 39.33887 -62.93262 0 rrcurveto
          -6.31152 -404.92285 rmoveto
          -58 callsubr
          -196.40234 255.37207 rmoveto
          -57 callsubr
          endchar
        </CharString>
        <CharString name="currency">
          68.09082 491.82422 rmoveto
          56.50879 -56.50977 rlineto
          -18.27832 -25.47168 -10.78711 -31.16602 0 -33.5625 0 -33.29785 10.61719 -30.93848 18.01758 -25.36035 rrcurveto
          -56.07812 -56.07812 35.55469 -35.55566 55.82715 55.82617 rlineto
          25.69043 -18.80664 31.61914 -11.1289 34.0918 0 33.5625 0 31.16602 10.78711 25.47168 18.27832 rrcurveto
          54.95703 -54.95605 35.55469 35.55566 -54.87207 54.87207 rlineto
          18.54199 25.58301 10.95801 31.39258 0 33.82715 0 34.0918 -11.12988 31.61816 -18.80664 25.69043 rrcurveto
          55.3086 55.30957 -35.55469 35.55469 -55.56055 -55.56055 rlineto
          -25.36133 18.01758 -30.9375 10.61816 -33.29785 0 -33.82715 0 -31.39258 -10.95898 -25.58203 -18.54199 rrcurveto
          -56.42676 56.42578 rlineto
          147.22852 -81.85645 rmoveto
          55.22656 45.18262 -45.1836 -55.22461 -55.22656 -45.18262 -45.18164 -55.22656 -55.22461 -45.1836 45.18164 55.22656 55.22461 45.1836 45.1836 55.22461 hvcurveto
          endchar
        </CharString>
        <CharString name="d">
          371.08984 390.07617 rmoveto
          -21.96289 46.95703 -48.88477 31.65234 -63.12793 0 rrcurveto
          -87.08203 -105.15723 -61.86035 -174.60254 -168.64648 93.35352 -73.70996 88.31055 hvcurveto
          58.42188 0 53.98535 32.21094 28.6914 51.27832 rrcurveto
          -39.69824 vlineto
          0 -10.85449 0.6543 -11.71484 3.66113 -11.08789 rrcurveto
          71.6289 hlineto
          -3.60254 13.98926 -0.69238 14.46875 -0.02051 13.8291 rrcurveto
          -0.8623 594.60742 rlineto
          -0.00781 5.21191 0.45117 2.79785 3.56348 5.50879 2.0625 3.1875 3.79297 4.96777 -0.36914 6.80469 rrcurveto
          -76.80762 hlineto
          -130.62598 -255.41309 rmoveto
          40.05664 0 59.02148 -21.2793 18.07715 -67.82812 5.66309 -21.24707 2.0166 -25.49902 0 -50.99805 0 -34.44531 -2.11133 -25.60449 -7.40723 -23.06836 -17.5957 -54.79688 -47.2832 -31.85156 -47.64746 0 rrcurveto
          -51.72461 -76.85938 40.17578 150.47949 130.06152 73.22949 35.90137 52.56445 hvcurveto
          endchar
        </CharString>
        <CharString name="dagger">
          216.61328 652.42773 rmoveto
          -195.90039 -167.42188 -59.54688 167.42188 -548.00586 67.31348 548.00586 165.69629 59.54688 -165.69629 195.90039 vlineto
          endchar
        </CharString>
        <CharString name="daggerdbl">
          216.61328 652.42773 rmoveto
          -195.90039 -167.42188 -59.54688 167.42188 -276.16016 -167.42188 -59.54688 167.42188 -212.29883 67.31348 212.29883 165.69629 59.54688 -165.69629 276.16016 vlineto
          165.69629 59.54688 -165.69629 195.90039 hlineto
          endchar
        </CharString>
        <CharString name="dcaron">
          308.9541 390.07617 rmoveto
          -23.68652 48.2461 -49.23438 30.48438 -54.6084 0 rrcurveto
          -92.62402 -88.80176 -85.95801 -150.80957 -140.81348 75.82227 -101.59375 96.34082 hvcurveto
          55.80078 0 49.63965 35.8125 27.89941 47.91113 rrcurveto
          -39.69824 vlineto
          0 -10.85449 0.6543 -11.71484 3.66113 -11.08789 rrcurveto
          71.6289 hlineto
          -3.63672 13.99023 -0.67871 14.48145 0 13.81543 rrcurveto
          623.08594 -68.17676 vlineto
          -123.96582 -255.31055 rmoveto
          36.67188 0 46.30469 -25.43457 19.9043 -41.78516 14.03809 -29.47266 1.27539 -32.28516 0 -61.00098 0 -41.22754 -2.69238 -34.6416 -19.75977 -32.29297 -18.67773 -30.52734 -34.62012 -27.99121 -39.51562 0 rrcurveto
          -73.96094 -44.1123 94.18457 92.99902 98.38965 50.28809 71.08594 64.85645 hvcurveto
          324.04102 194.6084 rmoveto
          40.93848 -27.10938 25.40527 -28.4541 -26.3291 -19.7207 -21.45801 -24.16211 vhcurveto
          0 -21.51172 15.24023 -9.19824 7.06738 -4.7002 6.9502 -4.62305 11.79004 -7.36621 0 -16.46973 0 -13.23926 -7.93945 -13.67285 -3.90625 -6.41797 -7.81445 -12.83789 -13.4414 -19.4668 -18.97363 -17.44922 rrcurveto
          27.61621 -24.16406 rlineto
          55.71875 56.57324 29.30566 52.16895 0 41.65137 rrcurveto
          endchar
        </CharString>
        <CharString name="dcroat">
          233.56055 409.95996 rmoveto
          40.05566 0 59.02051 -21.2793 18.07812 -67.82812 5.66406 -21.24707 2.0166 -25.49902 0 -50.99805 0 -34.44531 -2.1123 -25.60449 -7.40723 -23.06836 -17.59473 -54.79688 -47.28418 -31.85156 -47.64746 0 rrcurveto
          -51.72363 -76.86035 40.17578 150.47949 130.06152 73.23047 35.90137 52.56445 hvcurveto
          198.0752 133.73047 rmoveto
          43.87695 53.50586 -43.9541 hlineto
          -0.0586 39.69824 rlineto
          -0.00781 5.21191 0.45215 2.79785 3.56348 5.50879 2.06152 3.1875 3.79395 4.96777 -0.37012 6.80469 rrcurveto
          -76.80762 -68.17676 -75.94336 -53.50586 75.94336 -153.61426 hlineto
          -21.96191 46.95703 -48.88574 31.65234 -63.12793 0 rrcurveto
          -87.08203 -105.15723 -61.86035 -174.60254 -168.64648 93.35352 -73.70996 88.31055 hvcurveto
          58.42188 0 53.98633 32.21094 28.6914 51.27832 rrcurveto
          -39.69824 vlineto
          0 -10.85449 0.65332 -11.71484 3.66113 -11.08789 rrcurveto
          71.6289 hlineto
          -3.60254 13.98926 -0.69238 14.46875 -0.01953 13.8291 rrcurveto
          endchar
        </CharString>
        <CharString name="degree">
          390.93945 504.38184 rmoveto
          73.96387 -60.44922 60.28125 -74.66602 -74.65332 -60.43555 -60.27246 -73.95117 -73.99512 60.46289 -60.26562 74.6289 74.66602 60.44629 60.27539 73.96387 vhcurveto
          -134.08008 81.5957 rmoveto
          40.62695 33.97754 -35.10156 -45.04492 -45.37207 -34.10449 -35.10547 -40.53809 -40.75293 -33.99512 35.15137 45.05957 45.28125 34.125 35.13184 40.66113 hvcurveto
          endchar
        </CharString>
        <CharString name="dieresis">
          213.17676 614.02246 rmoveto
          -60 callsubr
          177.76367 0.0127 rmoveto
          -59 callsubr
          endchar
        </CharString>
        <CharString name="divide">
          70.76562 347.78906 rmoveto
          -104 callsubr
          -130.3125 119.08691 rmoveto
          24.7627 -20.11426 20.1289 -24.77832 -24.77148 -20.1211 -20.12305 -24.76953 -24.76953 20.12305 -20.12305 24.76953 24.78027 20.1123 20.12988 24.76367 vhcurveto
          0.00781 -308.08984 rmoveto
          24.78223 -20.13379 20.13379 -24.78223 -24.78613 -20.13281 -20.13184 -24.78516 -24.78613 20.13379 -20.13184 24.78613 24.7832 20.13184 20.13574 24.7832 vhcurveto
          endchar
        </CharString>
        <CharString name="dollar">
          234.73633 650.70215 rmoveto
          -59.9043 vlineto
          -92.16309 -11.88281 -63.31738 -61.06445 0 -71.9873 0 -36.41406 16.54395 -56.32422 84.06836 -39.73828 18 -8.50781 18.61328 -6.95312 18.25488 -6.11035 rrcurveto
          -219.80469 vlineto
          -52.57324 5.84082 -43.91113 25.47754 -28.0752 29.875 -3.83496 4.08008 0.52246 2.69629 0.2334 4.37207 0.06738 1.25195 0.47852 5.7539 -4.94629 2.25586 rrcurveto
          -43.15039 -59.54688 rlineto
          44.50781 -48.27246 61.7539 -27.1211 68.92773 -4.30371 rrcurveto
          -60.97168 58.6836 62.81738 vlineto
          113.23145 14.7627 53.14551 78.7959 0 71.71973 0 91.3125 -79.12988 33.91016 -21.06055 9.06055 -20.71973 8.91211 -22.84863 7.74902 -22.61816 7.58984 rrcurveto
          192.58887 vlineto
          43.32031 -6.52637 30.79785 -18.63379 20.78223 -25.20898 3.11133 -3.77344 0.68652 -1.08008 0.4375 -0.9043 1.47754 -3.05762 -0.73438 -2.76562 0.22754 -2.89355 0.35156 -4.46387 2.69629 -1.90918 2.13184 -0.5586 rrcurveto
          43.15039 54.36914 rlineto
          -36.72266 43.83887 -52.62598 26.6084 -59.08789 5.9541 rrcurveto
          38.37793 vlineto
          0 9.60352 6.75293 0.28809 0 7.4082 0 1.18164 -0.24219 1.16211 -0.46973 1.06836 rrcurveto
          -6.04102 -377.26172 rmoveto
          19.95117 -6.28809 17.75 -6.21582 13.73242 -7.46875 41.98242 -22.83398 7.66504 -33.26953 0 -20.53223 0 -45.17188 -36.94531 -45.16895 -64.13574 -12.40918 rrcurveto
          -58.6836 286.73438 rmoveto
          -12.80664 5.11621 -11.87207 5.41113 -10.3418 5.95703 -44.0752 25.38281 -10.30469 29.96973 0 21.81543 0 34.57422 26.5127 37.47656 62.8877 7.34766 rrcurveto
          endchar
        </CharString>
        <CharString name="dotaccent">
          254.58789 655.87988 rmoveto
          -73 callsubr
          endchar
        </CharString>
        <CharString name="dotlessi">
          106.14941 457.38965 rmoveto
          -74 callsubr
          endchar
        </CharString>
        <CharString name="dotlessj">
          125.99805 457.38965 rmoveto
          -72 callsubr
          endchar
        </CharString>
        <CharString name="downarrow">
          440.99316 202.80566 rmoveto
          -43.15039 35.38281 -116.50488 -144.4668 0 546.625 -66.45117 0 0 -546.12305 -106.14941 143.96484 -50.05371 -33.65723 173.46289 -238.1875 21.5752 0 rlineto
          endchar
        </CharString>
        <CharString name="e">
          258.63965 467.98047 rmoveto
          -79 callsubr
          -137.8125 -194.40918 rmoveto
          -78 callsubr
          endchar
        </CharString>
        <CharString name="eacute">
          291.69434 699.03027 rmoveto
          -53 callsubr
          -96.05371 -188.7627 rmoveto
          -79 callsubr
          -137.8125 -194.40918 rmoveto
          -78 callsubr
          endchar
        </CharString>
        <CharString name="ecaron">
          377.13184 658.46973 rmoveto
          -33 callsubr
          -7.16504 -49.82031 rmoveto
          -79 callsubr
          -137.8125 -194.40918 rmoveto
          -78 callsubr
          endchar
        </CharString>
        <CharString name="ecircumflex">
          133.76465 544.55273 rmoveto
          -38 callsubr
          13.54785 -217.24121 rmoveto
          -79 callsubr
          -137.8125 -194.40918 rmoveto
          -78 callsubr
          endchar
        </CharString>
        <CharString name="edieresis">
          214.90234 614.02246 rmoveto
          -60 callsubr
          177.76367 0.0127 rmoveto
          -59 callsubr
          -134.02637 -146.05469 rmoveto
          -79 callsubr
          -137.8125 -194.40918 rmoveto
          -78 callsubr
          endchar
        </CharString>
        <CharString name="egrave">
          243.36621 699.03027 rmoveto
          -39 callsubr
          -72.75195 -84.33984 rmoveto
          -79 callsubr
          -137.8125 -194.40918 rmoveto
          -78 callsubr
          endchar
        </CharString>
        <CharString name="eight">
          258.22852 630.90527 rmoveto
          -95.36719 -73.14941 -69.66504 -83.94434 hvcurveto
          0 -61.28516 38.72754 -55.89258 56.24219 -28.72656 -73.94922 -34.76465 -50.45605 -68.04102 0 -71.90234 rrcurveto
          -92.83105 81.92676 -74.26367 107.30957 109.43164 82.36328 76.32715 94.92969 vhcurveto
          0 73.36133 -50.02441 66.50488 -70.24707 32.40625 60.40039 31.71973 39.01855 58.47949 0 60.03223 rrcurveto
          82.10645 -70.79004 65.44922 -91.43652 vhcurveto
          -20.90332 -327.99219 rmoveto
          80.16699 -25.29297 52.95508 -55.15723 0 -60.88965 rrcurveto
          -60.07617 -51.1289 -48.8584 -66.61035 -67.78613 -52.88867 50.62402 62.69531 vhcurveto
          0 58.88379 45.98828 53.45117 59.30371 24.62012 rrcurveto
          15.53613 269.26953 rmoveto
          55.69629 43.5459 -41.4248 -52.03125 hvcurveto
          0 -47.95605 -36.89453 -46.51855 -48.54199 -26.10742 rrcurveto
          0 -109.6709 42.77832 82.3418 49.11426 41.48438 39.80371 54.38086 hvcurveto
          endchar
        </CharString>
        <CharString name="ellipsis">
          470.33594 46.16504 rmoveto
          -103 callsubr
          -345.19922 hmoveto
          -103 callsubr
          172.59961 hmoveto
          -103 callsubr
          endchar
        </CharString>
        <CharString name="eng">
          68.17676 hmoveto
          73.35547 263.21484 hlineto
          0 30.76758 3.69922 22.34961 19.0039 25.32324 17.41797 23.20996 43.90234 40.38281 48.30957 0 22.92773 0 22.60059 -9.32031 16.40918 -19.60742 24.72559 -29.54688 0.20605 -39.20703 0 -32.26953 rrcurveto
          -230.4209 vlineto
          0 -35.47852 -0.01562 -41.71094 -21.80664 -33.89844 -18.73828 -29.1289 -28.53906 -13.55371 -27.5459 0 -31.20898 0 -22.5293 17.43164 -2.43066 3.4336 -2.68555 3.79395 0.94629 7.66113 -6.82812 1.49316 rrcurveto
          -34.51953 -67.31348 rlineto
          27.96289 -21.64844 34.34082 -11.73633 35.31348 0 62.9873 0 60.63477 37.25879 27.72559 68.18848 17.30469 42.55957 0.39746 42.37305 0 41.49414 rrcurveto
          220.92871 vlineto
          0 35.6709 -0.23438 37.69531 -16.24902 36.72461 -22.74512 51.40137 -46.8291 29.23242 -52.05957 0 -61.99512 0 -56.30957 -40.56152 -33.5459 -50.91895 rrcurveto
          80.25977 -73.35547 vlineto
          endchar
        </CharString>
        <CharString name="eogonek">
          258.76953 467.9873 rmoveto
          -108.97754 -101.08496 -78.13281 -164.33301 -150.12598 92.65137 -85.75684 119.98145 hvcurveto
          23.06055 0 22.9873 3.21875 22.27832 6.2793 -36.80957 -34.90527 -18.5752 -35.2461 0 -29.54688 0 -40.9961 32.88086 -33.41895 49.88867 0 23.62793 0 23.39746 7.60449 18.79395 10.30566 rrcurveto
          0.86328 49.1914 rlineto
          -28.80664 -18.37793 -17.00781 -0.61328 -5.24707 0 -22.64941 0 -16.38574 16.4043 0 22.60254 0 29.21289 28.02246 32.17871 34.45801 42.86523 rrcurveto
          35.38281 44.0127 -39.69824 38.83496 rlineto
          -29.77637 -33.34863 -43.07031 -18.05078 -45.4248 0 -61.11914 0 -88.48633 33.69531 -5.43652 136.79785 rrcurveto
          324.23047 hlineto
          2.71582 30.70605 -1.29883 29.08008 -4.46387 26.75293 -20.51953 122.97363 -85.2041 40.13574 -75.17871 0 rrcurveto
          -137.94238 -194.41602 rmoveto
          -78 callsubr
          endchar
        </CharString>
        <CharString name="equal">
          44.87598 438.40332 rmoveto
          -102 callsubr
          -410.78809 -207.12012 rmoveto
          -102 callsubr
          endchar
        </CharString>
        <CharString name="eth">
          254.78125 405.61914 rmoveto
          51.92285 80.78418 -34.85156 -138.8291 -138.88477 -75.63574 -43.00195 -56.32129 -71.7539 -67.27539 66.00098 116.28711 117.64355 70.73242 55.63574 67.54688 hvcurveto
          92.01465 164.73047 rmoveto
          85.56738 24.25781 -17.25977 44.87598 -107.78418 -29.45703 rlineto
          -30.77539 27.45703 -30.7539 20.3086 -25.72461 14.48535 rrcurveto
          -81.12207 -16.39746 rlineto
          37.09961 -16.70996 34.27734 -21.59668 30.67871 -25.67188 rrcurveto
          -103.78223 -28.3623 18.12305 -47.46484 127.30664 36.08984 rlineto
          36.47559 -39.65137 29.25195 -46.35254 20.12695 -51.05664 -30.2207 32.6914 -43.18262 19.35547 -46.53809 0 rrcurveto
          -110.96875 -97.2207 -107.24023 -137.23926 -137.4414 100.07031 -97.3164 115.59766 hvcurveto
          66.44531 0 62.35547 32.75293 36.72754 60.90918 32.45898 53.83398 6.22754 63.86133 0 53.86621 0 145.80078 -52.22168 101.9375 -61.23535 69.47461 rrcurveto
          endchar
        </CharString>
        <CharString name="euro">
          464.29395 573.89453 rmoveto
          -34.72363 35.15723 -47.67578 18.68848 -52.78418 0 -62.46582 0 -82.99414 -26.0752 -51.13086 -89.18848 -16.85352 -29.39844 -11.41699 -33.37012 -7.33691 -35.46777 rrcurveto
          -51.17285 0 -12.94531 -57.82129 55.69629 0 rlineto
          -1.93555 -21.18848 -0.8418 -21.54883 0 -21.55957 0 -5.41211 0.06934 -5.32031 0.1377 -5.22949 rrcurveto
          -40.18066 0 -12.94531 -57.82129 57.80957 0 rlineto
          26.16406 -185.14062 125.26758 -44.52637 80.92871 0 52.25684 0 49.09863 17.72852 38.24902 33.29785 rrcurveto
          -28.47949 50.05371 rlineto
          -29.22656 -26.31348 -38.00293 -14.42773 -39.83789 0 -46.32129 0 -50.87012 19.75 -35.19531 47.63086 -20.36426 27.55664 -13.23242 33.74707 -7.00977 40.64355 rrcurveto
          177.36328 0 22.43848 57.82129 -205.52246 0 rlineto
          -0.25098 6.92285 -0.12402 7.0791 0 7.23926 0 22.56152 0.88477 19.54395 1.41699 16.91211 rrcurveto
          233.80078 0 21.5752 57.82129 -246.9668 0 rlineto
          1.65527 7.50684 1.67383 6.37207 1.55176 5.39551 29.43652 102.38965 72.46875 34.68262 59.70996 0 67.36621 0 37.20117 -43.17188 0.96582 -1.17578 5.46875 -6.6543 -4.00879 -8.03516 7.13379 -5.83203 rrcurveto
          endchar
        </CharString>
        <CharString name="exclam">
          298.59961 47.88867 rmoveto
          32.62695 -26.50977 26.49805 -32.62695 -32.63574 -26.5 -26.50781 -32.61523 -32.62695 26.50977 -26.49707 32.62695 32.63672 26.49902 26.50879 32.61328 vhcurveto
          -57.58789 620.07422 rmoveto
          -17.32031 0 -17.60449 -10.59766 -8.92383 -21.49121 -4.58984 -11.05176 -2.22559 -13.49219 0 -18.73438 0 -32.27148 6.37793 -24.2832 3.49023 -65.70605 rrcurveto
          14.6709 -276.16016 50.05469 0 18.12305 276.16016 rlineto
          2.49707 38.07227 6.78809 37.85352 0 38.20605 0 23.50781 -2.30273 11.20605 -1.50684 5.9082 -7.7168 30.2793 -21.04297 12.59473 -18.76855 0 rrcurveto
          endchar
        </CharString>
        <CharString name="exclamdown">
          180.3291 608.8418 rmoveto
          -32.62695 26.50977 -26.49805 32.62695 32.63574 26.5 26.50781 32.61523 32.62695 -26.50977 26.49707 -32.62695 -32.63672 -26.49902 -26.50879 -32.61328 vhcurveto
          57.58789 -620.07422 rmoveto
          17.32031 0 17.60449 10.59766 8.92383 21.49121 4.58984 11.05176 2.22559 13.49219 0 18.73438 0 32.27148 -6.37793 24.2832 -3.49023 65.70605 rrcurveto
          -14.6709 276.16016 -50.05469 0 -18.12305 -276.16016 rlineto
          -2.49707 -38.07227 -6.78809 -37.85352 0 -38.20605 0 -23.50781 2.30273 -11.20605 1.50684 -5.9082 7.7168 -30.2793 21.04297 -12.59473 18.76855 0 rrcurveto
          endchar
        </CharString>
        <CharString name="f">
          343.49316 670.94238 rmoveto
          -64.19043 0 -60.05273 -27.66797 -31.92871 -51.9248 -23.41504 -38.08105 -1.66211 -38.0664 0 -40.55176 rrcurveto
          -44.87598 -99.24512 -56.95801 99.24512 -372.8164 69.04004 372.8164 149.29883 56.95801 -149.29883 35.38281 vlineto
          0 33.0918 -0.43555 35.0127 17.06836 30.58496 18.8418 33.75977 35.26465 16.83398 37.78223 0 43.99316 0 36.60156 -23.21875 19.21484 -29.06152 3.20898 -4.85547 -0.80078 -2.7334 0.34375 -4.27148 0.55078 -6.85059 4.49023 -1.79785 3.07812 0.3125 rrcurveto
          32.79395 66.45117 rlineto
          -32.68945 39.34082 -49.63184 23.18652 -57.46582 0 rrcurveto
          endchar
        </CharString>
        <CharString name="five">
          106.14941 623.08594 rmoveto
          -21.5752 -316.7207 44.87598 -18.12305 rlineto
          30.07129 37.87012 44.10938 20.90723 42.5498 0 rrcurveto
          65.59961 61.92676 -49.39648 -99.2998 -95.83008 -59.14355 -52.45117 -66.89062 hvcurveto
          -67.28418 0 -43.47168 51.00977 -3.4668 6.55469 -4.02832 7.61719 5.13281 9.84863 -8.55664 6.10352 rrcurveto
          -62.13574 -46.60156 rlineto
          41.32031 -60.99316 69.30469 -34.81445 74.04688 0 rrcurveto
          107.71094 89.10254 73.1709 135.05664 133.3877 -84.17969 74.37695 -104.32812 hvcurveto
          -34.41016 0 -34.80566 -8.07129 -32.28418 -16.10449 rrcurveto
          9.49316 179.5039 257.17383 0 0 62.99902 rlineto
          endchar
        </CharString>
        <CharString name="florin">
          479.82812 620.49707 rmoveto
          -27.68652 33.31348 -41 19.3291 -42.85059 0 -52.59473 0 -51.0293 -29.13086 -27.5 -55.06543 -18.7959 -37.63477 -3.23828 -38.93555 -2.83496 -37.72266 rrcurveto
          -6.87305 -91.47852 -125.16602 0 0 -56.95801 120.88477 0 -22.50293 -299.46094 rlineto
          -2.27539 -30.2793 -3.11523 -37.52148 -16.82031 -30.83691 -14.7002 -26.9502 -20.10254 -9.00977 -16.41016 0 -17.71875 0 -12.80176 10.16211 -5.52832 9.00879 -2.55371 4.16113 -1.89355 5.59082 -6.03711 2.97754 rrcurveto
          -40.56055 -63.86133 rlineto
          20.78613 -22.49707 29.47559 -12.8877 31.1211 0 41.14844 0 44.25586 22.56445 28.66016 48.85742 23.45605 39.98535 5.3584 43.45508 3.57031 44.49219 rrcurveto
          24.23438 302.0498 127.65332 0 0 56.95801 -123.08301 0 6.57812 81.98535 rlineto
          2.52637 31.49219 1.18652 38.24316 14.1289 31.20312 16.36523 36.14062 28.64355 14.21289 25.18848 0 33.04297 0 24.53711 -22.9375 9.26953 -19.58398 2.50586 -5.29395 -0.68652 -2.99805 0.78516 -3.89453 1.1543 -5.72168 3.93066 -1.96191 3.11816 -0.01172 rrcurveto
          endchar
        </CharString>
        <CharString name="four">
          313.26855 623.94922 rmoveto
          -264.94043 -399.56934 0 -51.78027 251.13281 0 0 -172.59961 72.49219 0 0 171.7373 80.25879 0 0 62.13574 -80.25879 0 0 390.07617 rlineto
          -71.6289 -111.32715 rmoveto
          -278.74902 -182.95605 vlineto
          endchar
        </CharString>
        <CharString name="fraction">
          75.94434 -16.39746 rmoveto
          -51 callsubr
          endchar
        </CharString>
        <CharString name="g">
          125.95801 314.3584 rmoveto
          -77 callsubr
          104.98926 157.3125 rmoveto
          -76 callsubr
          -69.63281 -447.25098 rmoveto
          -75 callsubr
          endchar
        </CharString>
        <CharString name="gbreve">
          145.84668 646.38672 rmoveto
          -35 callsubr
          -19.88867 -332.02832 rmoveto
          -77 callsubr
          104.98926 157.3125 rmoveto
          -76 callsubr
          -69.63281 -447.25098 rmoveto
          -75 callsubr
          endchar
        </CharString>
        <CharString name="germandbls">
          55.23242 hmoveto
          68.17676 424.5957 hlineto
          0 44.18945 0.6289 51.13281 28.46973 41.34863 23.43164 34.03027 34.48828 15.875 32.73633 0 59.44434 0 49.59473 -50.65625 0 -65.90918 0 -47.08496 -26.0957 -43.01172 -37.6914 -16.86523 -16.71973 -7.48145 -14.26172 -0.44336 -14.93164 0 rrcurveto
          -28.47852 -56.95801 30.2041 hlineto
          32.58008 0 27.0293 -2.26465 28.23535 -17.68652 37.68848 -23.60742 28.19531 -45.9502 0 -52.54102 0 -72.41309 -54.56836 -54.82227 -63.73828 0 -24.51465 0 -23.72266 8.23535 -19.11523 15.09473 rrcurveto
          -35.38281 -56.09473 rlineto
          31 -20.30566 36.1211 -10.78711 36.79492 0 102.50586 0 80.96191 82.38086 0 108.64355 0 83.08887 -48.42676 72.04297 -74.9873 23.23242 49.10547 25.28125 30.47168 51.08398 0 57.49316 0 95.09082 -81.38477 80.8711 -99.76855 0 -68.17773 0 -64.35156 -38.49219 -30.65527 -69.63574 rrcurveto
          -20.3164 -46.14941 -0.5752 -46.1084 0 -45.57227 rrcurveto
          endchar
        </CharString>
        <CharString name="grave">
          219.34766 460.94629 rmoveto
          29.08594 -34.66309 30.0127 3.70996 15.04785 12.62695 14.77148 12.39453 8.0293 26.83887 -25.39648 30.26562 -13.91797 16.58691 -17.64941 11.28809 -13.95605 16.63184 -12.61426 15.0332 -8.78809 17.25781 -6.68555 16.3584 rrcurveto
          -26.74121 65.4336 -51.18555 -24.9248 24.20215 -66.43652 rlineto
          24.90918 -68.37402 13.98828 -29.90137 16.8877 -20.12598 rrcurveto
          endchar
        </CharString>
        <CharString name="grave.cap">
          207.12012 672.27734 rmoveto
          -47 callsubr
          endchar
        </CharString>
        <CharString name="greater">
          42.28711 496.22461 rmoveto
          346.92578 -176.91504 -349.51465 -196.76367 0 -75.08105 426.32129 248.54395 0 48.32812 -423.73242 222.6543 rlineto
          endchar
        </CharString>
        <CharString name="guillemotleft">
          248.54395 252.85938 rmoveto
          -55 callsubr
          -333.11719 -147.57227 rmoveto
          -55 callsubr
          endchar
        </CharString>
        <CharString name="guillemotright">
          264.9414 252.85938 rmoveto
          -52 callsubr
          181.22949 23.30176 rmoveto
          -151.8877 147.57227 -38.83496 -41.42383 120.81934 -118.23047 -127.72363 -139.80664 39.69824 -39.69727 157.92871 168.28418 rlineto
          endchar
        </CharString>
        <CharString name="guilsinglleft">
          144.98438 252.85938 rmoveto
          -55 callsubr
          endchar
        </CharString>
        <CharString name="guilsinglright">
          342.61133 252.85938 rmoveto
          -52 callsubr
          endchar
        </CharString>
        <CharString name="h">
          69.90332 hmoveto
          73.35449 263.21484 hlineto
          0 30.76758 3.7002 22.34961 19.0039 25.32324 17.41699 23.20996 43.90234 40.38281 48.30957 0 22.92773 0 22.60059 -9.32031 16.40918 -19.60742 24.72559 -29.54688 0.20605 -39.20703 0 -32.26953 rrcurveto
          -275.29688 70.76562 277.02344 0 vlineto
          0 35.6709 -0.2334 37.69531 -16.25 36.72461 -22.74512 51.40137 -46.82812 29.23242 -52.05957 0 -61.9961 0 -56.30957 -40.56152 -33.5459 -50.91895 rrcurveto
          264.9414 vlineto
          0 3.39258 0.23242 2.61035 3.39746 3.58496 2.2959 2.42188 4.06152 3.0791 0 5.21484 0 1.02246 -0.16699 1.01367 -0.32715 0.96094 rrcurveto
          -82.84766 hlineto
          endchar
        </CharString>
        <CharString name="hungarumlaut">
          214.02441 699.03027 rmoveto
          -53 callsubr
          92.34082 42.28711 rmoveto
          -53 callsubr
          endchar
        </CharString>
        <CharString name="hungarumlaut.cap">
          410.78809 810.35742 rmoveto
          -32 callsubr
          -224.37988 64.72559 rmoveto
          -31 callsubr
          endchar
        </CharString>
        <CharString name="hyphen">
          70.76562 347.78906 rmoveto
          -104 callsubr
          endchar
        </CharString>
        <CharString name="i">
          106.14941 457.38965 rmoveto
          -74 callsubr
          -34.51758 198.49023 rmoveto
          -73 callsubr
          endchar
        </CharString>
        <CharString name="iacute">
          283.06445 699.03027 rmoveto
          -53 callsubr
          -239.91406 -199.35352 rmoveto
          -74 callsubr
          endchar
        </CharString>
        <CharString name="icircumflex">
          113.05273 544.55273 rmoveto
          -38 callsubr
          -118.23047 -227.83203 rmoveto
          -74 callsubr
          endchar
        </CharString>
        <CharString name="idieresis">
          202.82031 614.02246 rmoveto
          -60 callsubr
          177.76367 0.0127 rmoveto
          -59 callsubr
          -274.43457 -156.64551 rmoveto
          -74 callsubr
          endchar
        </CharString>
        <CharString name="igrave">
          191.58594 699.03027 rmoveto
          -39 callsubr
          -173.46191 -94.93066 rmoveto
          -74 callsubr
          endchar
        </CharString>
        <CharString name="j">
          125.99805 457.38965 rmoveto
          -72 callsubr
          -35.38086 198.49023 rmoveto
          -28.63477 -23.16309 -23.07324 -28.28711 -28.28125 23.16016 -23.0625 28.62695 28.64453 23.16016 23.07227 28.27734 28.2959 -23.16992 23.0586 -28.62402 hvcurveto
          endchar
        </CharString>
        <CharString name="k">
          66.45117 664.50977 rmoveto
          -665.37305 72.49219 173.46289 vlineto
          60.40918 56.0957 186.4082 -233.01074 rlineto
          0 38.31836 3.47559 47.89258 vhcurveto
          2.33008 0 2.33203 -0.00781 2.33105 -0.01562 rrcurveto
          -224.37988 273.57129 192.44922 181.23047 -25.89062 0 rlineto
          -17.51465 0 -18.27344 0.81836 -17.71777 4.35938 rrcurveto
          -228.69434 -212.29785 0 391.80176 rlineto
          0 4.32715 0.36133 2.65723 3.49219 4.54492 2.31934 3.01367 4.42969 4.59473 -1.11035 6.75195 rrcurveto
          endchar
        </CharString>
        <CharString name="kgreenlandic">
          66.45117 456.52734 rmoveto
          -457.39062 72.49219 173.46289 vlineto
          60.40918 56.0957 186.4082 -233.01074 rlineto
          0 38.31836 3.47559 47.89258 vhcurveto
          2.33008 0 2.33203 -0.00781 2.33105 -0.01562 rrcurveto
          -224.37988 273.57129 192.44922 181.23047 -25.89062 0 rlineto
          -17.51465 0 -18.27344 0.81836 -17.71777 4.35938 rrcurveto
          -228.69434 -212.29785 0 183.81836 rlineto
          0 3.67188 0.18555 2.87598 3.12012 4.25195 2.42578 3.30664 3.93066 3.73828 0 5.97266 0 0.69531 -0.05664 0.69238 -0.11328 0.68555 rrcurveto
          endchar
        </CharString>
        <CharString name="l">
          84.57422 664.50977 rmoveto
          -71 callsubr
          endchar
        </CharString>
        <CharString name="lacute">
          84.57422 664.50977 rmoveto
          -71 callsubr
          21.5752 170.01172 rmoveto
          -46 callsubr
          endchar
        </CharString>
        <CharString name="lcaron">
          474.50977 604.6709 rmoveto
          40.93848 -27.10938 25.40527 -28.45508 -26.3291 -19.71973 -21.45801 -24.16211 vhcurveto
          0 -21.51172 15.23926 -9.19824 7.06836 -4.7002 6.9502 -4.62305 11.79004 -7.36621 0 -16.46973 0 -13.23926 -7.93945 -13.67285 -3.90723 -6.41797 -7.81348 -12.83789 -13.4414 -19.4668 -18.97363 -17.44922 rrcurveto
          27.61523 -24.16406 rlineto
          55.71973 56.57324 29.30566 52.16895 0 41.65137 rrcurveto
          -407.19531 59.83887 rmoveto
          -71 callsubr
          endchar
        </CharString>
        <CharString name="less">
          458.25293 496.22461 rmoveto
          -346.92578 -176.91504 349.51465 -196.76367 0 -75.08105 -426.32227 248.54395 0 48.32812 423.7334 222.6543 rlineto
          endchar
        </CharString>
        <CharString name="logicalnot">
          91.47754 346.92578 rmoveto
          -62.99902 258.90039 -126.86035 63.8623 189.85938 vlineto
          endchar
        </CharString>
        <CharString name="lslash">
          84.57422 664.50977 rmoveto
          -57.82031 129.4502 -261.77637 vlineto
          -78.5332 -27.3291 0 -65.58789 78.5332 26.5498 0 -220.72461 -135.49121 0 0 -57.82129 342.61035 0 0 57.82129 -134.62793 0 0 245.2334 91.47852 30.92676 0 73.35449 rlineto
          -9.49316 -6.9043 -6.9043 -4.31445 -10.35547 -3.45215 rrcurveto
          -64.72559 -22.52441 0 294.36914 rlineto
          endchar
        </CharString>
        <CharString name="m">
          37.97168 hmoveto
          65.58789 304.63867 hlineto
          0 21.5127 1.49219 19.9541 12.94824 24.04102 16.52832 30.6914 20.41504 11.93262 18.2959 0 16.27441 0 18.2998 -10.11816 7.74219 -25.0791 5.89746 -19.10742 -1.3877 -22.04102 0 -18.84082 rrcurveto
          -317.58398 67.31348 302.0498 vlineto
          0 24.00977 2.33301 19.58301 16.86816 28.44922 7.56348 12.75781 17.81738 28.42969 27.74121 0 14.78125 0 14.10352 -8.61035 7.3877 -16.89258 8.41406 -19.2373 -2.23047 -26.14258 0 -20.77148 rrcurveto
          -324.48828 68.17676 325.35156 vlineto
          0 37.80566 1.60254 38.63379 -20.21875 30.52344 -17.50879 26.43555 -28.26074 9.86133 -25.69727 0 -43.82031 0 -40.79883 -26.04492 -17.74707 -40.4082 -7.16211 37.73145 -32.72266 28.76758 -40.94238 0 -37.47266 0 -35.02344 -24.19727 -21.00293 -31.94531 rrcurveto
          0.86328 44.87598 -66.45117 0 rlineto
          endchar
        </CharString>
        <CharString name="macron">
          123.40918 621.36035 rmoveto
          -54 callsubr
          endchar
        </CharString>
        <CharString name="micro">
          24.16406 -166.5586 rmoveto
          62.13574 hlineto
          0.74316 75.36719 0.29199 75.63672 -0.17188 75.96484 20.78906 -44.01367 44.3711 -27.61914 48.64355 0 51.5039 0 48.02148 30.72754 23.13281 47.80957 5.59082 -43.03418 34.27441 -34.72363 42.32422 0 37.0664 0 31.6123 26.0791 19.14258 29.24023 rrcurveto
          -26.75293 50.91699 rlineto
          0 -21.13281 -48.44336 -33.89355 vhcurveto
          -12.0791 0 -11.93066 6.48633 -7.48438 13.1543 -8.54395 15.01562 0.13477 18.28027 0 15.35547 rrcurveto
          340.88574 -63.8623 -264.9414 vlineto
          0 -30.6748 -1.51562 -26.43945 -11.40527 -26.05078 -17.66309 -40.34277 -35.35352 -24.9414 -36.18945 0 -31.80664 0 -31.88281 19.65918 -17.78809 36.07422 -13.86328 28.11133 -1.02246 28.55762 0 30.00586 rrcurveto
          270.98242 -65.58789 -254.58496 vlineto
          0 -126.58691 -19.03906 -126.26074 -0.80957 -115.65332 rrcurveto
          endchar
        </CharString>
        <CharString name="minus">
          44.87598 343.47363 rmoveto
          -102 callsubr
          endchar
        </CharString>
        <CharString name="multiply">
          382.3086 503.1289 rmoveto
          -126.20117 -131.32324 -124.06836 131.32324 -47.46484 -45.73926 125.99316 -132.97168 -125.99316 -131.10547 44.87598 -44.01367 124.92871 128.8789 126.2041 -133.19336 46.60156 45.73828 -127.13477 134.56934 129.72461 133.82422 rlineto
          endchar
        </CharString>
        <CharString name="n">
          68.17676 hmoveto
          -70 callsubr
          endchar
        </CharString>
        <CharString name="nacute">
          291.69434 699.03027 rmoveto
          -53 callsubr
          -286.5166 -656.74316 rmoveto
          -70 callsubr
          endchar
        </CharString>
        <CharString name="ncaron">
          377.13184 658.46973 rmoveto
          -33 callsubr
          -197.62793 -517.80078 rmoveto
          -70 callsubr
          endchar
        </CharString>
        <CharString name="nine">
          217.19531 -10.49121 rmoveto
          76.04883 0 79.5752 45.59863 37.75195 99.55078 10.93555 28.83691 15.74414 54.0586 0 101.98145 0 77.9961 -6.99023 53.8086 -14.50488 42.58105 -32.46094 95.29785 -71.7373 39.9082 -65.04297 0 rrcurveto
          -96.93164 -81.41113 -85.63281 -120.74805 -119.70215 80.46094 -76.97461 90.51855 hvcurveto
          51.42188 0 48.02148 25.23242 29.04297 42.11816 -2.95801 -96.8789 -15.86328 -42.00488 -6.57031 -15.53027 -26.64941 -63.00098 -51.7461 -22.60352 -44.78809 0 -44.71289 0 -30.11816 22.49023 -0.20703 0.16016 -8.43945 6.53711 2.77246 10.76953 -10.63379 6.75 rrcurveto
          -48.32715 -53.50684 rlineto
          36.73926 -36.41895 49.625 -20.67383 51.43457 0 rrcurveto
          28.75 297.63574 rmoveto
          -55.55176 -54.0664 45.72266 92.76074 90.67383 52.20117 50.72656 56.53027 hvcurveto
          70.92383 0 59.26074 -77.92578 -11.05762 -125.7793 -27.54492 -46.42383 -45.82227 -29.75488 -44.87305 0 rrcurveto
          endchar
        </CharString>
        <CharString name="nonbreakingspace">
          endchar
        </CharString>
        <CharString name="ntilde">
          130.31348 557.49805 rmoveto
          -44 callsubr
          -17.26074 -589.42871 rmoveto
          -70 callsubr
          endchar
        </CharString>
        <CharString name="numbersign">
          173.46289 623.94922 rmoveto
          -20.0586 -169.5459 -111.11719 -1.32812 -3.45215 -47.46484 108.9248 1.08887 -20.13379 -170.17969 -98.28418 -1.7832 -4.31445 -45.73926 97.16211 1.57129 -21.21875 -179.34961 58.68457 2.58887 21.52539 177.71289 110.73633 1.79004 -21.79785 -182.9541 60.41016 3.45117 22.04785 180.48242 rlineto
          99.63477 1.61133 5.17773 46.60156 -99.14258 -1.79883 20.55957 168.30566 91.52832 0.91504 5.17773 48.32812 -90.82324 -1.08496 20.05762 164.19238 -62.13574 -2.58887 -19.34277 -162.33887 -110.15918 -1.31543 20.76367 171.4209 rlineto
          -26.55664 -219.24316 rmoveto
          110.22852 1.10254 -20.11133 -168.79688 -110.67285 -2.00879 rlineto
          endchar
        </CharString>
        <CharString name="o">
          460.07715 226.36816 rmoveto
          -69 callsubr
          -208.29004 179.33008 rmoveto
          -68 callsubr
          endchar
        </CharString>
        <CharString name="oacute">
          291.69434 699.03027 rmoveto
          -53 callsubr
          105.38379 -430.375 rmoveto
          -69 callsubr
          -208.29004 179.33008 rmoveto
          -68 callsubr
          endchar
        </CharString>
        <CharString name="ocircumflex">
          133.76465 544.55273 rmoveto
          -38 callsubr
          214.98535 -458.85352 rmoveto
          -69 callsubr
          -208.29004 179.33008 rmoveto
          -68 callsubr
          endchar
        </CharString>
        <CharString name="odieresis">
          213.17676 614.02246 rmoveto
          -60 callsubr
          177.76367 0.0127 rmoveto
          -59 callsubr
          69.13672 -387.66699 rmoveto
          -69 callsubr
          -208.29004 179.33008 rmoveto
          -68 callsubr
          endchar
        </CharString>
        <CharString name="oe">
          161.44336 466.06934 rmoveto
          -47.15527 0 -50.44336 -26.87305 -29.68164 -56.02051 -24.66309 -46.55371 -3.46582 -54.17285 0 -45.96582 0 -52.54785 3.71289 -64.09277 24.12207 -49.57422 29.81152 -61.26855 50.46094 -20.24121 39.75879 0 36.21094 0 35.74902 15.90234 26.99902 24.68066 31.98145 -26.5625 40.26953 -14.54102 41.57324 0 rrcurveto
          48.17383 0 46.10547 19.51074 33.53613 34.53809 rrcurveto
          -35.38281 43.14941 rlineto
          -25.60059 -29.14355 -35.9082 -9.73438 -28.8711 0 -37.28613 0 -36.9668 16.6836 -17.73047 40.18066 -10.84375 24.57715 -3.03125 29.86719 -0.52637 63.06055 rrcurveto
          227.83203 11.21973 hlineto
          0 50.01855 2.31445 53.61719 -16.11816 44.0664 -22.65039 61.92578 -51.64746 24.30664 -46.33398 0 -38.72461 0 -37.00488 -16.49316 -25.4336 -29.30762 -21.61621 29.05469 -34.2334 16.7334 -37.29199 0 rrcurveto
          101.77148 -188.1836 rmoveto
          -0.98633 47.63477 9.35547 25.87598 2.21191 5.95215 15.40332 41.41992 32.31836 12.70215 26.0459 0 25.86523 0 26.7998 -12.18164 15.2666 -25.48242 15.7666 -26.31934 -0.625 -31.38965 0 -29.58203 rrcurveto
          -8.62988 vlineto
          -364.2461 -31.85156 rmoveto
          0 28.18066 1.93262 39.15527 15.88379 34.28027 17.85059 38.53027 30.39648 19.49512 28.30957 0 26.09082 0 22.3164 -17.11328 0 -26.32129 0 -14.29297 -8.9961 -37.49316 0 -74.41309 0 -86.90723 12.57031 -47.11719 0 -12.95801 0 -24.98633 -25.20703 -14.16602 -24.98438 0 rrcurveto
          -30.05566 0 -34.61621 19.34375 -16.97852 53.93164 -12.45703 39.56836 -2.05566 49.50977 0 33.77344 rrcurveto
          endchar
        </CharString>
        <CharString name="ogonek">
          355.55566 hmoveto
          -51.8125 -42.74414 -27.53906 -39.89844 0 -32.21777 0 -33.35547 26.58691 -27.83789 51.8164 0 24.85352 0 24.66504 6.31055 19.60742 16.99219 rrcurveto
          45.73926 vlineto
          -6.35742 -5.27441 -10.07715 -6.88281 -15.62012 -5.68848 -10.51172 -3.82812 -7.36914 -1.45215 -6.20508 0 -18.20801 0 -11.04785 13.08105 0 15.35938 0 14.78906 9.80762 11.85742 7.02832 7.96094 8.49219 9.61719 24.72168 27.27441 33.62012 30.19824 rrcurveto
          endchar
        </CharString>
        <CharString name="ograve">
          243.36621 699.03027 rmoveto
          -39 callsubr
          128.68555 -325.95215 rmoveto
          -69 callsubr
          -208.29004 179.33008 rmoveto
          -68 callsubr
          endchar
        </CharString>
        <CharString name="ohungarumlaut">
          214.02441 699.03027 rmoveto
          -53 callsubr
          92.34082 42.28711 rmoveto
          -53 callsubr
          27.71387 -430.375 rmoveto
          -69 callsubr
          -208.29004 179.33008 rmoveto
          -68 callsubr
          endchar
        </CharString>
        <CharString name="omacron">
          123.40918 621.36035 rmoveto
          -54 callsubr
          82.94629 -394.99219 rmoveto
          -69 callsubr
          -208.29004 179.33008 rmoveto
          -68 callsubr
          endchar
        </CharString>
        <CharString name="one">
          299.46094 623.94922 rmoveto
          -48.32812 0 -163.10645 -85.4375 16.39648 -38.83496 125.13477 37.10938 0 -537.64941 69.90332 0 rlineto
          endchar
        </CharString>
        <CharString name="onehalf">
          75.94434 -16.39746 rmoveto
          -51 callsubr
          -126.42969 -496.45996 rmoveto
          37.28125 -24.85352 rlineto
          3.9668 7.52832 -0.5664 3.57031 4.31445 5.45801 14.06836 17.79785 26.1123 15.9873 30.72559 0 38.24805 0 21.98047 -23.46387 0 -25.38281 0 -24.06445 -18.0332 -19.31152 -23.21289 -18.87793 -23.95898 -19.48145 -58.7627 -39.00879 -44.56836 -61.63574 rrcurveto
          -35.21094 223.68945 50.39941 vlineto
          -5.19238 1.72266 -3.9209 -3.88281 -1.66309 -1.43457 -3.24414 -2.79785 -1.66211 -0.51074 -3.64844 0 rrcurveto
          -145.6748 hlineto
          44.69824 49.9502 44.2373 20.75781 31.77441 29.28418 11.36426 10.47363 26.02832 26.02637 0 37.875 0 48.47266 -43.26367 41.09082 -63.68262 0 -48.51367 0 -44.91211 -24.7168 -24.00879 -41.76074 rrcurveto
          -116.59082 509.40527 rmoveto
          -48 callsubr
          endchar
        </CharString>
        <CharString name="onequarter">
          75.94434 -16.39746 rmoveto
          -51 callsubr
          6.5586 -422.95605 rmoveto
          -50 callsubr
          -44.87598 -78.01465 rmoveto
          -49 callsubr
          -141.87695 631.97461 rmoveto
          -48 callsubr
          endchar
        </CharString>
        <CharString name="ordfeminine">
          122.5459 566.12793 rmoveto
          34.52051 -41.42383 rlineto
          22.4668 30.80371 36.55078 13.22754 34.63281 0 31.30664 0 20.97559 -12.08887 11.30664 -17.62012 10.73047 -16.72363 0.31445 -17.80371 0 -16.9043 rrcurveto
          -12.08203 -14.6709 vlineto
          -49.49707 0 -55.06348 2.34668 -44.7627 -23.83594 -41.68262 -22.19629 -17.84375 -37.12305 0 -33.1377 0 -55.60352 48.375 -48.79004 69.3164 0 38.76953 0 38.25293 15.16211 29.66992 27.98926 rrcurveto
          -33.65723 62.99902 218.33887 vlineto
          0 26.28809 -1.04785 22.63965 -10.54883 22.66992 -20.59961 44.27246 -45.78809 21.5918 -54.22852 0 -47.20605 0 -51.31836 -15.0498 -35.92969 -41.29004 rrcurveto
          205.39453 -142.39453 rmoveto
          -17.26074 vlineto
          0 -23.24902 -0.58496 -20.45898 -21.62207 -20.11426 -17.76074 -16.52344 -27.82422 -14.85352 -30.7207 0 -38.52051 0 -24.46484 25.04395 0 28.00293 0 21.65625 15.2666 27.11719 44.12988 7.82812 26.36621 4.67676 33.44336 -1.86523 25.89453 0 rrcurveto
          -235.59863 -217.47656 rmoveto
          -56 callsubr
          endchar
        </CharString>
        <CharString name="ordmasculine">
          251.8457 622.23242 rmoveto
          -83.12793 -73.07422 -75.28125 -114.70117 -109.10254 70.76367 -66.8877 79.2002 73.1543 78.31055 58.55664 129.41797 120.00195 -73.25488 57.9961 -71.97168 hvcurveto
          -95.6543 -185.37012 rmoveto
          86.16504 45.1748 43.10059 45.6289 46.03125 44.40625 -43.57422 -85.69727 -86.07031 -47.52539 -36.71875 -42.75 -44.43848 -46.52734 39.06934 83.72559 vhcurveto
          -80.24707 -230.60547 rmoveto
          -56 callsubr
          endchar
        </CharString>
        <CharString name="oslash">
          251.78711 405.69824 rmoveto
          17.54102 0 17.82715 -4.02832 16.7168 -8.27637 rrcurveto
          -154.03809 -283.42969 rlineto
          -20.54785 30.39453 -12.79395 41.07227 0 49.68555 0 111.99121 65.42383 62.59082 69.8711 0 rrcurveto
          208.29004 -179.33008 rmoveto
          0 86.79004 -30.13965 64.09766 -44.40723 40.10254 rrcurveto
          39.92871 72.8252 -53.50586 28.47949 -37.11621 -68.29297 rlineto
          -24.65918 10.9668 -26.60059 5.55078 -26.88574 0 -116.42773 0 -99.8164 -100.85547 0 -141.15332 0 -75.16406 28.94629 -63.1709 44.7959 -42.16504 rrcurveto
          -44.28613 -81.48828 51.7793 -26.75293 40.6543 74.14648 rlineto
          28.17578 -14.47656 31.37305 -7.88965 32.67188 0 108.1836 0 97.33594 86.99414 0 151.45605 rrcurveto
          -109.40332 127.41797 rmoveto
          22.26367 -29.8125 14.69336 -43.09277 0 -57.49902 0 -114.98926 -65.83203 -58.34473 -66.6836 0 -21.60156 0 -20.98535 6.01855 -18.83398 11.40918 rrcurveto
          endchar
        </CharString>
        <CharString name="otilde">
          135.49121 557.49805 rmoveto
          -44 callsubr
          369.46191 -363.06055 rmoveto
          -69 callsubr
          -208.29004 179.33008 rmoveto
          -68 callsubr
          endchar
        </CharString>
        <CharString name="p">
          59.54688 456.52734 rmoveto
          0.86328 -623.08594 73.35449 0 0 226.96875 rlineto
          30.49805 -45.17383 51.12695 -27.44727 55.49316 0 rrcurveto
          93.38867 98.30371 78.29102 167.52539 161.23145 -95.50195 72.0459 -89.88086 hvcurveto
          -58.63379 0 -54.61914 -30.32324 -31.03711 -49.93555 rrcurveto
          69.90332 vlineto
          117.88477 -50.99414 rmoveto
          -67 callsubr
          endchar
        </CharString>
        <CharString name="paragraph">
          435.81543 665.37305 rmoveto
          -125.13574 hlineto
          -46.40234 0 -49.81738 -0.19922 -48.00586 -20.78613 -66.37402 -28.73828 -36.26758 -58.45312 0 -61.36426 0 -90.0957 77.33594 -77.19922 101.35449 -6.6377 rrcurveto
          -390.07617 59.54688 676.5918 75.94434 -676.5918 57.82129 vlineto
          endchar
        </CharString>
        <CharString name="parenleft">
          391.80176 666.23633 rmoveto
          -154.75488 -68.0752 -98.37988 -156.67871 0 -183.04688 0 -181.63574 95.59961 -166.25684 158.39844 -83.14258 rrcurveto
          32.79395 52.64258 rlineto
          -136.67383 79.42285 -80.5664 146.9541 0 155.36621 0 142.83984 69.19531 127.38477 116.83496 68.90918 2.66895 1.57422 2.40625 1.54688 3.97559 0 3.51367 0 3.1748 -1.13965 3.96582 0 1.43262 0 3.23242 0.13086 3.3877 1.93066 rrcurveto
          endchar
        </CharString>
        <CharString name="parenright">
          77.66992 603.2373 rmoveto
          132.1709 -70.26562 83.60352 -136.89355 0 -148.41602 0 -150.49121 -85.81152 -139.5586 -135.14062 -71.52832 rrcurveto
          18.98535 -60.41016 rlineto
          165.84277 79.06543 106.86523 166.11719 0 179.66309 0 178.07422 -105.05664 162.00195 -162.47266 74.77734 rrcurveto
          endchar
        </CharString>
        <CharString name="percent">
          390.93945 623.08594 rmoveto
          -345.2002 -623.08594 63.86133 0 348.65234 623.08594 rlineto
          -318.5293 11.31055 rmoveto
          -59.42871 -51.94434 -54.00586 -76.875 -74.68164 50.90723 -56.0332 61.37012 60.90723 50.59863 55.35352 74.27344 76.25684 -51.50879 55.71191 -60.90137 hvcurveto
          -1.3584 -52.73047 rmoveto
          16.19629 34.51465 -10.64746 -71.21387 -57.82715 -29.24707 -15.73242 -19.89453 -18.02637 -33.03906 12.98145 67.72559 59.2832 29.77637 15.43066 19.71973 hvcurveto
          344.06738 -462.06055 rmoveto
          74.45801 -50.82324 55.34473 -60.87402 -60.72949 -51.12305 -55.15625 -74.93164 -74.39844 50.97656 -55.38477 60.96777 60.6582 50.94727 55.11914 74.94922 vhcurveto
          -111.92871 78.02539 rmoveto
          20.57031 31.80371 -16.11621 -64.23047 -59.64062 -30.11426 -17.28125 -21.41211 -23.4336 -29.47559 19.95312 59.07227 60.92871 30.58594 17.31445 21.47559 hvcurveto
          endchar
        </CharString>
        <CharString name="period">
          297.73633 46.16504 rmoveto
          -103 callsubr
          endchar
        </CharString>
        <CharString name="periodcentered">
          297.73633 330.95508 rmoveto
          -103 callsubr
          endchar
        </CharString>
        <CharString name="plus">
          221.79102 522.97852 rmoveto
          -106 callsubr
          endchar
        </CharString>
        <CharString name="plusminus">
          45.73926 80.25879 rmoveto
          -62.99902 411.65039 62.99902 vlineto
          -235.59863 494.5 rmoveto
          -106 callsubr
          endchar
        </CharString>
        <CharString name="q">
          373.67871 390.07617 rmoveto
          -0.33008 -31.81152 78.91992 -101.36328 -100.08887 -98.13086 -80.71191 -155.25684 -148.05371 86.92188 -94.70312 100.8789 vhcurveto
          58.18066 0 53.39453 32.5459 28.5664 50.86914 rrcurveto
          -239.91406 71.62988 623.08594 -68.17773 vlineto
          -130.35645 -46.57324 rmoveto
          40.78906 0 52.60156 -21.80176 20.00684 -56.02441 9.00879 -25.22266 2.16309 -28.7627 0 -55.2373 0 -34.15625 -2.0752 -25.64453 -7.45605 -23.15723 -17.53125 -54.45312 -47.09277 -32.16895 -47.63672 0 rrcurveto
          -65.16797 -66.25586 60.58984 129.08398 119.18164 67.35156 47.77344 61.29492 hvcurveto
          endchar
        </CharString>
        <CharString name="question">
          320.1748 44.43848 rmoveto
          31.47168 -26.27539 25.92578 -32.875 -32.8623 -26.26172 -25.92383 -31.45996 -31.52441 26.29004 -25.91211 32.8164 32.88965 26.27832 25.93652 31.48633 vhcurveto
          -256.3125 516.51172 rmoveto
          50.91699 -47.46484 rlineto
          31.53516 52.73926 53.07812 33.69238 50.56152 0 59.81836 0 45.41797 -46.57715 0 -59.0918 0 -65.51367 -51.8711 -40.84375 -30.22363 -33.18652 -44.17676 -48.50684 -2.8125 -35.20312 0 -44.8877 rrcurveto
          -41.4248 65.58789 41.4248 vlineto
          0 35.24023 2.32324 29.71582 41.17578 36.59766 33.00293 29.33398 66.09961 38.04883 0 93.96582 0 93.19922 -64.32812 83.2168 -113.30957 0 -74.8789 0 -74.40039 -37.42676 -43.5166 -67.04785 rrcurveto
          endchar
        </CharString>
        <CharString name="questiondown">
          181.36523 607.96289 rmoveto
          -31.47168 26.27539 -25.92578 32.875 32.8623 26.26172 25.92383 31.45996 31.52441 -26.29004 25.91211 -32.8164 -32.88965 -26.27832 -25.93652 -31.48633 vhcurveto
          256.3125 -516.51172 rmoveto
          -50.91699 47.46484 rlineto
          -31.53516 -52.73926 -53.07812 -33.69238 -50.56152 0 -59.81836 0 -45.41797 46.57715 0 59.0918 0 65.51367 51.8711 40.84375 30.22363 33.18652 44.17676 48.50684 2.8125 35.20312 0 44.8877 rrcurveto
          41.4248 -65.58789 -41.4248 vlineto
          0 -35.24023 -2.32324 -29.71582 -41.17578 -36.59766 -33.00293 -29.33398 -66.09961 -38.04883 0 -93.96582 0 -93.19922 64.32812 -83.2168 113.30957 0 74.8789 0 74.40039 37.42676 43.5166 67.04785 rrcurveto
          endchar
        </CharString>
        <CharString name="quotedbl">
          396.69629 604.66016 rmoveto
          -107 callsubr
          -172.59961 hmoveto
          -107 callsubr
          endchar
        </CharString>
        <CharString name="quotedblbase">
          409.19336 19.70703 rmoveto
          -105 callsubr
          -207.11914 hmoveto
          -105 callsubr
          endchar
        </CharString>
        <CharString name="quotedblleft">
          285.64746 449.69629 rmoveto
          -30 callsubr
          -207.12012 hmoveto
          -30 callsubr
          endchar
        </CharString>
        <CharString name="quotedblright">
          202.07422 554.7666 rmoveto
          -105 callsubr
          207.11914 hmoveto
          -105 callsubr
          endchar
        </CharString>
        <CharString name="quoteleft">
          182.08691 449.69629 rmoveto
          -30 callsubr
          endchar
        </CharString>
        <CharString name="quoteright">
          305.63379 554.7666 rmoveto
          -105 callsubr
          endchar
        </CharString>
        <CharString name="quotesinglbase">
          305.63379 19.70703 rmoveto
          -105 callsubr
          endchar
        </CharString>
        <CharString name="quotesingle">
          319.02637 604.66016 rmoveto
          -107 callsubr
          endchar
        </CharString>
        <CharString name="r">
          99.24512 456.52734 rmoveto
          -66 callsubr
          endchar
        </CharString>
        <CharString name="r.serif">
          64.72461 456.52734 rmoveto
          -57.82129 62.99902 -345.2002 -64.72461 -54.36914 232.14746 54.36914 -95.79395 176.91504 vlineto
          0 24.67188 0.375 30.89258 35.74023 50.61914 36.10742 51.13867 40.57422 17.65918 34.11719 0 35.88086 0 24.71094 -19.05371 11.97852 -15.86328 5.6543 -7.48633 3.17969 -7.43945 7.28125 -6.90723 rrcurveto
          33.65723 69.04004 rlineto
          -32.38574 32.33984 -43.02832 17.2793 -42.5752 0 -65.78516 0 -57.16895 -41.42969 -28.31348 -57.38086 rrcurveto
          2.58984 88.02637 rlineto
          endchar
        </CharString>
        <CharString name="racute">
          291.69434 699.03027 rmoveto
          -53 callsubr
          -255.44824 -200.21582 rmoveto
          -66 callsubr
          endchar
        </CharString>
        <CharString name="rcaron">
          377.13184 658.46973 rmoveto
          -33 callsubr
          -166.55957 -61.27344 rmoveto
          -66 callsubr
          endchar
        </CharString>
        <CharString name="registered">
          255.71289 18.88867 rmoveto
          -58 callsubr
          -196.40234 255.37207 rmoveto
          -57 callsubr
          96.0293 -141.3584 rmoveto
          45.73926 123.4082 65.58789 hlineto
          62.13574 -125.13477 47.46484 6.9043 -64.72461 125.13477 rlineto
          34.63379 9.71387 24.0498 31.4082 0 35.45117 0 30.86328 -18.34277 29.78027 -33.73926 14.27637 -23.00586 9.7334 -23.42969 0.1543 -22.30176 0 rrcurveto
          -94.06738 hlineto
          45.73926 -40.56055 rmoveto
          49.19043 hlineto
          16.42969 0 19.4668 0.18066 16.13281 -9.07422 15.2207 -8.56055 6.96973 -13.82715 0 -12.99805 0 -12.26855 -6.18848 -12.97461 -13.49805 -8.54102 -15.87305 -10.04395 -19.65527 0.08105 -16.41504 0 rrcurveto
          -51.78027 hlineto
          endchar
        </CharString>
        <CharString name="ring">
          347.79297 604.96094 rmoveto
          -37 callsubr
          -132.11719 0.66992 rmoveto
          -36 callsubr
          endchar
        </CharString>
        <CharString name="s">
          432.36328 396.11719 rmoveto
          -65 callsubr
          endchar
        </CharString>
        <CharString name="sacute">
          291.69434 699.03027 rmoveto
          -53 callsubr
          77.66992 -260.62598 rmoveto
          -65 callsubr
          endchar
        </CharString>
        <CharString name="scaron">
          377.13184 658.46973 rmoveto
          -33 callsubr
          166.5586 -121.6836 rmoveto
          -65 callsubr
          endchar
        </CharString>
        <CharString name="scedilla">
          432.36328 396.11719 rmoveto
          -42.21582 46.52051 -60.6543 25.11133 -67.57617 0 -106.10449 0 -69.51465 -59.29102 0 -68.23633 0 -79.76953 86.50488 -29.06543 24.79688 -8.96387 38.63867 -13.9668 50.44531 -12.13574 33.70117 -15.77344 37.69043 -17.64258 7.89551 -24.0586 0 -16.50977 0 -42.79492 -52.1914 -29.4873 -65.2666 0 rrcurveto
          -78.31055 0 -50.16016 47.18945 -14.45508 16.43066 -3.40625 3.87402 0.44434 2.81445 0.18457 3.99902 0.0625 1.37305 0.43652 5.72754 -4.92676 2.30273 rrcurveto
          -41.42383 -71.6289 rlineto
          49.63086 -46.14941 63.50195 -22.81836 64.19727 -3.14453 rrcurveto
          -9.9082 -75.45996 29.3418 0 rlineto
          11.3916 0 14.41406 0.03027 10.76855 -6.59961 7.83594 -4.80176 3.05664 -6.67871 0 -5.88965 0 -8.70508 -6.80371 -15.69336 -38.88086 0 -30.23438 0 -37.65527 10.06152 -31.41113 25.33105 rrcurveto
          -25.02734 -41.42383 rlineto
          37.36426 -26.27637 42.78418 -10.91211 38.41797 0 73.39355 0 35.07031 38.61035 0 35.72461 0 19.38672 -10.44043 17.97754 -19.06348 9.25 -12.84961 6.23535 -13.125 0.80957 -12.75977 0.67188 rrcurveto
          -16.39648 0.86328 4.18945 38.40039 rlineto
          106.61621 10.10156 55.49316 67.63379 0 63.61426 0 31.6211 -13 41.33398 -54.05762 30.34473 -51.62598 28.97852 -73.56934 10.3164 -42.70117 20.63574 -37.31934 18.03613 -7.9414 22.15527 0 15.34961 0 36.76367 44.60547 25.6211 51.65234 0 65.12695 0 44.30371 -40.29297 17.38867 -22.44043 rrcurveto
          2.8164 -3.63574 -0.65625 -2.39941 -0.02344 -3.5127 -0.03906 -5.98242 3.48047 -1.63965 1.76562 -0.41992 rrcurveto
          endchar
        </CharString>
        <CharString name="section">
          412.51367 583.3877 rmoveto
          -30.82812 54.22461 -58.41016 34.0332 -66.15723 0 -93.68262 0 -69.4541 -65.83594 0 -76.24512 0 -39.63086 19.02344 -43.6377 47.69043 -29.62012 -47.71777 -17.00781 -33.8584 -38.56445 0 -45.1709 0 -34.43457 19.1875 -36.03418 44.40332 -26.23828 49.8789 -29.47461 56.77441 -3.58398 41.45215 -24.52832 rrcurveto
          34.00684 -20.12207 11.94629 -27.50488 0 -23.37402 0 -41.41309 -37.35742 -37.34961 -61.20312 0 -75.37402 0 -34.12695 55.07812 -3.0332 7.875 -2.16602 5.62207 1.62207 8.71484 -7.76172 3.17578 rrcurveto
          -52.64355 -61.27246 rlineto
          41.85547 -54.80469 64.83203 -30.65039 66.58105 0 101.09863 0 69.25781 69.04883 0 77.91699 0 42.5166 -20.59277 43.87695 -43.81738 29.76855 43.52051 17.82129 30.38379 37.06836 0 41.80371 0 36.02441 -22.05957 43.86426 -69.79688 33.3291 -40.27637 19.23145 -37.50586 8.42871 -28.70312 15.17969 rrcurveto
          -43.6875 23.10352 -9.26074 30.98828 0 20.27148 0 41.6289 38.24414 35.17188 52.67969 0 53.0918 0 29.84863 -36.24414 8.13672 -22.57129 2.50684 -6.95117 -1.97656 -8.01465 7.33398 -5.54102 rrcurveto
          -159.0127 -134.80371 rmoveto
          30.96875 -12.37598 30.99121 -6.91699 25.68457 -12.67578 46.49707 -22.94531 11.4541 -32.81738 0 -22.79883 0 -26.00488 -14.56445 -22.63477 -21.86621 -11.02246 -35.98633 14.57812 -34.62402 4.57227 -30.16113 14.75684 -42.37207 20.73145 -11.57422 30.81152 0 22.31348 0 29.06836 18.95508 24.66797 26.59766 8.69238 rrcurveto
          endchar
        </CharString>
        <CharString name="semicolon">
          305.63379 19.70703 rmoveto
          -105 callsubr
          -7.89746 345.76758 rmoveto
          -103 callsubr
          endchar
        </CharString>
        <CharString name="seven">
          78.5332 623.08594 rmoveto
          -66.45117 266.66699 vlineto
          -31.46484 -73.98633 -30.20996 -74.52051 -28.94043 -75.00977 -42.4502 -110.03027 -39.71387 -111.08398 -36.92969 -112.0039 rrcurveto
          78.5332 hlineto
          30.37695 98.12305 33.09863 97.28125 35.76855 96.29004 36.63184 98.61133 39.43164 97.57129 42.16797 96.37402 rrcurveto
          38.83496 vlineto
          endchar
        </CharString>
        <CharString name="six">
          287.08496 630.10938 rmoveto
          -74.27637 0 -80.66406 -45.78027 -38.34668 -108.94043 -20.89258 -59.35742 -5.75488 -72.54492 0 -59.79688 0 -72.96094 7.10352 -77.89648 40.01953 -60.44238 36.28418 -54.80176 55.44434 -27.94629 55.48438 0 rrcurveto
          94.71875 83.13086 80.13965 128.31055 129.68262 -82.85156 74.50195 -88.08691 hvcurveto
          -54.3623 0 -50.15234 -28.59863 -27.5293 -46.60059 3.80762 213.14941 102.56055 27.83984 44.7959 0 41.42773 0 27.55273 -22.03711 3.81836 -3.99902 6.10449 -6.3916 -0.1914 -9.36328 9.17578 -6.74902 rrcurveto
          48.32812 53.50586 rlineto
          -36.60547 36.08105 -49.33887 20.9961 -50.7041 0 rrcurveto
          -25.22559 -289.14648 rmoveto
          50.08691 59.28906 -39.0498 -107.38379 -97.43262 -53.94922 -45.36426 -52.84668 hvcurveto
          -76.01465 0 -56.875 89.01953 8.25586 116.42188 28.08984 51.1123 47.71387 32.67676 46.25 0 rrcurveto
          endchar
        </CharString>
        <CharString name="slash">
          63.8623 -12.94531 rmoveto
          58.6836 -29.3418 314.13184 676.5918 -59.54688 30.20508 rlineto
          endchar
        </CharString>
        <CharString name="softhyphen">
          70.76562 347.78906 rmoveto
          -104 callsubr
          endchar
        </CharString>
        <CharString name="space">
          endchar
        </CharString>
        <CharString name="sterling">
          417.69238 572.16895 rmoveto
          -35.88574 32.91309 -46.45801 18.00879 -47.64941 0 -92.78516 0 -82.78516 -69.14551 0 -112.15137 0 -21.64941 2.99512 -21.15527 4.25098 -20.99512 rrcurveto
          -52.06055 -56.95801 65.43262 hlineto
          7.88086 -32.37793 7.12988 -32.7168 0 -34.2793 0 -45.00781 -12.22168 -41.97363 -22.23535 -34.58984 -15.8252 -24.61914 -12.11426 -4.78711 -46.52637 -21.49316 rrcurveto
          25.88965 -56.95801 rlineto
          64.10645 33.88574 38.58594 3.79785 20.43457 0 72.60449 0 41.81738 -44.72852 63.75977 0 43.64453 0 38.13867 23.66016 22.51855 17.9043 rrcurveto
          -26.75293 51.78027 rlineto
          -20.3086 -17.38574 -26.0127 -10.30273 -27.58691 0 -57.2627 0 -41.34082 41.21582 -66.48438 0 -8.99219 0 -8.96973 -0.7627 -8.8457 -1.5459 23.7461 38.40332 12.96289 46.13379 0 49.38477 0 34.23535 -6.30176 32.18164 -7.27051 30.94531 rrcurveto
          85.60059 56.95801 -99.09961 hlineto
          -4.69434 21.84668 -3.40625 21.4541 0 21.38574 0 83.23145 52.98047 40.32617 53.65723 0 41.99219 0 28.12207 -24.20703 4.24512 -4.66406 5.83203 -6.41016 -0.62695 -8.03613 8.16113 -5.9834 rrcurveto
          endchar
        </CharString>
        <CharString name="t">
          188.13379 579.07324 rmoveto
          -64 callsubr
          endchar
        </CharString>
        <CharString name="tcaron">
          483.13965 639.19043 rmoveto
          40.93945 -27.10938 25.4043 -28.45508 -26.3291 -19.71973 -21.45703 -24.16309 vhcurveto
          0 -21.51074 15.23926 -9.19824 7.06836 -4.70117 6.9502 -4.62207 11.79004 -7.36719 0 -16.46875 0 -13.23926 -7.93945 -13.67285 -3.90723 -6.41797 -7.81348 -12.83789 -13.4414 -19.46777 -18.97363 -17.44922 rrcurveto
          27.61523 -24.16406 rlineto
          55.71973 56.57324 29.30566 52.16895 0 41.65137 rrcurveto
          -320.89551 -60.11719 rmoveto
          -64 callsubr
          endchar
        </CharString>
        <CharString name="tcedilla">
          188.13379 579.07324 rmoveto
          -8.62988 -122.5459 -108.73828 0 -0.8623 -58.68457 107.01172 0 rlineto
          -6.37598 -78.22363 -3.11719 -77.75586 0 -77.58398 0 -40.98535 0.37012 -45.90918 26.58887 -37.46289 18.34863 -25.85254 28.41895 -16.96387 36.61816 -4.58594 rrcurveto
          -10.23633 -77.95605 29.3418 0 rlineto
          11.3916 0 14.41406 0.03027 10.76855 -6.59961 7.83594 -4.80176 3.05664 -6.67871 0 -5.88965 0 -8.70508 -6.80371 -15.69336 -38.88184 0 -30.2334 0 -37.65625 10.06152 -31.41113 25.33105 rrcurveto
          -25.02637 -41.42383 rlineto
          37.36426 -26.27637 42.7832 -10.91211 38.41895 0 73.39258 0 35.07031 38.61035 0 35.72461 0 19.38672 -10.44043 17.97754 -19.06348 9.25 -12.84863 6.23535 -13.125 0.80957 -12.75977 0.67188 rrcurveto
          -16.39746 0.86328 4.36621 40.01465 rlineto
          46.2461 5.17676 43.87207 20.23047 33.24023 24.33008 rrcurveto
          -22.43848 56.95801 rlineto
          -38.7666 -28.8252 -35.42773 -12.88086 -28.13672 0 -34.10156 0 -35.4502 18.87012 -7.31348 54.86328 -0.53613 4.01953 -2.39941 17.57812 0 66.2207 0 59.71582 2.89551 59.64258 5.77344 59.39355 rrcurveto
          150.16211 59.54688 -149.29883 hlineto
          0 0 6.89551 82.28711 4.70117 25.3291 1.9873 10.70215 7.1875 6.16992 -3.51172 10.13965 rrcurveto
          endchar
        </CharString>
        <CharString name="thorn">
          60.41016 664.50977 rmoveto
          -831.06836 73.35449 226.96875 vlineto
          30.49805 -45.17383 51.12695 -27.44727 55.49316 0 rrcurveto
          93.38867 98.30371 78.29102 167.52539 161.23145 -95.50195 72.0459 -89.88086 hvcurveto
          -58.63379 0 -54.61914 -30.32324 -31.03711 -49.93555 rrcurveto
          245.0918 vlineto
          0 15.99902 7.36426 3.18164 -0.46094 13.61328 rrcurveto
          110.98145 -258.97656 rmoveto
          -67 callsubr
          endchar
        </CharString>
        <CharString name="three">
          410.82129 467.18848 rmoveto
          85.05566 -72.79492 72.81836 -98.55078 vhcurveto
          -56.20508 0 -54.41113 -23.97949 -39.10742 -42.72168 rrcurveto
          38.83496 -43.15039 rlineto
          29.06348 31.14746 39.8789 16.68457 38.53027 0 63.94238 0 44.37207 -44.45117 0 -52.63281 0 -37.95703 -23.32129 -41.14062 -43.13184 -18.94434 -10.95508 -4.81152 -28.3457 -10.87207 -59.11621 -0.12988 rrcurveto
          -56.09473 vlineto
          10.49316 1.47656 10.58008 0.74902 10.58887 0 rrcurveto
          84.37402 62.00293 -44.0752 -74.26758 -68.43066 -52.4502 -58.5918 -72.94824 hvcurveto
          -58.04785 0 -35.0625 37.2002 -4.42773 4.98828 -8.49219 9.56738 4.45117 9.6914 -8.88281 9.09277 rrcurveto
          -52.64258 -62.99902 rlineto
          41.79004 -46.45996 59.53809 -24.4707 62.40234 0 119.36914 0 72.47949 85.12305 0 96.81055 0 74.13867 -42.39062 63.08105 -64.64453 23.62207 55.91113 20.82617 37.32617 53.5293 0 60.57812 rrcurveto
          endchar
        </CharString>
        <CharString name="threequarters">
          81.12207 -16.39746 rmoveto
          -51 callsubr
          -266.80762 19.24414 rmoveto
          -40.27051 0 -38.85938 -18.0166 -26.87793 -31.76855 rrcurveto
          28.9961 -29.6875 rlineto
          19.21191 24.00977 28.32227 13.29785 27.05762 0 rrcurveto
          35.9834 23.73633 -23.38086 -23.93652 -18.36816 -14.25781 -22.78516 -52.41309 hvcurveto
          -5.29688 0 -5.29199 0.25977 -5.27051 0.5039 rrcurveto
          -40.04297 vlineto
          7.71973 0.94434 7.90137 0.50586 8.29102 0 rrcurveto
          61.23145 9.06445 -29.5332 -14.71582 -28.47266 -31.45801 -23.32227 -39.22266 hvcurveto
          -37.8711 0 -24.1416 21.9336 -4.21387 4.11328 -7.45117 7.27148 3.34863 7.53027 -7.0498 7.48828 rrcurveto
          -37.28125 -41.42383 rlineto
          28.71875 -32.81445 41.49316 -18.97168 43.63672 0 63.7998 0 57.08789 40.00977 0 52.28125 0 33.65918 -24.81348 28.93262 -33.8711 5.98633 26.53027 8.44727 18.48926 24.79688 0 29.27148 0 46.04785 -45.10059 39.94922 -59.60742 0 rrcurveto
          268.18848 -442.2002 rmoveto
          -50 callsubr
          -44.87598 -78.01465 rmoveto
          -49 callsubr
          endchar
        </CharString>
        <CharString name="tilde">
          135.49121 557.49805 rmoveto
          -44 callsubr
          endchar
        </CharString>
        <CharString name="trademark">
          238.66406 634.58984 rmoveto
          -220.85742 -39.97461 85.94434 -274.82227 44.97168 274.82227 89.9414 hlineto
          63.95898 39.97461 rmoveto
          -34.97754 -314.79688 41.97266 214.86133 hlineto
          54.96484 -106.93066 15.99023 -1 29.48047 53.46582 30.47949 54.46484 0 -214.86133 41.97266 0 0 314.79688 -32.97852 0 -37.47559 -72.45312 -37.47559 -72.45312 rlineto
          endchar
        </CharString>
        <CharString name="two">
          77.66992 526.42969 rmoveto
          50.91699 -40.56055 rlineto
          5.94531 8.47363 -2.55566 6.24902 5.33398 8.29199 14.70508 22.8623 37.41016 33.90625 54.41895 0 66.3877 0 53.28516 -51.43652 0 -66.9707 0 -75.91504 -63.95508 -54.70117 -45.18262 -40.7041 -71.16113 -64.1084 -57.3877 -64.30371 -52.47559 -103.5 rrcurveto
          -44.0127 365.91113 69.90332 vlineto
          -6.49023 2.15332 -4.90137 -4.85449 -2.07812 -1.79199 -4.05566 -3.49707 -2.07812 -0.63965 -4.55957 0 rrcurveto
          -261.48926 hlineto
          51.97168 90.60352 72.68555 61.91992 44.92383 42.08789 45.67969 42.7959 63.95117 64.08691 0 89.6123 0 97.08594 -79.01758 77.94238 -101.71973 0 -70.70801 0 -66.98828 -38.2207 -36.72266 -62.75781 rrcurveto
          endchar
        </CharString>
        <CharString name="u">
          62.99902 456.52734 rmoveto
          -63 callsubr
          endchar
        </CharString>
        <CharString name="uacute">
          291.69434 699.03027 rmoveto
          -53 callsubr
          -291.69434 -200.21582 rmoveto
          -63 callsubr
          endchar
        </CharString>
        <CharString name="ucircumflex">
          133.76465 544.55273 rmoveto
          -38 callsubr
          -182.09277 -228.69434 rmoveto
          -63 callsubr
          endchar
        </CharString>
        <CharString name="udieresis">
          213.17676 614.02246 rmoveto
          -60 callsubr
          177.76367 0.0127 rmoveto
          -59 callsubr
          -327.9414 -157.50781 rmoveto
          -63 callsubr
          endchar
        </CharString>
        <CharString name="ugrave">
          243.36621 699.03027 rmoveto
          -39 callsubr
          -268.39258 -95.79297 rmoveto
          -63 callsubr
          endchar
        </CharString>
        <CharString name="uhungarumlaut">
          214.02441 699.03027 rmoveto
          -53 callsubr
          92.34082 42.28711 rmoveto
          -53 callsubr
          -369.36426 -200.21582 rmoveto
          -63 callsubr
          endchar
        </CharString>
        <CharString name="underscore">
          34.51953 -18.98633 rmoveto
          -61.27246 431.5 61.27246 vlineto
          endchar
        </CharString>
        <CharString name="uni00B2">
          111.32715 554.0459 rmoveto
          46.60156 -31.06738 rlineto
          4.95801 9.41016 -0.70801 4.46289 5.39355 6.82324 17.58496 22.24707 32.64062 19.9834 38.40625 0 47.81055 0 27.47559 -29.3291 0 -31.72852 0 -30.08105 -22.54102 -24.13965 -29.0166 -23.59668 -29.94824 -24.35156 -73.4541 -48.76172 -55.70996 -77.04492 rrcurveto
          -44.0127 279.61133 62.99902 vlineto
          -6.49023 2.15332 -4.90137 -4.85352 -2.07812 -1.79297 -4.05566 -3.49805 -2.07812 -0.63867 -4.56055 0 rrcurveto
          -182.09277 hlineto
          55.87207 62.43848 55.29688 25.94727 39.71875 36.60547 14.20508 13.0918 32.53516 32.53223 0 47.34375 0 60.5918 -54.08008 51.36328 -79.60254 0 -60.64258 0 -56.13965 -30.89648 -30.01074 -52.2002 rrcurveto
          endchar
        </CharString>
        <CharString name="uni00B3">
          257.64453 637.85254 rmoveto
          -50.33789 0 -48.57422 -22.52051 -33.59766 -39.71094 rrcurveto
          36.2461 -37.10938 rlineto
          24.01465 30.0127 35.40234 16.62207 33.82227 0 rrcurveto
          44.97852 29.6709 -29.22656 -29.91992 -22.95996 -17.82227 -28.48145 -65.5166 hvcurveto
          -6.62012 0 -6.61523 0.32422 -6.58887 0.62988 rrcurveto
          -50.05371 vlineto
          9.65039 1.18066 9.87598 0.63184 10.36426 0 rrcurveto
          76.53906 11.33008 -36.91602 -18.39453 -35.59082 -39.32227 -29.15332 -49.02734 hvcurveto
          -47.33984 0 -30.17676 27.41699 -5.2666 5.1416 -9.31445 9.08984 4.18555 9.41211 -8.8125 9.36035 rrcurveto
          -46.60156 -51.7793 rlineto
          35.89941 -41.01855 51.86621 -23.71484 54.5459 0 79.74902 0 71.36035 50.0127 0 65.35156 0 42.07422 -31.0166 36.16504 -42.33984 7.4834 33.16309 10.55957 23.1123 30.99512 0 36.58984 0 57.55957 -56.37598 49.93652 -74.50977 0 rrcurveto
          endchar
        </CharString>
        <CharString name="uni00B9">
          298.59766 632.5791 rmoveto
          -43.14941 0 -133.76562 -73.35547 16.39746 -31.06738 96.65625 25.02637 0 -300.32324 63.86133 0 rlineto
          endchar
        </CharString>
        <CharString name="uni02C9">
          123.40918 621.36035 rmoveto
          -54 callsubr
          endchar
        </CharString>
        <CharString name="uni02CB">
          243.36621 699.03027 rmoveto
          -39 callsubr
          endchar
        </CharString>
        <CharString name="uni0400">
          77.97461 44.95605 138.95508 45.10547 113.4873 47.94629 hstem
          91.0586 59.06055 200.40918 55.67188 vstem
          125 416.24219 rmoveto
          28.90723 -37.38086 rlineto
          30.55273 31.99805 42.01562 9.61914 34.43945 0 44.3086 0 21.92969 -18.64062 10.5166 -17.29395 12.41016 -20.38477 -0.25 -24.02344 0 -19.7373 rrcurveto
          -13.40723 -12.01074 vlineto
          -54.9248 0 -58.86133 0.54883 -47.44824 -17.39453 -58.81152 -21.63086 -26.71484 -43.61035 0 -41.36719 0 -54.72559 47.54785 -50.83691 77.9502 0 45.80371 0 47.44824 16.64648 40.71973 33.39355 rrcurveto
          -40.86914 55.67188 231.11035 vlineto
          0 30.60156 -1.09668 28.85742 -17.24512 28.70898 -24.47168 40.81934 -47.34766 21.18164 -57.91504 0 -50.28906 0 -47.9961 -16.19824 -34.83887 -35.98438 rrcurveto
          226.92383 -154.35645 rmoveto
          -24.6709 vlineto
          0 -19.33789 -0.14941 -24.17285 -25.16992 -26.76465 -13.55664 -14.40332 -35.68555 -29.60547 -48.84375 0 -49.49121 0 -28.9082 31.25 0 33.34277 0 27.06348 19.04004 30.50293 46.7998 11.16406 33.8418 8.07422 49.99023 -2.44238 38.72559 0 rrcurveto
          13.40723 hmoveto
          endchar
        </CharString>
        <CharString name="uni0401">
          78.57227 47.59766 139.25488 45.10547 113.53711 45.20508 hstem
          90.70996 57.06738 vstem
          262.21094 469.27246 rmoveto
          -89.11523 -82.38574 -63.7461 -136.16406 -124.30273 77.80078 -66.4873 101.32617 hvcurveto
          53.22949 0 48.34473 19.48828 31.94824 38.37695 rrcurveto
          -32.39648 31.74805 rlineto
          -24.32227 -27.2627 -35.1875 -14.75293 -37.08105 0 -49.89062 0 -72.26855 27.5127 -4.43555 111.74219 rrcurveto
          264.75293 hlineto
          2.24219 25.61816 -1.14648 23.97266 -3.6875 21.63086 -16.94629 100.17969 -69.62695 32.44629 -61.1543 0 rrcurveto
          -112.54004 -158.74219 rmoveto
          11.61328 87.96875 56.81836 25.56836 40.02148 0 60.45605 0 43.16211 -53.08008 -6.97754 -60.45703 rrcurveto
          -205.09375 hmoveto
          endchar
        </CharString>
        <CharString name="uni0402">
          391.57129 46.50098 150.76758 46.15234 hstem
          183.5127 56.37012 vstem
          331.48926 634.99219 rmoveto
          -52.38281 0 -49.04297 -22.57812 -26.0664 -42.41406 -19.13867 -31.10059 -1.3457 -31.10059 0 -33.09375 rrcurveto
          -36.63281 -81.04102 -46.50098 81.04102 -304.42578 56.37012 304.42578 121.90918 46.50098 -121.90918 28.90723 vlineto
          0 27.01367 -0.34961 28.5586 13.90625 24.96973 15.40039 27.6123 28.80762 13.70605 30.85156 0 35.93457 0 29.85449 -18.93945 15.7002 -23.72461 2.6416 -3.98633 -0.64844 -2.24316 0.24902 -3.48926 0.44922 -5.58203 3.6875 -1.44531 2.49219 0.24902 rrcurveto
          26.76465 54.27637 rlineto
          -26.66504 32.09766 -40.51953 18.93945 -46.9502 0 rrcurveto
          0 vmoveto
          endchar
        </CharString>
        <CharString name="uni0403">
          -53.40527 44.55762 111.44336 49.6416 62.39941 47.24902 163.87598 46.50098 hstemhm
          82.33691 53.92676 -36.08398 53.67773 -40.76953 49.39258 155.65137 52.83105 -2.19336 53.87793 hintmask 1111010100000000
          153.85742 343.82422 rmoveto
          45.20508 36.83203 36.73242 45.35547 45.30469 36.78223 -36.73242 -45.15527 -45.25586 -36.78223 -36.73242 -45.35449 vhcurveto
          -45.35547 -36.78223 36.73242 45.20605 hvcurveto
          85.72559 128.43848 rmoveto
          -74.26172 -65.1416 -59.01074 -72.86719 hvcurveto
          0 -40.81934 20.93262 -37.97852 34.19043 -22.22852 rrcurveto
          hintmask 1111001000000000
          -26.91406 -22.82715 -15.30078 -25.21973 0 -23.97266 0 -15.55078 6.33008 -21.78027 23.57422 -12.41016 rrcurveto
          hintmask 1111100010000000
          -40.02148 -25.51855 -20.63379 -27.46191 0 -29.65527 rrcurveto
          -40.66992 37.92871 -47.69727 130.73145 126.3457 45.30469 64.04492 50.04004 vhcurveto
          0 32.29688 -18.39062 32.5957 -39.62402 16.09863 -38.9248 15.79883 -45.05566 -5.23242 -42.26562 0 -27.86035 0 -17.49414 2.49121 -7.9248 2.19336 rrcurveto
          hintmask 1111001100000000
          -14.30371 3.9375 -8.32324 8.77148 0 11.7627 0 19.78711 22.97559 18.93848 3.68848 2.99121 15.15137 -5.58203 16.04883 -2.8916 16.19824 0 73.86328 0 60.55664 58.91211 0 68.87988 0 22.62695 -6.67871 21.97949 -12.36035 18.59082 19.63672 11.8125 22.52832 6.2793 22.97656 0 rrcurveto
          7.22656 0 7.17773 -0.64746 7.12695 -1.19629 rrcurveto
          -7.02734 47.89648 rlineto
          -37.53027 2.94043 -37.23047 -11.86133 -28.8584 -24.17285 -22.97656 22.87695 -31.34961 12.70898 -34.04102 0 rrcurveto
          -56.86816 -365.18164 rmoveto
          14.15527 -1.84375 19.78613 -1.59473 28.5586 -1.04688 27.5127 -1.04688 30.10352 2.09375 21.43164 -3.24023 rrcurveto
          hintmask 1111100010000000
          34.58887 -5.23242 9.91797 -21.78125 0 -16.39746 0 -16.14746 -9.26953 -19.53809 -25.61816 -13.85547 -27.3623 -14.75293 -31.5498 -1.54492 -24.96973 0 -17.0459 0 -31.74805 0.94727 -28.16016 11.21387 -30.15332 12.01172 -6.6289 20.53418 0 13.00781 0 26.81445 25.02051 19.58789 21.43066 11.81152 rrcurveto
          0 vmoveto
          endchar
        </CharString>
        <CharString name="uni0404">
          418.03613 51.03711 160.68555 -20 hstemhm
          108.10449 68.03223 -68.03223 59.9082 178.97656 57.76562 hintmask 11011000
          108.10449 87.14551 rmoveto
          59.9082 214.91211 hlineto
          0 25.11914 2.99023 18.24219 15.5498 20.6836 14.20508 18.93945 35.83496 32.99414 39.47363 0 18.69043 0 18.49121 -7.625 13.35645 -15.99902 20.23535 -24.12305 0.14941 -31.99805 0 -26.36523 rrcurveto
          -224.78027 57.76562 226.17578 vlineto
          0 29.15723 -0.14941 30.75098 -13.30762 30.0039 -18.54102 41.96582 -38.27734 23.87402 -42.46387 0 -50.6377 0 -46.00293 -33.14453 -27.3623 -41.5664 rrcurveto
          216.35742 vlineto
          0 2.79102 0.14941 2.09375 2.79102 2.94043 rrcurveto
          hintmask 11101000
          1.89355 1.99316 3.29004 2.49219 0 4.28613 0 0.79785 -0.09961 0.84668 -0.2998 0.79785 rrcurveto
          -67.63281 hlineto
          hintmask 11011000
          -542.61328 vmoveto
          endchar
        </CharString>
        <CharString name="uni0405">
          87.14551 47.19824 278.35938 47.89648 78.25 83.83203 hstemhm
          216.60645 84.58008 -73.31543 59.20996 hintmask 11101000
          137.70898 460.59961 rmoveto
          -47.89648 90.16211 -278.35938 -95.0957 -47.19824 241.67676 47.19824 -87.3711 326.25586 vlineto
          -28.15918 162.08203 rmoveto
          hintmask 11110000
          -23.42578 -18.88965 -18.83984 -23.07617 -23.12598 18.88965 -18.79004 23.37598 23.4248 18.88965 18.83984 23.07617 23.12598 -18.88965 18.79004 -23.375 hvcurveto
          0 vmoveto
          endchar
        </CharString>
        <CharString name="uni0406">
          87.14551 47.19824 448.16602 47.24902 hstem
          225.77734 59.21094 vstem
          120.06543 629.75879 rmoveto
          -47.24902 105.71191 -448.16602 -110.64551 -47.19824 279.75488 47.19824 -109.89844 495.41504 vlineto
          -164.92285 hmoveto
          endchar
        </CharString>
        <CharString name="uni0407">
          418.03613 51.03711 -9.1709 -20 hstemhm
          106.65918 59.9082 179.02637 57.76562 hintmask 10110000
          106.65918 87.14551 rmoveto
          59.9082 214.91211 hlineto
          0 25.11914 3.04004 18.24219 15.5 20.6836 14.25488 18.93945 35.83496 32.99414 39.42383 0 18.74023 0 18.44043 -7.625 13.40723 -15.99902 20.18555 -24.12305 0.19922 -31.99805 0 -26.36523 rrcurveto
          -224.78027 57.76562 226.17578 vlineto
          0 29.15723 -0.19922 30.75098 -13.25781 30.0039 -18.59082 41.96582 -38.22754 23.87402 -42.51367 0 -50.58789 0 -46.00293 -33.14453 -27.41211 -41.5664 rrcurveto
          hintmask 01110000
          65.54004 -59.9082 vlineto
          -372.75684 vmoveto
          endchar
        </CharString>
        <CharString name="uni0408">
          418.48438 50.43945 -9.02148 -20 hstemhm
          132.07715 59.16113 hintmask 01100000
          132.07715 459.90234 rmoveto
          -373.50488 59.16113 181.81836 vlineto
          0 22.52734 0.89648 24.77148 25.31934 40.07129 rrcurveto
          hintmask 10100000
          33.9414 53.6289 44.50781 9.26953 26.36523 0 31.39941 0 19.7373 -14.55273 10.4668 -13.40723 4.9336 -6.23047 2.6416 -6.47852 6.28027 -5.98145 rrcurveto
          27.46191 56.37012 rlineto
          -23.4248 24.02246 -34.39062 16.69727 -41.86523 0 -54.52637 0 -55.32227 -27.5625 -24.42188 -53.3291 rrcurveto
          hintmask 01100000
          2.14258 71.87012 rlineto
          -61.30371 hmoveto
          endchar
        </CharString>
        <CharString name="uni0409">
          78.67188 49.34277 296.7002 44.3584 hstem
          121.46094 59.9082 168.46094 60.35742 vstem
          404.05664 410.56055 rmoveto
          -34.43945 38.02832 -49.54102 20.48438 -55.17383 0 -86.67285 0 -56.76855 -48.39551 0 -55.72168 0 -65.1416 70.67383 -23.77344 20.23535 -7.27734 31.5498 -11.41309 41.16797 -9.91797 27.56152 -12.85938 30.75195 -14.4541 6.42871 -19.63672 0 -13.45703 0 -34.93848 -42.61328 -24.07227 -53.2793 0 rrcurveto
          -63.94531 0 -40.96875 38.52637 -11.8125 13.40723 -2.74121 3.13965 0.34863 2.29297 0.14941 3.28906 0.0498 1.14648 0.34961 4.63574 -4.03711 1.89355 rrcurveto
          -33.79199 -58.46289 rlineto
          43.75977 -40.71973 57.01758 -18.49121 56.66895 0 101.97363 0 53.22949 60.1582 0 56.31934 0 25.81738 -10.61621 33.74219 -44.1084 24.77051 -42.16504 23.6748 -60.1084 8.42285 -34.83789 16.8457 -30.50293 14.75293 -6.47949 18.0918 0 12.51074 0 30.0039 36.4336 20.93262 42.16504 0 rrcurveto
          53.17969 0 36.18457 -32.89453 14.20508 -18.3418 2.29199 -2.94043 -0.54785 -1.94336 0 -2.89062 -0.0498 -4.88477 2.84082 -1.3457 1.44531 -0.34863 rrcurveto
          34.53906 51.43555 rmoveto
          endchar
        </CharString>
        <CharString name="uni040A">
          79.96777 54.12695 277.91113 48.59375 hstemhm
          187.74902 59.16113 -42.26465 64.14453 hintmask 11010000
          204.64551 559.98242 rmoveto
          -7.07812 -100.08008 -88.76562 0 -0.69727 -47.89648 87.37012 0 rlineto
          hintmask 11100000
          -5.1836 -63.89551 -2.54199 -63.49707 0 -63.34766 0 -33.44238 0.29883 -37.53027 21.68066 -30.55176 17.69336 -24.9707 29.15723 -14.80273 38.12793 0 44.4082 0 43.26074 18.59082 31.5498 23.07617 rrcurveto
          -18.29199 46.55078 rlineto
          -31.69824 -23.57422 -28.90723 -10.5166 -22.97656 0 -27.86133 0 -28.95703 15.40137 -5.93164 44.80566 -0.44824 3.29004 -1.94336 14.35352 0 54.07715 0 48.74414 2.3418 48.74414 4.73535 48.49512 rrcurveto
          122.60742 48.59375 -121.91016 hlineto
          0 0 5.63281 67.18555 3.83691 20.6836 rrcurveto
          hintmask 11010000
          1.5957 8.77246 5.88086 5.0332 -2.84082 8.27344 rrcurveto
          -64.14453 -10.56543 rmoveto
          endchar
        </CharString>
        <CharString name="uni040B">
          77.9248 47.94629 334.03125 -20 hstem
          101.77441 59.8584 185.35645 59.21094 vstem
          102.47168 459.90234 rmoveto
          -0.69727 -207.88477 rlineto
          -0.14941 -32.4961 0.34863 -32.69531 14.55371 -32.79492 21.83008 -48.99316 45.60352 -27.11328 48.54492 0 46.75098 0 44.1084 25.11914 24.32227 41.16895 rrcurveto
          -0.69824 -28.20996 rlineto
          -0.24902 -9.51953 0.09961 -9.76855 1.54492 -9.56934 rrcurveto
          62.00195 hlineto
          -3.53906 11.11426 -0.64746 11.76172 0 10.91504 rrcurveto
          338.96582 -59.21094 -205.04395 vlineto
          0 -28.75781 -2.24219 -22.1289 -12.45996 -22.77734 -17.0957 -31.2002 -33.14355 -24.12305 -35.93555 0 -29.20605 0 -27.2627 16.14844 -14.85254 29.50586 -13.20801 26.31543 0.0498 29.15723 0 25.01953 rrcurveto
          207.88477 vlineto
          -59.16113 hmoveto
          endchar
        </CharString>
        <CharString name="uni040C">
          -42.54004 45.80371 269.88672 45.80273 241.72656 46.50098 hstem
          184.06055 57.11816 vstem
          93.99902 318.95312 rmoveto
          -45.80273 16.89648 vlineto
          13.85547 0 21.03223 0.19922 16.74707 -16.44727 15.99805 -15.7002 5.53223 -23.77344 0 -35.2373 0 -25.46875 -3.08984 -24.37207 0 -31.79883 0 -29.6543 2.49219 -55.82129 43.0127 -33.04492 35.28711 -27.06348 41.81543 2.49219 50.43945 0 rrcurveto
          29.60449 45.80371 -30.30273 hlineto
          -33.54297 0 -25.46777 -1.64453 -22.3789 15.35059 -29.15625 20.13574 -4.18652 35.73535 0 28.11035 0 21.63086 2.5918 21.38086 0 25.26953 0 85.32715 -37.97852 31.10059 -31.00098 10.76562 25.26855 10.81543 20.78418 19.3877 12.06152 24.6709 10.81445 22.0791 2.14355 24.17285 0 19.4375 rrcurveto
          0 19.93652 -2.39258 17.89258 0 19.53809 0 16.59668 1.2959 39.72266 31.44922 19.6377 21.93066 13.70605 24.91992 -3.33984 35.68555 0 rrcurveto
          28.16016 46.50098 -24.6709 hlineto
          -43.81055 0 -52.43164 3.04102 -39.1748 -35.68652 -35.93457 -32.74512 -4.38672 -45.90332 0 -30.75098 0 -20.23535 2.09375 -18.49121 0 -19.68652 0 -19.98633 -2.04395 -29.30566 -19.13867 -20.03613 -17.79297 -18.74023 -22.32812 0.29883 -14.5039 0 rrcurveto
          -16.19824 hmoveto
          endchar
        </CharString>
        <CharString name="uni040D">
          -42.54004 45.80371 269.88672 45.80273 241.72656 46.50098 hstem
          269.53711 57.16699 vstem
          416.7666 318.95312 rmoveto
          -16.19824 hlineto
          -14.5039 0 -22.32812 -0.29883 -17.84277 18.74023 -19.13965 20.03613 -1.99316 29.30566 0 19.98633 0 19.68652 2.09375 18.49121 0 20.23535 0 30.75098 -4.38672 45.90332 -35.93457 32.74512 -39.1748 35.68652 -52.48242 -3.04102 -43.80957 0 rrcurveto
          -24.6709 -46.50098 28.20996 hlineto
          35.68555 0 24.87012 3.33984 21.98047 -13.70605 31.44922 -19.6377 1.2959 -39.72266 0 -16.59668 0 -19.53809 -2.44238 -17.89258 0 -19.93652 0 -19.4375 2.19238 -24.17285 10.81543 -22.0791 12.06152 -24.6709 20.73438 -19.3877 25.26855 -10.81543 -30.95117 -10.76562 -38.02832 -31.10059 0 -85.32715 rrcurveto
          0 -25.26953 2.5918 -21.38086 0 -21.63086 0 -28.11035 -4.13672 -35.73535 -29.20605 -20.13574 -22.3291 -15.35059 -25.46777 1.64453 -33.54297 0 rrcurveto
          -30.30273 -45.80371 29.55469 hlineto
          50.43848 0 41.86621 -2.49219 35.2373 27.06348 43.0127 33.04492 2.49219 55.82129 0 29.6543 0 31.79883 -3.04102 24.37207 0 25.46875 0 35.2373 5.5332 23.77344 15.99805 15.7002 16.74707 16.44727 21.03223 -0.19922 13.80566 0 rrcurveto
          16.94629 hlineto
          45.80273 vmoveto
          endchar
        </CharString>
        <CharString name="uni2074">
          302.0498 641.20898 rmoveto
          -200.21582 -256.31055 0 -35.38379 182.09277 0 0 -97.51855 56.95801 0 0 96.65625 62.99902 0 0 47.46484 -62.99902 0 0 245.0918 rlineto
          -56.09473 -97.51855 rmoveto
          -147.57324 -117.36816 vlineto
          endchar
        </CharString>
        <CharString name="uparrow">
          58.6836 403.88379 rmoveto
          43.15039 -35.38281 116.50488 144.4668 0 -546.625 66.45117 0 0 546.12305 106.14941 -143.96484 50.05371 33.65723 -173.46289 238.1875 -21.5752 0 rlineto
          endchar
        </CharString>
        <CharString name="uring">
          347.79297 604.96094 rmoveto
          -37 callsubr
          -132.11719 0.66992 rmoveto
          -36 callsubr
          -152.67676 -149.10352 rmoveto
          -63 callsubr
          endchar
        </CharString>
        <CharString name="v">
          39.69824 457.38965 rmoveto
          181.22949 -460.8418 56.0957 0 111.32617 260.62598 rlineto
          27.3252 63.97168 25.65137 66.61133 15.20117 69.63281 rrcurveto
          -64.72559 hlineto
          -12.08984 -66.56836 -24.18457 -63.35254 -25.86133 -59.93848 rrcurveto
          -73.35547 -170.01172 -132.03809 333.98145 rlineto
          -0.83594 2.11426 -0.63574 1.79492 0 2.40527 0 6.08105 4.92285 5.32227 -1.72559 8.17188 rrcurveto
          endchar
        </CharString>
        <CharString name="visiblespace">
          48.32812 69.90332 rmoveto
          -135.49121 403.88379 135.49121 -48.32812 -90.61523 -308.9541 90.61523 vlineto
          endchar
        </CharString>
        <CharString name="w">
          15.53418 457.38965 rmoveto
          92.34082 -458.25293 64.72461 0 80.25977 296.00977 84.57324 -296.00977 67.31445 0 rlineto
          30.93066 151.47266 25.33398 152.57715 19.67969 153.34082 rrcurveto
          -66.45117 hlineto
          1.80273 -55.21387 -4.72754 -50.75488 -39.3623 -259.94336 rrcurveto
          -96.65625 323.625 -44.0127 0 -78.5332 -324.48828 -66.45117 329.66602 rlineto
          -1.33008 6.60352 -0.20996 3.60742 2.47852 7.97852 1.64941 5.31348 2.63086 6.69922 -2.62988 7.76953 rrcurveto
          endchar
        </CharString>
        <CharString name="x">
          362.45996 457.38965 rmoveto
          -114.14258 -169.21875 -119.73047 169.21875 -78.5332 0 157.80566 -225.2002 -160.39453 -232.18945 81.12207 0 119.14551 177.63574 125.94629 -177.63574 81.98535 0 -167.89941 234.90527 148.05078 222.48438 rlineto
          endchar
        </CharString>
        <CharString name="y">
          45.73926 456.52734 rmoveto
          -62 callsubr
          endchar
        </CharString>
        <CharString name="yacute">
          291.69434 699.03027 rmoveto
          -53 callsubr
          -308.9541 -200.21582 rmoveto
          -62 callsubr
          endchar
        </CharString>
        <CharString name="ydieresis">
          213.17676 614.02246 rmoveto
          -60 callsubr
          177.76367 0.0127 rmoveto
          -59 callsubr
          -345.20117 -157.50781 rmoveto
          -62 callsubr
          endchar
        </CharString>
        <CharString name="yen">
          36.2461 623.94922 rmoveto
          187.27051 -328.80273 0 -20.71289 -139.80566 0 0 -56.95801 139.80566 0 0 -62.99902 -139.80566 0 0 -56.09473 139.80566 0 0 -98.38184 68.17773 0 0 98.38184 134.62793 0 0 56.09473 -134.62793 0 rlineto
          62.99902 134.62793 56.95801 -134.62793 20.71289 vlineto
          174.3252 327.93945 -74.21777 0 -132.90137 -259.7627 -144.98438 260.62598 rlineto
          endchar
        </CharString>
        <CharString name="z">
          70.76562 457.38965 rmoveto
          -61 callsubr
          endchar
        </CharString>
        <CharString name="zacute">
          291.69434 699.03027 rmoveto
          -53 callsubr
          -283.92773 -199.35352 rmoveto
          -61 callsubr
          endchar
        </CharString>
        <CharString name="zcaron">
          377.13184 658.46973 rmoveto
          -33 callsubr
          -195.03906 -60.41113 rmoveto
          -61 callsubr
          endchar
        </CharString>
        <CharString name="zdot">
          70.76562 457.38965 rmoveto
          -61 callsubr
          -171.73438 198.49023 rmoveto
          -73 callsubr
          endchar
        </CharString>
        <CharString name="zero">
          251.34766 627.40137 rmoveto
          -98.88574 -102.41504 -121.4375 -199.40723 -201.56543 103.87598 -116.22852 98.52637 90.43164 106.74805 98.13672 214.10449 212.66992 -102.40527 113.72754 -95.87598 hvcurveto
          97.3623 -142.43164 rmoveto
          -219.33984 -284.02734 rlineto
          -8.78809 34.23047 -5.11719 39.49121 0 44.05078 0 159.41406 73.18457 87.99902 61.75586 0 34.08887 0 37.48438 -26.15332 26.73145 -55.00488 rrcurveto
          23.125 -66.82422 rmoveto
          8.28223 -35.1416 4.86621 -41.66309 0 -48.45898 0 -174.12305 -75.1377 -66.21484 -54.97852 0 -37.00684 0 -38.33008 30.37695 -27.07812 54.65234 rrcurveto
          endchar
        </CharString>
        <CharString name="zero.noslash">
          -11.23633 63.86328 513.50488 61.27246 hstem
          62.84277 66.57812 243.50293 64.63867 vstem
          437.5625 308.78027 rmoveto
          196.21387 -83.02832 122.41016 -104.30273 -109.34961 -78.03906 -131.28906 -201.45508 -196.75195 86.67578 -109.14453 98.61426 108.79688 80.63281 130.06152 189.95508 vhcurveto
          -187.97852 257.35156 rmoveto
          25.10254 0 38.0586 -12.42676 26.58203 -63.14746 19.58496 -46.53027 14.01172 -81.9336 0 -66.51074 0 -50.67969 -8.30566 -79.97461 -28.19434 -52.56934 -26.44336 -49.30371 -34.4668 -10.42871 -22.84668 0 -26.29688 0 -39.50488 13.6748 -27.58594 66.32422 -16.76465 40.30371 -13.09375 66.66113 0 63.92773 rrcurveto
          0 88.64258 15.31152 63.71973 20.4668 44.81445 25.30762 55.41602 37.30957 10.02051 21.76758 0 rrcurveto
          endchar
        </CharString>
</ttFont>
